<mxfile host="app.diagrams.net" modified="2023-05-31T09:21:41.263Z" agent="Mozilla/5.0 (Windows NT 10.0; Win64; x64) AppleWebKit/537.36 (KHTML, like Gecko) Chrome/113.0.0.0 Safari/537.36" etag="HCYxjvrEDDp3wiGHhBfR" version="21.3.4" type="device">
  <diagram name="Page-1" id="QnDDU2Qlhw6ep6p2gf6N">
    <mxGraphModel dx="5938" dy="2400" grid="1" gridSize="10" guides="1" tooltips="1" connect="1" arrows="1" fold="1" page="1" pageScale="1" pageWidth="850" pageHeight="1100" math="0" shadow="0">
      <root>
        <mxCell id="0" />
        <mxCell id="1" parent="0" />
        <mxCell id="l-K92PUKApTtVLYodrS5-45" value="&amp;nbsp;" style="shape=dataStorage;whiteSpace=wrap;html=1;fixedSize=1;fontSize=16;rotation=-180;" parent="1" vertex="1">
          <mxGeometry x="513" y="1230" width="100" height="80" as="geometry" />
        </mxCell>
        <mxCell id="l-K92PUKApTtVLYodrS5-29" value="" style="whiteSpace=wrap;html=1;aspect=fixed;fontSize=16;fillColor=#ffe6cc;strokeColor=#d79b00;" parent="1" vertex="1">
          <mxGeometry x="388" y="530" width="350" height="350" as="geometry" />
        </mxCell>
        <mxCell id="l-K92PUKApTtVLYodrS5-28" value="" style="ellipse;whiteSpace=wrap;html=1;fontSize=16;" parent="1" vertex="1">
          <mxGeometry x="-324.25" y="657.5" width="180" height="115" as="geometry" />
        </mxCell>
        <mxCell id="l-K92PUKApTtVLYodrS5-27" value="" style="ellipse;whiteSpace=wrap;html=1;fontSize=16;" parent="1" vertex="1">
          <mxGeometry x="-812" y="625" width="170" height="180" as="geometry" />
        </mxCell>
        <mxCell id="tO9t_JNUFf-7nCC-GWUU-3" value="" style="rounded=0;whiteSpace=wrap;html=1;fillColor=#dae8fc;strokeColor=#6c8ebf;" parent="1" vertex="1">
          <mxGeometry x="60" y="230" width="690" height="160" as="geometry" />
        </mxCell>
        <mxCell id="tO9t_JNUFf-7nCC-GWUU-7" style="edgeStyle=orthogonalEdgeStyle;rounded=0;orthogonalLoop=1;jettySize=auto;html=1;entryX=0;entryY=0.5;entryDx=0;entryDy=0;" parent="1" source="tO9t_JNUFf-7nCC-GWUU-1" target="tO9t_JNUFf-7nCC-GWUU-2" edge="1">
          <mxGeometry relative="1" as="geometry" />
        </mxCell>
        <mxCell id="tO9t_JNUFf-7nCC-GWUU-10" style="edgeStyle=orthogonalEdgeStyle;rounded=0;orthogonalLoop=1;jettySize=auto;html=1;entryX=0.5;entryY=0;entryDx=0;entryDy=0;" parent="1" source="tO9t_JNUFf-7nCC-GWUU-1" target="tO9t_JNUFf-7nCC-GWUU-8" edge="1">
          <mxGeometry relative="1" as="geometry">
            <Array as="points">
              <mxPoint x="163" y="260" />
              <mxPoint x="409" y="260" />
            </Array>
          </mxGeometry>
        </mxCell>
        <mxCell id="tO9t_JNUFf-7nCC-GWUU-1" value="List Directory&lt;br&gt;" style="rounded=0;whiteSpace=wrap;html=1;" parent="1" vertex="1">
          <mxGeometry x="123" y="280" width="87" height="70" as="geometry" />
        </mxCell>
        <mxCell id="tO9t_JNUFf-7nCC-GWUU-9" style="edgeStyle=orthogonalEdgeStyle;rounded=0;orthogonalLoop=1;jettySize=auto;html=1;entryX=0;entryY=0.5;entryDx=0;entryDy=0;" parent="1" source="tO9t_JNUFf-7nCC-GWUU-2" target="tO9t_JNUFf-7nCC-GWUU-8" edge="1">
          <mxGeometry relative="1" as="geometry" />
        </mxCell>
        <mxCell id="tO9t_JNUFf-7nCC-GWUU-2" value="hana&lt;br&gt;statement&lt;br&gt;(check duplicate file name)" style="rounded=0;whiteSpace=wrap;html=1;" parent="1" vertex="1">
          <mxGeometry x="246" y="280" width="87" height="90" as="geometry" />
        </mxCell>
        <mxCell id="tO9t_JNUFf-7nCC-GWUU-11" style="edgeStyle=orthogonalEdgeStyle;rounded=0;orthogonalLoop=1;jettySize=auto;html=1;dashed=1;" parent="1" source="tO9t_JNUFf-7nCC-GWUU-4" target="tO9t_JNUFf-7nCC-GWUU-2" edge="1">
          <mxGeometry relative="1" as="geometry" />
        </mxCell>
        <mxCell id="tO9t_JNUFf-7nCC-GWUU-4" value="Hana&lt;br&gt;(AFM)" style="shape=cylinder3;whiteSpace=wrap;html=1;boundedLbl=1;backgroundOutline=1;size=15;" parent="1" vertex="1">
          <mxGeometry x="256" y="405" width="67" height="95" as="geometry" />
        </mxCell>
        <mxCell id="tO9t_JNUFf-7nCC-GWUU-6" value="Match files by regex" style="edgeStyle=orthogonalEdgeStyle;rounded=0;orthogonalLoop=1;jettySize=auto;html=1;entryX=0;entryY=0.25;entryDx=0;entryDy=0;dashed=1;" parent="1" source="tO9t_JNUFf-7nCC-GWUU-5" target="tO9t_JNUFf-7nCC-GWUU-1" edge="1">
          <mxGeometry relative="1" as="geometry" />
        </mxCell>
        <mxCell id="tO9t_JNUFf-7nCC-GWUU-12" style="edgeStyle=orthogonalEdgeStyle;rounded=0;orthogonalLoop=1;jettySize=auto;html=1;entryX=0.75;entryY=0;entryDx=0;entryDy=0;dashed=1;" parent="1" source="tO9t_JNUFf-7nCC-GWUU-5" target="tO9t_JNUFf-7nCC-GWUU-8" edge="1">
          <mxGeometry relative="1" as="geometry">
            <Array as="points">
              <mxPoint x="-87" y="170" />
              <mxPoint x="428" y="170" />
              <mxPoint x="428" y="270" />
              <mxPoint x="430" y="270" />
            </Array>
          </mxGeometry>
        </mxCell>
        <mxCell id="tO9t_JNUFf-7nCC-GWUU-5" value="FTP" style="shape=note;whiteSpace=wrap;html=1;backgroundOutline=1;darkOpacity=0.05;size=13;" parent="1" vertex="1">
          <mxGeometry x="-167" y="255" width="90" height="110" as="geometry" />
        </mxCell>
        <mxCell id="tO9t_JNUFf-7nCC-GWUU-14" style="edgeStyle=orthogonalEdgeStyle;rounded=0;orthogonalLoop=1;jettySize=auto;html=1;entryX=0.5;entryY=0;entryDx=0;entryDy=0;entryPerimeter=0;" parent="1" source="tO9t_JNUFf-7nCC-GWUU-8" target="tO9t_JNUFf-7nCC-GWUU-13" edge="1">
          <mxGeometry relative="1" as="geometry" />
        </mxCell>
        <mxCell id="tO9t_JNUFf-7nCC-GWUU-17" style="edgeStyle=orthogonalEdgeStyle;rounded=0;orthogonalLoop=1;jettySize=auto;html=1;entryX=0;entryY=0.5;entryDx=0;entryDy=0;" parent="1" source="tO9t_JNUFf-7nCC-GWUU-8" target="tO9t_JNUFf-7nCC-GWUU-15" edge="1">
          <mxGeometry relative="1" as="geometry" />
        </mxCell>
        <mxCell id="tO9t_JNUFf-7nCC-GWUU-8" value="Copy File" style="rounded=0;whiteSpace=wrap;html=1;" parent="1" vertex="1">
          <mxGeometry x="368" y="280" width="82" height="80" as="geometry" />
        </mxCell>
        <mxCell id="tO9t_JNUFf-7nCC-GWUU-18" style="edgeStyle=orthogonalEdgeStyle;rounded=0;orthogonalLoop=1;jettySize=auto;html=1;entryX=0.163;entryY=1.033;entryDx=0;entryDy=0;entryPerimeter=0;" parent="1" source="tO9t_JNUFf-7nCC-GWUU-13" target="tO9t_JNUFf-7nCC-GWUU-15" edge="1">
          <mxGeometry relative="1" as="geometry" />
        </mxCell>
        <mxCell id="tO9t_JNUFf-7nCC-GWUU-13" value="HDFS&lt;br&gt;(Lake file system)" style="shape=cylinder3;whiteSpace=wrap;html=1;boundedLbl=1;backgroundOutline=1;size=15;" parent="1" vertex="1">
          <mxGeometry x="373" y="420" width="72" height="100" as="geometry" />
        </mxCell>
        <mxCell id="tO9t_JNUFf-7nCC-GWUU-19" style="edgeStyle=orthogonalEdgeStyle;rounded=0;orthogonalLoop=1;jettySize=auto;html=1;entryX=0.5;entryY=0;entryDx=0;entryDy=0;entryPerimeter=0;" parent="1" source="tO9t_JNUFf-7nCC-GWUU-15" target="tO9t_JNUFf-7nCC-GWUU-16" edge="1">
          <mxGeometry relative="1" as="geometry">
            <Array as="points">
              <mxPoint x="528" y="395" />
              <mxPoint x="553" y="395" />
            </Array>
          </mxGeometry>
        </mxCell>
        <mxCell id="tO9t_JNUFf-7nCC-GWUU-21" style="edgeStyle=orthogonalEdgeStyle;rounded=0;orthogonalLoop=1;jettySize=auto;html=1;entryX=0;entryY=0.5;entryDx=0;entryDy=0;" parent="1" source="tO9t_JNUFf-7nCC-GWUU-15" target="tO9t_JNUFf-7nCC-GWUU-20" edge="1">
          <mxGeometry relative="1" as="geometry" />
        </mxCell>
        <mxCell id="tO9t_JNUFf-7nCC-GWUU-15" value="Schema&lt;br&gt;Validation&lt;br&gt;(Validate and insert to table)" style="rounded=0;whiteSpace=wrap;html=1;" parent="1" vertex="1">
          <mxGeometry x="503" y="270" width="97" height="80" as="geometry" />
        </mxCell>
        <mxCell id="tO9t_JNUFf-7nCC-GWUU-16" value="Cloudera Table" style="shape=cylinder3;whiteSpace=wrap;html=1;boundedLbl=1;backgroundOutline=1;size=15;" parent="1" vertex="1">
          <mxGeometry x="523" y="450" width="60" height="80" as="geometry" />
        </mxCell>
        <mxCell id="tO9t_JNUFf-7nCC-GWUU-20" value="Copy File&lt;br&gt;(Move to processed directory)" style="rounded=0;whiteSpace=wrap;html=1;" parent="1" vertex="1">
          <mxGeometry x="641" y="280" width="97" height="70" as="geometry" />
        </mxCell>
        <mxCell id="tO9t_JNUFf-7nCC-GWUU-23" style="edgeStyle=orthogonalEdgeStyle;rounded=0;orthogonalLoop=1;jettySize=auto;html=1;entryX=0.433;entryY=0.033;entryDx=0;entryDy=0;entryPerimeter=0;" parent="1" source="tO9t_JNUFf-7nCC-GWUU-22" target="tO9t_JNUFf-7nCC-GWUU-15" edge="1">
          <mxGeometry relative="1" as="geometry" />
        </mxCell>
        <mxCell id="tO9t_JNUFf-7nCC-GWUU-22" value="sCHEMA REG" style="shape=cylinder3;whiteSpace=wrap;html=1;boundedLbl=1;backgroundOutline=1;size=15;" parent="1" vertex="1">
          <mxGeometry x="536" y="90" width="87" height="100" as="geometry" />
        </mxCell>
        <mxCell id="tO9t_JNUFf-7nCC-GWUU-26" value="" style="rounded=0;whiteSpace=wrap;html=1;fillColor=#dae8fc;strokeColor=#6c8ebf;" parent="1" vertex="1">
          <mxGeometry x="83" y="590" width="650" height="140" as="geometry" />
        </mxCell>
        <mxCell id="tO9t_JNUFf-7nCC-GWUU-40" style="edgeStyle=orthogonalEdgeStyle;rounded=0;orthogonalLoop=1;jettySize=auto;html=1;" parent="1" source="tO9t_JNUFf-7nCC-GWUU-33" target="tO9t_JNUFf-7nCC-GWUU-39" edge="1">
          <mxGeometry relative="1" as="geometry" />
        </mxCell>
        <mxCell id="tO9t_JNUFf-7nCC-GWUU-33" value="Api Request" style="rounded=0;whiteSpace=wrap;html=1;" parent="1" vertex="1">
          <mxGeometry x="223" y="620" width="80" height="60" as="geometry" />
        </mxCell>
        <mxCell id="tO9t_JNUFf-7nCC-GWUU-34" style="edgeStyle=orthogonalEdgeStyle;rounded=0;orthogonalLoop=1;jettySize=auto;html=1;entryX=0;entryY=0.5;entryDx=0;entryDy=0;" parent="1" source="tO9t_JNUFf-7nCC-GWUU-35" target="tO9t_JNUFf-7nCC-GWUU-36" edge="1">
          <mxGeometry relative="1" as="geometry" />
        </mxCell>
        <mxCell id="tO9t_JNUFf-7nCC-GWUU-43" style="edgeStyle=orthogonalEdgeStyle;rounded=0;orthogonalLoop=1;jettySize=auto;html=1;" parent="1" source="tO9t_JNUFf-7nCC-GWUU-35" target="tO9t_JNUFf-7nCC-GWUU-42" edge="1">
          <mxGeometry relative="1" as="geometry" />
        </mxCell>
        <mxCell id="tO9t_JNUFf-7nCC-GWUU-35" value="Flattening" style="rounded=0;whiteSpace=wrap;html=1;" parent="1" vertex="1">
          <mxGeometry x="413" y="610" width="90" height="60" as="geometry" />
        </mxCell>
        <mxCell id="tO9t_JNUFf-7nCC-GWUU-36" value="Copy File&lt;br&gt;(Move to processed directory)" style="rounded=0;whiteSpace=wrap;html=1;" parent="1" vertex="1">
          <mxGeometry x="543" y="640" width="80" height="60" as="geometry" />
        </mxCell>
        <mxCell id="tO9t_JNUFf-7nCC-GWUU-38" style="edgeStyle=orthogonalEdgeStyle;rounded=0;orthogonalLoop=1;jettySize=auto;html=1;" parent="1" source="tO9t_JNUFf-7nCC-GWUU-37" target="tO9t_JNUFf-7nCC-GWUU-33" edge="1">
          <mxGeometry relative="1" as="geometry" />
        </mxCell>
        <mxCell id="tO9t_JNUFf-7nCC-GWUU-37" value="Api" style="shape=note;whiteSpace=wrap;html=1;backgroundOutline=1;darkOpacity=0.05;size=13;" parent="1" vertex="1">
          <mxGeometry x="113" y="500" width="80" height="80" as="geometry" />
        </mxCell>
        <mxCell id="tO9t_JNUFf-7nCC-GWUU-41" style="edgeStyle=orthogonalEdgeStyle;rounded=0;orthogonalLoop=1;jettySize=auto;html=1;entryX=0.25;entryY=1;entryDx=0;entryDy=0;" parent="1" source="tO9t_JNUFf-7nCC-GWUU-39" target="tO9t_JNUFf-7nCC-GWUU-35" edge="1">
          <mxGeometry relative="1" as="geometry" />
        </mxCell>
        <mxCell id="tO9t_JNUFf-7nCC-GWUU-39" value="HDFS&lt;br&gt;(Lake file system)" style="shape=cylinder3;whiteSpace=wrap;html=1;boundedLbl=1;backgroundOutline=1;size=15;" parent="1" vertex="1">
          <mxGeometry x="223" y="760" width="60" height="80" as="geometry" />
        </mxCell>
        <mxCell id="tO9t_JNUFf-7nCC-GWUU-42" value="Cloudera Table" style="shape=cylinder3;whiteSpace=wrap;html=1;boundedLbl=1;backgroundOutline=1;size=15;" parent="1" vertex="1">
          <mxGeometry x="483" y="780" width="60" height="80" as="geometry" />
        </mxCell>
        <mxCell id="l-K92PUKApTtVLYodrS5-4" style="edgeStyle=none;curved=1;rounded=0;orthogonalLoop=1;jettySize=auto;html=1;entryX=0;entryY=0.5;entryDx=0;entryDy=0;entryPerimeter=0;fontSize=12;startSize=8;endSize=8;" parent="1" source="l-K92PUKApTtVLYodrS5-3" target="tO9t_JNUFf-7nCC-GWUU-37" edge="1">
          <mxGeometry relative="1" as="geometry" />
        </mxCell>
        <mxCell id="l-K92PUKApTtVLYodrS5-3" value="3rd party&amp;nbsp;" style="shape=note;whiteSpace=wrap;html=1;backgroundOutline=1;darkOpacity=0.05;fontSize=16;" parent="1" vertex="1">
          <mxGeometry x="-97" y="500" width="80" height="80" as="geometry" />
        </mxCell>
        <mxCell id="l-K92PUKApTtVLYodrS5-5" value="handshake&amp;nbsp;" style="text;html=1;strokeColor=none;fillColor=none;align=center;verticalAlign=middle;whiteSpace=wrap;rounded=0;fontSize=16;" parent="1" vertex="1">
          <mxGeometry x="13" y="510" width="60" height="30" as="geometry" />
        </mxCell>
        <mxCell id="l-K92PUKApTtVLYodrS5-6" value="done by the workload" style="text;html=1;strokeColor=none;fillColor=none;align=center;verticalAlign=middle;whiteSpace=wrap;rounded=0;fontSize=16;" parent="1" vertex="1">
          <mxGeometry x="428" y="540" width="75" height="50" as="geometry" />
        </mxCell>
        <mxCell id="l-K92PUKApTtVLYodrS5-9" value="Req :&amp;nbsp;&lt;br&gt;DSUA document&amp;nbsp;&lt;br&gt;DDA : Data D agreement&amp;nbsp; &lt;br&gt;technical details&amp;nbsp;&amp;nbsp;&lt;br&gt;Owner of data" style="text;html=1;strokeColor=#d6b656;fillColor=#fff2cc;align=center;verticalAlign=middle;whiteSpace=wrap;rounded=0;fontSize=16;" parent="1" vertex="1">
          <mxGeometry y="652.5" width="210" height="150" as="geometry" />
        </mxCell>
        <mxCell id="l-K92PUKApTtVLYodrS5-10" value="" style="endArrow=none;dashed=1;html=1;dashPattern=1 3;strokeWidth=2;rounded=0;fontSize=12;startSize=8;endSize=8;curved=1;" parent="1" edge="1">
          <mxGeometry width="50" height="50" relative="1" as="geometry">
            <mxPoint x="-137" y="890" as="sourcePoint" />
            <mxPoint x="-137" y="480" as="targetPoint" />
          </mxGeometry>
        </mxCell>
        <mxCell id="l-K92PUKApTtVLYodrS5-11" value="" style="endArrow=none;dashed=1;html=1;dashPattern=1 3;strokeWidth=2;rounded=0;fontSize=12;startSize=8;endSize=8;curved=1;" parent="1" edge="1">
          <mxGeometry width="50" height="50" relative="1" as="geometry">
            <mxPoint x="-137" y="890" as="sourcePoint" />
            <mxPoint x="383" y="890" as="targetPoint" />
          </mxGeometry>
        </mxCell>
        <mxCell id="l-K92PUKApTtVLYodrS5-13" value="" style="endArrow=none;dashed=1;html=1;dashPattern=1 3;strokeWidth=2;rounded=0;fontSize=12;startSize=8;endSize=8;curved=1;" parent="1" edge="1">
          <mxGeometry width="50" height="50" relative="1" as="geometry">
            <mxPoint x="378" y="890" as="sourcePoint" />
            <mxPoint x="378" y="530" as="targetPoint" />
          </mxGeometry>
        </mxCell>
        <mxCell id="l-K92PUKApTtVLYodrS5-14" value="" style="endArrow=none;dashed=1;html=1;dashPattern=1 3;strokeWidth=2;rounded=0;fontSize=12;startSize=8;endSize=8;curved=1;" parent="1" edge="1">
          <mxGeometry width="50" height="50" relative="1" as="geometry">
            <mxPoint x="-137" y="480" as="sourcePoint" />
            <mxPoint x="193" y="480" as="targetPoint" />
          </mxGeometry>
        </mxCell>
        <mxCell id="l-K92PUKApTtVLYodrS5-15" value="" style="endArrow=none;dashed=1;html=1;dashPattern=1 3;strokeWidth=2;rounded=0;fontSize=12;startSize=8;endSize=8;curved=1;" parent="1" edge="1">
          <mxGeometry width="50" height="50" relative="1" as="geometry">
            <mxPoint x="193" y="480" as="sourcePoint" />
            <mxPoint x="373" y="550" as="targetPoint" />
          </mxGeometry>
        </mxCell>
        <mxCell id="l-K92PUKApTtVLYodrS5-16" value="&lt;span&gt;&lt;span dir=&quot;ltr&quot; class=&quot;ui-provider gr b c d e f g h i j k l m n o p q r s t u v w x y z ab ac ae af ag ah ai aj ak&quot;&gt;&lt;p&gt;&lt;span style=&quot;background-color: initial;&quot;&gt;For the following ingestion patterns - inbound, outbound, api:&lt;/span&gt;&lt;br&gt;&lt;/p&gt;&lt;ol&gt;&lt;li&gt;What mapping document do you use for example a Excel Mapping Document or a JSON schema etc.&lt;/li&gt;&lt;li&gt;What do you have to configure on the pipeline for example in the file ingestion pattern you will &amp;nbsp;create a JSON Document from the Mapping document and add into the Control Framework table on SAP Hana&lt;/li&gt;&lt;li&gt;What other documents do you require and create to enable the pipeline to work correctly for example create a DDL or create a virtualaztion on SAP Hana&lt;/li&gt;&lt;li&gt;What also do you need to do to get the specific ingestion working&lt;/li&gt;&lt;/ol&gt;&lt;/span&gt;&lt;/span&gt;" style="text;whiteSpace=wrap;html=1;fontSize=16;fillColor=#f5f5f5;fontColor=#333333;strokeColor=#666666;" parent="1" vertex="1">
          <mxGeometry x="63" y="910" width="560" height="230" as="geometry" />
        </mxCell>
        <mxCell id="l-K92PUKApTtVLYodrS5-17" value="&lt;br&gt;&lt;h1 style=&quot;border-color: var(--border-color); text-align: left;&quot;&gt;Api ingestion :&lt;/h1&gt;&lt;div style=&quot;text-align: justify;&quot;&gt;config json for api (tample):-&amp;gt;&amp;nbsp;https://wiki.sanlam.co.za/display&lt;/div&gt;&lt;div style=&quot;text-align: justify;&quot;&gt;/GBIPAF/DP+-+Guide+-+Component+Details#DPGuideComponentDetails-ApiRequest&lt;/div&gt;&lt;div style=&quot;text-align: justify;&quot;&gt;Summary&amp;nbsp;&lt;/div&gt;&lt;div style=&quot;text-align: justify;&quot;&gt;&lt;span style=&quot;background-color: initial;&quot;&gt;For the Api ingestion pattern:&amp;nbsp;&lt;/span&gt;&lt;/div&gt;&lt;div style=&quot;text-align: justify;&quot;&gt;&lt;span style=&quot;background-color: initial;&quot;&gt;1. No mapping documents required, because the workload lands the data from HDFS&lt;/span&gt;&lt;/div&gt;&lt;div style=&quot;text-align: justify;&quot;&gt;&lt;span style=&quot;background-color: initial;&quot;&gt;to the cloudera tables&amp;nbsp;&lt;/span&gt;&lt;/div&gt;&lt;div style=&quot;text-align: justify;&quot;&gt;&lt;span style=&quot;background-color: initial;&quot;&gt;2. Endpoints(url to be captured ), Api location , tokens for the api, portal&lt;/span&gt;&lt;/div&gt;&lt;div style=&quot;text-align: justify;&quot;&gt;&lt;span style=&quot;background-color: initial;&quot;&gt;&quot;json example from Sydney &quot;sent via teams&amp;nbsp;&lt;/span&gt;&lt;/div&gt;&lt;div style=&quot;text-align: justify;&quot;&gt;&lt;span style=&quot;background-color: initial;&quot;&gt;3. DSUA - before hand&lt;/span&gt;&lt;/div&gt;&lt;div style=&quot;text-align: justify;&quot;&gt;&lt;span style=&quot;background-color: initial;&quot;&gt;Data engin team builds DDA document (pear review )&lt;/span&gt;&lt;/div&gt;&lt;div style=&quot;text-align: justify;&quot;&gt;&lt;span style=&quot;background-color: initial;&quot;&gt;technical solution (peer review)&lt;/span&gt;&lt;/div&gt;&lt;div style=&quot;text-align: justify;&quot;&gt;&lt;span style=&quot;background-color: initial;&quot;&gt;Virtualisazion- folder/ strucure (SAP Hana)&lt;/span&gt;&lt;/div&gt;&lt;div style=&quot;text-align: justify;&quot;&gt;&lt;span style=&quot;background-color: initial;&quot;&gt;part of the technical solution&lt;/span&gt;&lt;/div&gt;" style="text;html=1;align=center;verticalAlign=middle;resizable=0;points=[];autosize=1;fontSize=16;fillColor=#ffe6cc;strokeColor=#d79b00;" parent="1" vertex="1">
          <mxGeometry x="-847" y="220" width="640" height="360" as="geometry" />
        </mxCell>
        <mxCell id="l-K92PUKApTtVLYodrS5-21" style="edgeStyle=none;curved=1;rounded=0;orthogonalLoop=1;jettySize=auto;html=1;fontSize=12;startSize=8;endSize=8;" parent="1" source="l-K92PUKApTtVLYodrS5-18" target="l-K92PUKApTtVLYodrS5-20" edge="1">
          <mxGeometry relative="1" as="geometry" />
        </mxCell>
        <mxCell id="l-K92PUKApTtVLYodrS5-18" value="input - DDA&lt;br&gt;Build techinal solution (application for the workload )" style="text;html=1;strokeColor=none;fillColor=none;align=center;verticalAlign=middle;whiteSpace=wrap;rounded=0;fontSize=16;" parent="1" vertex="1">
          <mxGeometry x="-757" y="700" width="60" height="30" as="geometry" />
        </mxCell>
        <mxCell id="l-K92PUKApTtVLYodrS5-20" value="Output - data landed&amp;nbsp;" style="text;html=1;strokeColor=none;fillColor=none;align=center;verticalAlign=middle;whiteSpace=wrap;rounded=0;fontSize=16;" parent="1" vertex="1">
          <mxGeometry x="-298.5" y="700" width="128.5" height="40" as="geometry" />
        </mxCell>
        <mxCell id="l-K92PUKApTtVLYodrS5-22" value="Done by ingestion team" style="text;html=1;strokeColor=#d6b656;fillColor=#fff2cc;align=center;verticalAlign=middle;whiteSpace=wrap;rounded=0;fontSize=16;" parent="1" vertex="1">
          <mxGeometry x="-114" y="590" width="97" height="110" as="geometry" />
        </mxCell>
        <mxCell id="l-K92PUKApTtVLYodrS5-23" value="&lt;b&gt;Notes from Wiki: Pipeline (Inbound, outbound and api ingestion patterns)&amp;nbsp;&lt;br&gt;&lt;/b&gt;" style="text;html=1;strokeColor=none;fillColor=none;align=center;verticalAlign=middle;whiteSpace=wrap;rounded=0;fontSize=16;" parent="1" vertex="1">
          <mxGeometry x="-850" y="805" width="630" height="30" as="geometry" />
        </mxCell>
        <mxCell id="l-K92PUKApTtVLYodrS5-24" value="&lt;h1&gt;&lt;span style=&quot;background-color: initial;&quot;&gt;Write back (Inbound) :&lt;/span&gt;&lt;/h1&gt;&lt;h1&gt;&lt;span style=&quot;background-color: initial; font-size: 16px; font-weight: normal;&quot;&gt;link:&lt;/span&gt;&lt;br&gt;&lt;/h1&gt;https://wiki.sanlam.co.za/pages/viewpage.action?spaceKey=GBIPAF&amp;amp;title=DP+-+Guide+-+Component+Details#DPGuideComponentDetails-Writeback&lt;br&gt;&lt;br&gt;Summary of the write back function: This just writes back from Hana a view for a workload back to HDFS (&lt;b&gt;inbound &lt;/b&gt;--will check on sydney&#39;s vid, just did),&amp;nbsp;&lt;br&gt;&quot;Writes data from Hana to HDFS, enabling&lt;br&gt;chunking mechanisms to move large data sets&quot;&lt;br&gt;&lt;br&gt;&lt;span style=&quot;background-color: initial;&quot;&gt;&lt;div&gt;Doesn’t not require any input data from a previous component (no contractual interface), thus no mapping document required.&lt;/div&gt;&lt;div&gt;&lt;br&gt;&lt;/div&gt;&lt;div&gt;Additional configs required:&amp;nbsp;&lt;/div&gt;&lt;div&gt;1. View to read from Hana&lt;/div&gt;&lt;div&gt;2. HDFS location to land the data&amp;nbsp;&lt;/div&gt;&lt;div&gt;3. &quot;Strategy&quot;&amp;nbsp;&lt;/div&gt;&lt;div&gt;4. JSON template. -&amp;gt; link above&amp;nbsp;&lt;/div&gt;&lt;div&gt;&lt;br&gt;&lt;/div&gt;&lt;/span&gt;" style="text;html=1;strokeColor=#9673a6;fillColor=#e1d5e7;spacing=5;spacingTop=-20;whiteSpace=wrap;overflow=hidden;rounded=0;fontSize=16;" parent="1" vertex="1">
          <mxGeometry x="-827" y="840" width="740" height="440" as="geometry" />
        </mxCell>
        <mxCell id="l-K92PUKApTtVLYodrS5-31" style="edgeStyle=none;curved=1;rounded=0;orthogonalLoop=1;jettySize=auto;html=1;fontSize=12;startSize=8;endSize=8;" parent="1" source="l-K92PUKApTtVLYodrS5-30" edge="1">
          <mxGeometry relative="1" as="geometry">
            <mxPoint x="-277" y="1350" as="targetPoint" />
          </mxGeometry>
        </mxCell>
        <mxCell id="l-K92PUKApTtVLYodrS5-30" value="Input: non" style="ellipse;whiteSpace=wrap;html=1;aspect=fixed;fontSize=16;" parent="1" vertex="1">
          <mxGeometry x="-797" y="1300" width="100" height="100" as="geometry" />
        </mxCell>
        <mxCell id="l-K92PUKApTtVLYodrS5-32" value="data back to HDFS lake file system" style="ellipse;whiteSpace=wrap;html=1;aspect=fixed;fontSize=16;" parent="1" vertex="1">
          <mxGeometry x="-277" y="1290" width="105" height="105" as="geometry" />
        </mxCell>
        <mxCell id="l-K92PUKApTtVLYodrS5-33" value="From here a view can be created (Hive/ Sap hana )" style="text;html=1;strokeColor=#b85450;fillColor=#f8cecc;align=center;verticalAlign=middle;whiteSpace=wrap;rounded=0;fontSize=16;" parent="1" vertex="1">
          <mxGeometry x="603" y="390" width="120" height="90" as="geometry" />
        </mxCell>
        <mxCell id="l-K92PUKApTtVLYodrS5-54" style="edgeStyle=none;curved=1;rounded=0;orthogonalLoop=1;jettySize=auto;html=1;fontSize=12;startSize=8;endSize=8;entryX=0;entryY=0.5;entryDx=0;entryDy=0;" parent="1" source="l-K92PUKApTtVLYodrS5-35" target="l-K92PUKApTtVLYodrS5-56" edge="1">
          <mxGeometry relative="1" as="geometry">
            <mxPoint x="570" y="1380" as="targetPoint" />
          </mxGeometry>
        </mxCell>
        <mxCell id="l-K92PUKApTtVLYodrS5-55" style="edgeStyle=none;curved=1;rounded=0;orthogonalLoop=1;jettySize=auto;html=1;exitX=1;exitY=0.5;exitDx=0;exitDy=0;fontSize=12;startSize=8;endSize=8;entryX=0;entryY=0.5;entryDx=0;entryDy=0;" parent="1" source="l-K92PUKApTtVLYodrS5-35" target="l-K92PUKApTtVLYodrS5-57" edge="1">
          <mxGeometry relative="1" as="geometry">
            <mxPoint x="590" y="1470.3333333333335" as="targetPoint" />
          </mxGeometry>
        </mxCell>
        <mxCell id="l-K92PUKApTtVLYodrS5-35" value="BI Platform&amp;nbsp;" style="whiteSpace=wrap;html=1;aspect=fixed;fontSize=16;" parent="1" vertex="1">
          <mxGeometry x="253" y="1347.5" width="225" height="225" as="geometry" />
        </mxCell>
        <mxCell id="l-K92PUKApTtVLYodrS5-39" style="edgeStyle=none;curved=1;rounded=0;orthogonalLoop=1;jettySize=auto;html=1;fontSize=12;startSize=8;endSize=8;" parent="1" source="l-K92PUKApTtVLYodrS5-36" edge="1">
          <mxGeometry relative="1" as="geometry">
            <mxPoint x="250" y="1400" as="targetPoint" />
          </mxGeometry>
        </mxCell>
        <mxCell id="l-K92PUKApTtVLYodrS5-36" value="Api" style="ellipse;shape=cloud;whiteSpace=wrap;html=1;fontSize=16;" parent="1" vertex="1">
          <mxGeometry x="-100" y="1300" width="143" height="115" as="geometry" />
        </mxCell>
        <mxCell id="l-K92PUKApTtVLYodrS5-40" style="edgeStyle=none;curved=1;rounded=0;orthogonalLoop=1;jettySize=auto;html=1;fontSize=12;startSize=8;endSize=8;entryX=0;entryY=0.5;entryDx=0;entryDy=0;" parent="1" source="l-K92PUKApTtVLYodrS5-37" target="l-K92PUKApTtVLYodrS5-35" edge="1">
          <mxGeometry relative="1" as="geometry">
            <mxPoint x="208" y="1465" as="targetPoint" />
          </mxGeometry>
        </mxCell>
        <mxCell id="l-K92PUKApTtVLYodrS5-37" value="DataBases" style="shape=cylinder3;whiteSpace=wrap;html=1;boundedLbl=1;backgroundOutline=1;size=15;fontSize=16;fillColor=#f8cecc;strokeColor=#b85450;" parent="1" vertex="1">
          <mxGeometry x="40" y="1400" width="105" height="100" as="geometry" />
        </mxCell>
        <mxCell id="l-K92PUKApTtVLYodrS5-41" style="edgeStyle=none;curved=1;rounded=0;orthogonalLoop=1;jettySize=auto;html=1;entryX=0;entryY=0.75;entryDx=0;entryDy=0;fontSize=12;startSize=8;endSize=8;" parent="1" source="l-K92PUKApTtVLYodrS5-38" target="l-K92PUKApTtVLYodrS5-35" edge="1">
          <mxGeometry relative="1" as="geometry">
            <mxPoint x="38" y="1584.3023255813955" as="sourcePoint" />
          </mxGeometry>
        </mxCell>
        <mxCell id="l-K92PUKApTtVLYodrS5-42" value="&amp;nbsp;" style="shape=dataStorage;whiteSpace=wrap;html=1;fixedSize=1;fontSize=16;rotation=-180;" parent="1" vertex="1">
          <mxGeometry x="78" y="1245" width="100" height="80" as="geometry" />
        </mxCell>
        <mxCell id="l-K92PUKApTtVLYodrS5-43" value="Inbound&amp;nbsp;" style="text;html=1;align=center;verticalAlign=middle;resizable=0;points=[];autosize=1;strokeColor=none;fillColor=none;fontSize=16;" parent="1" vertex="1">
          <mxGeometry x="98" y="1275" width="90" height="30" as="geometry" />
        </mxCell>
        <mxCell id="l-K92PUKApTtVLYodrS5-44" value="Outbound" style="text;html=1;align=center;verticalAlign=middle;resizable=0;points=[];autosize=1;strokeColor=none;fillColor=none;fontSize=16;" parent="1" vertex="1">
          <mxGeometry x="523" y="1255" width="90" height="30" as="geometry" />
        </mxCell>
        <mxCell id="l-K92PUKApTtVLYodrS5-68" style="edgeStyle=none;curved=1;rounded=0;orthogonalLoop=1;jettySize=auto;html=1;exitX=1;exitY=0.5;exitDx=0;exitDy=0;fontSize=12;startSize=8;endSize=8;" parent="1" source="l-K92PUKApTtVLYodrS5-56" target="l-K92PUKApTtVLYodrS5-67" edge="1">
          <mxGeometry relative="1" as="geometry" />
        </mxCell>
        <mxCell id="l-K92PUKApTtVLYodrS5-70" style="edgeStyle=none;curved=1;rounded=0;orthogonalLoop=1;jettySize=auto;html=1;exitX=0.5;exitY=1;exitDx=0;exitDy=0;fontSize=12;startSize=8;endSize=8;entryX=1;entryY=0.5;entryDx=0;entryDy=0;" parent="1" source="l-K92PUKApTtVLYodrS5-56" target="l-K92PUKApTtVLYodrS5-58" edge="1">
          <mxGeometry relative="1" as="geometry">
            <mxPoint x="600" y="1670" as="targetPoint" />
            <Array as="points">
              <mxPoint x="930" y="1630" />
            </Array>
          </mxGeometry>
        </mxCell>
        <mxCell id="l-K92PUKApTtVLYodrS5-56" value="Table Views" style="whiteSpace=wrap;html=1;aspect=fixed;fontSize=16;" parent="1" vertex="1">
          <mxGeometry x="573" y="1330" width="80" height="80" as="geometry" />
        </mxCell>
        <mxCell id="l-K92PUKApTtVLYodrS5-57" value="Specific target (on DDA)" style="whiteSpace=wrap;html=1;aspect=fixed;fontSize=16;" parent="1" vertex="1">
          <mxGeometry x="560" y="1445" width="80" height="80" as="geometry" />
        </mxCell>
        <mxCell id="l-K92PUKApTtVLYodrS5-65" style="edgeStyle=none;curved=1;rounded=0;orthogonalLoop=1;jettySize=auto;html=1;entryX=1;entryY=0.75;entryDx=0;entryDy=0;fontSize=12;startSize=8;endSize=8;" parent="1" source="l-K92PUKApTtVLYodrS5-58" target="l-K92PUKApTtVLYodrS5-60" edge="1">
          <mxGeometry relative="1" as="geometry" />
        </mxCell>
        <mxCell id="l-K92PUKApTtVLYodrS5-58" value="WriteBack" style="whiteSpace=wrap;html=1;aspect=fixed;fontSize=16;fillColor=#f8cecc;strokeColor=#b85450;" parent="1" vertex="1">
          <mxGeometry x="253" y="1710" width="80" height="80" as="geometry" />
        </mxCell>
        <mxCell id="l-K92PUKApTtVLYodrS5-62" style="edgeStyle=none;curved=1;rounded=0;orthogonalLoop=1;jettySize=auto;html=1;fontSize=12;startSize=8;endSize=8;" parent="1" source="l-K92PUKApTtVLYodrS5-60" target="l-K92PUKApTtVLYodrS5-37" edge="1">
          <mxGeometry relative="1" as="geometry" />
        </mxCell>
        <mxCell id="l-K92PUKApTtVLYodrS5-60" value="This could be a write back from a View back to HDFS lake&amp;nbsp;" style="text;html=1;strokeColor=#b85450;fillColor=#f8cecc;align=center;verticalAlign=middle;whiteSpace=wrap;rounded=0;fontSize=16;" parent="1" vertex="1">
          <mxGeometry x="-160" y="1490" width="107" height="140" as="geometry" />
        </mxCell>
        <mxCell id="l-K92PUKApTtVLYodrS5-66" style="edgeStyle=none;curved=1;rounded=0;orthogonalLoop=1;jettySize=auto;html=1;exitX=1;exitY=0.5;exitDx=0;exitDy=0;fontSize=12;startSize=8;endSize=8;" parent="1" source="l-K92PUKApTtVLYodrS5-56" target="l-K92PUKApTtVLYodrS5-56" edge="1">
          <mxGeometry relative="1" as="geometry" />
        </mxCell>
        <mxCell id="l-K92PUKApTtVLYodrS5-67" value="INSERTHIVE" style="text;html=1;strokeColor=#d79b00;fillColor=#ffe6cc;align=center;verticalAlign=middle;whiteSpace=wrap;rounded=0;fontSize=16;" parent="1" vertex="1">
          <mxGeometry x="710" y="1302.5" width="127" height="95" as="geometry" />
        </mxCell>
        <mxCell id="l-K92PUKApTtVLYodrS5-69" value="NB: The red procedure would be done by the workload ." style="text;html=1;strokeColor=none;fillColor=none;align=center;verticalAlign=middle;whiteSpace=wrap;rounded=0;fontSize=16;" parent="1" vertex="1">
          <mxGeometry x="-185.5" y="1640" width="197" height="100" as="geometry" />
        </mxCell>
        <mxCell id="l-K92PUKApTtVLYodrS5-38" value="Files (FTP)" style="whiteSpace=wrap;html=1;aspect=fixed;fontSize=16;" parent="1" vertex="1">
          <mxGeometry x="60" y="1525" width="80" height="80" as="geometry" />
        </mxCell>
        <mxCell id="l-K92PUKApTtVLYodrS5-73" value="&lt;h1&gt;INBOUND, OUTBOUND AND API INGESTION PATTERNS&lt;/h1&gt;&lt;h1&gt;(CURRENT_STATE)&lt;/h1&gt;" style="text;html=1;strokeColor=#9673a6;fillColor=#e1d5e7;spacing=5;spacingTop=-20;whiteSpace=wrap;overflow=hidden;rounded=0;fontSize=16;" parent="1" vertex="1">
          <mxGeometry x="-830" y="-50" width="1062" height="120" as="geometry" />
        </mxCell>
        <mxCell id="WQEoA2Sx39wn5vHGqPxY-137" style="edgeStyle=orthogonalEdgeStyle;rounded=0;orthogonalLoop=1;jettySize=auto;html=1;" parent="1" source="WSJ6PJ-genOH-rhuySLm-1" target="WQEoA2Sx39wn5vHGqPxY-102" edge="1">
          <mxGeometry relative="1" as="geometry" />
        </mxCell>
        <mxCell id="WSJ6PJ-genOH-rhuySLm-1" value="&lt;div style=&quot;text-align: justify;&quot;&gt;&lt;font style=&quot;font-size: 18px;&quot;&gt;{&lt;/font&gt;&lt;/div&gt;&lt;div style=&quot;text-align: justify;&quot;&gt;&lt;font size=&quot;3&quot;&gt;&amp;nbsp; &amp;nbsp; &quot;customAttributes&quot;: {&lt;/font&gt;&lt;/div&gt;&lt;div style=&quot;text-align: justify;&quot;&gt;&lt;font size=&quot;3&quot;&gt;&amp;nbsp; &amp;nbsp; &amp;nbsp; &amp;nbsp; &quot;hdfs.directory&quot;: &quot;/tenants/groupbi/{{ENV_LOWER}}/hdfs/raw/spf_customer/scs&quot;&lt;/font&gt;&lt;/div&gt;&lt;div style=&quot;text-align: justify;&quot;&gt;&lt;font size=&quot;3&quot;&gt;&amp;nbsp; &amp;nbsp; },&lt;/font&gt;&lt;/div&gt;&lt;div style=&quot;text-align: justify;&quot;&gt;&lt;font size=&quot;3&quot;&gt;&amp;nbsp; &amp;nbsp; &quot;components&quot;: [&lt;/font&gt;&lt;/div&gt;&lt;div style=&quot;text-align: justify;&quot;&gt;&lt;font size=&quot;3&quot;&gt;&amp;nbsp; &amp;nbsp; &amp;nbsp; &amp;nbsp; {&lt;/font&gt;&lt;/div&gt;&lt;div style=&quot;text-align: justify;&quot;&gt;&lt;font size=&quot;3&quot;&gt;&amp;nbsp; &amp;nbsp; &amp;nbsp; &amp;nbsp; &amp;nbsp; &amp;nbsp; &quot;id&quot;: &quot;request&quot;,&lt;/font&gt;&lt;/div&gt;&lt;div style=&quot;text-align: justify;&quot;&gt;&lt;font size=&quot;3&quot;&gt;&amp;nbsp; &amp;nbsp; &amp;nbsp; &amp;nbsp; &amp;nbsp; &amp;nbsp; &quot;isFirstComponent&quot;: true,&lt;/font&gt;&lt;/div&gt;&lt;div style=&quot;text-align: justify;&quot;&gt;&lt;font size=&quot;3&quot;&gt;&amp;nbsp; &amp;nbsp; &amp;nbsp; &amp;nbsp; &amp;nbsp; &amp;nbsp; &quot;schemaName&quot;: &quot;DATAPIPELINE.COMP.{{ENV_UPPER}}.API_REQUEST&quot;,&lt;/font&gt;&lt;/div&gt;&lt;div style=&quot;text-align: justify;&quot;&gt;&lt;font size=&quot;3&quot;&gt;&amp;nbsp; &amp;nbsp; &amp;nbsp; &amp;nbsp; &amp;nbsp; &amp;nbsp; &quot;schemaVersion&quot;: 1,&lt;/font&gt;&lt;/div&gt;&lt;div style=&quot;text-align: justify;&quot;&gt;&lt;font size=&quot;3&quot;&gt;&amp;nbsp; &amp;nbsp; &amp;nbsp; &amp;nbsp; &amp;nbsp; &amp;nbsp; &quot;type&quot;: &quot;ApiRequest&quot;,&lt;/font&gt;&lt;/div&gt;&lt;div style=&quot;text-align: justify;&quot;&gt;&lt;font size=&quot;3&quot;&gt;&amp;nbsp; &amp;nbsp; &amp;nbsp; &amp;nbsp; &amp;nbsp; &amp;nbsp; &quot;version&quot;: 1,&lt;/font&gt;&lt;/div&gt;&lt;div style=&quot;text-align: justify;&quot;&gt;&lt;font size=&quot;3&quot;&gt;&amp;nbsp; &amp;nbsp; &amp;nbsp; &amp;nbsp; &amp;nbsp; &amp;nbsp; &quot;allowsManyOutputs&quot;: true,&lt;/font&gt;&lt;/div&gt;&lt;div style=&quot;text-align: justify;&quot;&gt;&lt;font size=&quot;3&quot;&gt;&amp;nbsp; &amp;nbsp; &amp;nbsp; &amp;nbsp; &amp;nbsp; &amp;nbsp; &quot;config&quot;: {&lt;/font&gt;&lt;/div&gt;&lt;div style=&quot;text-align: justify;&quot;&gt;&lt;font size=&quot;3&quot;&gt;&amp;nbsp; &amp;nbsp; &amp;nbsp; &amp;nbsp; &amp;nbsp; &amp;nbsp; &amp;nbsp; &amp;nbsp; &quot;hdfsDirectory&quot;: &quot;${prop.hdfs.directory}/event_id=${log.jobId}&quot;,&lt;/font&gt;&lt;/div&gt;&lt;div style=&quot;text-align: justify;&quot;&gt;&lt;font size=&quot;3&quot;&gt;&amp;nbsp; &amp;nbsp; &amp;nbsp; &amp;nbsp; &amp;nbsp; &amp;nbsp; &amp;nbsp; &amp;nbsp; &quot;url&quot;: &quot;${gateway.url}/gbi/scs/ingest/v1/{{API_VERSION}}&quot;,&lt;/font&gt;&lt;/div&gt;&lt;div style=&quot;text-align: justify;&quot;&gt;&lt;font size=&quot;3&quot;&gt;&amp;nbsp; &amp;nbsp; &amp;nbsp; &amp;nbsp; &amp;nbsp; &amp;nbsp; &amp;nbsp; &amp;nbsp; &quot;method&quot;: &quot;POST&quot;,&lt;/font&gt;&lt;/div&gt;&lt;div style=&quot;text-align: justify;&quot;&gt;&lt;font size=&quot;3&quot;&gt;&amp;nbsp; &amp;nbsp; &amp;nbsp; &amp;nbsp; &amp;nbsp; &amp;nbsp; &amp;nbsp; &amp;nbsp; &quot;httpRetries&quot;: 0,&lt;/font&gt;&lt;/div&gt;&lt;div style=&quot;text-align: justify;&quot;&gt;&lt;font size=&quot;3&quot;&gt;&amp;nbsp; &amp;nbsp; &amp;nbsp; &amp;nbsp; &amp;nbsp; &amp;nbsp; &amp;nbsp; &amp;nbsp; &quot;hdfsRetries&quot;: 0,&lt;/font&gt;&lt;/div&gt;&lt;div style=&quot;text-align: justify;&quot;&gt;&lt;font size=&quot;3&quot;&gt;&amp;nbsp; &amp;nbsp; &amp;nbsp; &amp;nbsp; &amp;nbsp; &amp;nbsp; &amp;nbsp; &amp;nbsp; &quot;fileName&quot;: &quot;${log.jobId}.json&quot;,&lt;/font&gt;&lt;/div&gt;&lt;div style=&quot;text-align: justify;&quot;&gt;&lt;font size=&quot;3&quot;&gt;&amp;nbsp; &amp;nbsp; &amp;nbsp; &amp;nbsp; &amp;nbsp; &amp;nbsp; &amp;nbsp; &amp;nbsp; &quot;contentType&quot;: &quot;application/x-www-form-urlencoded&quot;,&lt;/font&gt;&lt;/div&gt;&lt;div style=&quot;text-align: justify;&quot;&gt;&lt;font size=&quot;3&quot;&gt;&amp;nbsp; &amp;nbsp; &amp;nbsp; &amp;nbsp; &amp;nbsp; &amp;nbsp; &amp;nbsp; &amp;nbsp; &quot;body&quot;: &quot;RequestSize={{REQUESTSIZE}}&quot;&lt;/font&gt;&lt;/div&gt;&lt;div style=&quot;text-align: justify;&quot;&gt;&lt;font size=&quot;3&quot;&gt;&amp;nbsp; &amp;nbsp; &amp;nbsp; &amp;nbsp; &amp;nbsp; &amp;nbsp; }&lt;/font&gt;&lt;/div&gt;&lt;div style=&quot;text-align: justify;&quot;&gt;&lt;font size=&quot;3&quot;&gt;&amp;nbsp; &amp;nbsp; &amp;nbsp; &amp;nbsp; }&lt;/font&gt;&lt;/div&gt;&lt;div style=&quot;text-align: justify;&quot;&gt;&lt;font size=&quot;3&quot;&gt;&amp;nbsp; &amp;nbsp; ],&lt;/font&gt;&lt;/div&gt;&lt;div style=&quot;text-align: justify;&quot;&gt;&lt;font size=&quot;3&quot;&gt;&amp;nbsp; &amp;nbsp; &quot;connections&quot;: [&lt;/font&gt;&lt;/div&gt;&lt;div style=&quot;text-align: justify;&quot;&gt;&lt;font size=&quot;3&quot;&gt;&amp;nbsp; &amp;nbsp; ]&lt;/font&gt;&lt;/div&gt;&lt;div style=&quot;text-align: justify;&quot;&gt;&lt;font size=&quot;3&quot;&gt;}&lt;/font&gt;&lt;/div&gt;" style="whiteSpace=wrap;html=1;aspect=fixed;" parent="1" vertex="1">
          <mxGeometry x="-2620" y="110" width="620" height="620" as="geometry" />
        </mxCell>
        <mxCell id="WQEoA2Sx39wn5vHGqPxY-149" style="edgeStyle=orthogonalEdgeStyle;rounded=0;orthogonalLoop=1;jettySize=auto;html=1;entryX=1;entryY=0.5;entryDx=0;entryDy=0;entryPerimeter=0;" parent="1" source="WSJ6PJ-genOH-rhuySLm-59" target="WQEoA2Sx39wn5vHGqPxY-147" edge="1">
          <mxGeometry relative="1" as="geometry" />
        </mxCell>
        <mxCell id="WSJ6PJ-genOH-rhuySLm-59" value="&lt;div style=&quot;text-align: justify;&quot;&gt;&lt;font style=&quot;font-size: 18px;&quot;&gt;{&lt;/font&gt;&lt;/div&gt;&lt;div style=&quot;text-align: justify;&quot;&gt;&lt;font size=&quot;3&quot;&gt;&amp;nbsp; &amp;nbsp; &quot;customAttributes&quot;: {&lt;/font&gt;&lt;/div&gt;&lt;div style=&quot;text-align: justify;&quot;&gt;&lt;font size=&quot;3&quot;&gt;&amp;nbsp; &amp;nbsp; &amp;nbsp; &amp;nbsp; &quot;hdfs.directory&quot;: {{&lt;/font&gt;HDFS&lt;font size=&quot;3&quot;&gt;}}&lt;/font&gt;&lt;/div&gt;&lt;div style=&quot;text-align: justify;&quot;&gt;&lt;font size=&quot;3&quot;&gt;&amp;nbsp; &amp;nbsp; },&lt;/font&gt;&lt;/div&gt;&lt;div style=&quot;text-align: justify;&quot;&gt;&lt;font size=&quot;3&quot;&gt;&amp;nbsp; &amp;nbsp; &quot;components&quot;: [&lt;/font&gt;&lt;/div&gt;&lt;div style=&quot;text-align: justify;&quot;&gt;&lt;font size=&quot;3&quot;&gt;&amp;nbsp; &amp;nbsp; &amp;nbsp; &amp;nbsp; {&lt;/font&gt;&lt;/div&gt;&lt;div style=&quot;text-align: justify;&quot;&gt;&lt;font size=&quot;3&quot;&gt;&amp;nbsp; &amp;nbsp; &amp;nbsp; &amp;nbsp; &amp;nbsp; &amp;nbsp; &quot;id&quot;: &quot;request&quot;,&lt;/font&gt;&lt;/div&gt;&lt;div style=&quot;text-align: justify;&quot;&gt;&lt;font size=&quot;3&quot;&gt;&amp;nbsp; &amp;nbsp; &amp;nbsp; &amp;nbsp; &amp;nbsp; &amp;nbsp; &quot;isFirstComponent&quot;: true,&lt;/font&gt;&lt;/div&gt;&lt;div style=&quot;text-align: justify;&quot;&gt;&lt;font size=&quot;3&quot;&gt;&amp;nbsp; &amp;nbsp; &amp;nbsp; &amp;nbsp; &amp;nbsp; &amp;nbsp; &quot;schemaName&quot;: &quot;DATAPIPELINE.COMP.{{ENV_UPPER}}.API_REQUEST&quot;,&lt;/font&gt;&lt;/div&gt;&lt;div style=&quot;text-align: justify;&quot;&gt;&lt;font size=&quot;3&quot;&gt;&amp;nbsp; &amp;nbsp; &amp;nbsp; &amp;nbsp; &amp;nbsp; &amp;nbsp; &quot;schemaVersion&quot;: 1,&lt;/font&gt;&lt;/div&gt;&lt;div style=&quot;text-align: justify;&quot;&gt;&lt;font size=&quot;3&quot;&gt;&amp;nbsp; &amp;nbsp; &amp;nbsp; &amp;nbsp; &amp;nbsp; &amp;nbsp; &quot;type&quot;: &quot;ApiRequest&quot;,&lt;/font&gt;&lt;/div&gt;&lt;div style=&quot;text-align: justify;&quot;&gt;&lt;font size=&quot;3&quot;&gt;&amp;nbsp; &amp;nbsp; &amp;nbsp; &amp;nbsp; &amp;nbsp; &amp;nbsp; &quot;version&quot;: 1,&lt;/font&gt;&lt;/div&gt;&lt;div style=&quot;text-align: justify;&quot;&gt;&lt;font size=&quot;3&quot;&gt;&amp;nbsp; &amp;nbsp; &amp;nbsp; &amp;nbsp; &amp;nbsp; &amp;nbsp; &quot;allowsManyOutputs&quot;: true,&lt;/font&gt;&lt;/div&gt;&lt;div style=&quot;text-align: justify;&quot;&gt;&lt;font size=&quot;3&quot;&gt;&amp;nbsp; &amp;nbsp; &amp;nbsp; &amp;nbsp; &amp;nbsp; &amp;nbsp; &quot;config&quot;: {&lt;/font&gt;&lt;/div&gt;&lt;div style=&quot;text-align: justify;&quot;&gt;&lt;font size=&quot;3&quot;&gt;&amp;nbsp; &amp;nbsp; &amp;nbsp; &amp;nbsp; &amp;nbsp; &amp;nbsp; &amp;nbsp; &amp;nbsp; &quot;hdfsDirectory&quot;: &quot;${prop.hdfs.directory}/event_id=${log.jobId}&quot;,&lt;/font&gt;&lt;/div&gt;&lt;div style=&quot;text-align: justify;&quot;&gt;&lt;font size=&quot;3&quot;&gt;&amp;nbsp; &amp;nbsp; &amp;nbsp; &amp;nbsp; &amp;nbsp; &amp;nbsp; &amp;nbsp; &amp;nbsp; &quot;url&quot;: &quot;${gateway.url}/gbi/scs/ingest/v1/{{API_VERSION}}&quot;,&lt;/font&gt;&lt;/div&gt;&lt;div style=&quot;text-align: justify;&quot;&gt;&lt;font size=&quot;3&quot;&gt;&amp;nbsp; &amp;nbsp; &amp;nbsp; &amp;nbsp; &amp;nbsp; &amp;nbsp; &amp;nbsp; &amp;nbsp; &quot;method&quot;: &quot;POST&quot;,&lt;/font&gt;&lt;/div&gt;&lt;div style=&quot;text-align: justify;&quot;&gt;&lt;font size=&quot;3&quot;&gt;&amp;nbsp; &amp;nbsp; &amp;nbsp; &amp;nbsp; &amp;nbsp; &amp;nbsp; &amp;nbsp; &amp;nbsp; &quot;httpRetries&quot;: 0,&lt;/font&gt;&lt;/div&gt;&lt;div style=&quot;text-align: justify;&quot;&gt;&lt;font size=&quot;3&quot;&gt;&amp;nbsp; &amp;nbsp; &amp;nbsp; &amp;nbsp; &amp;nbsp; &amp;nbsp; &amp;nbsp; &amp;nbsp; &quot;hdfsRetries&quot;: 0,&lt;/font&gt;&lt;/div&gt;&lt;div style=&quot;text-align: justify;&quot;&gt;&lt;font size=&quot;3&quot;&gt;&amp;nbsp; &amp;nbsp; &amp;nbsp; &amp;nbsp; &amp;nbsp; &amp;nbsp; &amp;nbsp; &amp;nbsp; &quot;fileName&quot;: &quot;${log.jobId}.json&quot;,&lt;/font&gt;&lt;/div&gt;&lt;div style=&quot;text-align: justify;&quot;&gt;&lt;font size=&quot;3&quot;&gt;&amp;nbsp; &amp;nbsp; &amp;nbsp; &amp;nbsp; &amp;nbsp; &amp;nbsp; &amp;nbsp; &amp;nbsp; &quot;contentType&quot;: &quot;application/x-www-form-urlencoded&quot;,&lt;/font&gt;&lt;/div&gt;&lt;div style=&quot;text-align: justify;&quot;&gt;&lt;font size=&quot;3&quot;&gt;&amp;nbsp; &amp;nbsp; &amp;nbsp; &amp;nbsp; &amp;nbsp; &amp;nbsp; &amp;nbsp; &amp;nbsp; &quot;body&quot;: &quot;RequestSize={{REQUESTSIZE}}&quot;&lt;/font&gt;&lt;/div&gt;&lt;div style=&quot;text-align: justify;&quot;&gt;&lt;font size=&quot;3&quot;&gt;&amp;nbsp; &amp;nbsp; &amp;nbsp; &amp;nbsp; &amp;nbsp; &amp;nbsp; }&lt;/font&gt;&lt;/div&gt;&lt;div style=&quot;text-align: justify;&quot;&gt;&lt;font size=&quot;3&quot;&gt;&amp;nbsp; &amp;nbsp; &amp;nbsp; &amp;nbsp; }&lt;/font&gt;&lt;/div&gt;&lt;div style=&quot;text-align: justify;&quot;&gt;&lt;font size=&quot;3&quot;&gt;&amp;nbsp; &amp;nbsp; ],&lt;/font&gt;&lt;/div&gt;&lt;div style=&quot;text-align: justify;&quot;&gt;&lt;font size=&quot;3&quot;&gt;&amp;nbsp; &amp;nbsp; &quot;connections&quot;: [&lt;/font&gt;&lt;/div&gt;&lt;div style=&quot;text-align: justify;&quot;&gt;&lt;font size=&quot;3&quot;&gt;&amp;nbsp; &amp;nbsp; ]&lt;/font&gt;&lt;/div&gt;&lt;div style=&quot;text-align: justify;&quot;&gt;&lt;font size=&quot;3&quot;&gt;}&lt;/font&gt;&lt;/div&gt;" style="whiteSpace=wrap;html=1;aspect=fixed;movable=0;resizable=0;rotatable=0;deletable=0;editable=0;locked=1;connectable=0;" parent="1" vertex="1">
          <mxGeometry x="-1610" y="391.87" width="656.25" height="656.25" as="geometry" />
        </mxCell>
        <mxCell id="WQEoA2Sx39wn5vHGqPxY-2" value="&lt;div style=&quot;text-align: justify;&quot;&gt;&lt;span style=&quot;background-color: initial;&quot;&gt;Creating a one time configurable template of the API_Json file, this can be done using JINJA&amp;nbsp;&lt;/span&gt;&lt;/div&gt;" style="whiteSpace=wrap;html=1;shape=mxgraph.basic.roundRectCallout;dx=30;dy=15;size=5;boundedLbl=1;movable=0;resizable=0;rotatable=0;deletable=0;editable=0;locked=1;connectable=0;" parent="1" vertex="1">
          <mxGeometry x="-1260" y="310" width="340" height="170" as="geometry" />
        </mxCell>
        <mxCell id="WQEoA2Sx39wn5vHGqPxY-5" value="Original API_JSON_PATTERN" style="whiteSpace=wrap;html=1;shape=mxgraph.basic.oval_callout" parent="1" vertex="1">
          <mxGeometry x="-2110" y="20" width="310" height="170" as="geometry" />
        </mxCell>
        <mxCell id="WQEoA2Sx39wn5vHGqPxY-138" style="edgeStyle=orthogonalEdgeStyle;rounded=0;orthogonalLoop=1;jettySize=auto;html=1;" parent="1" source="WQEoA2Sx39wn5vHGqPxY-102" target="WSJ6PJ-genOH-rhuySLm-59" edge="1">
          <mxGeometry relative="1" as="geometry" />
        </mxCell>
        <mxCell id="WQEoA2Sx39wn5vHGqPxY-102" value="" style="shape=image;verticalLabelPosition=bottom;labelBackgroundColor=default;verticalAlign=top;aspect=fixed;imageAspect=0;image=data:image/png,iVBORw0KGgoAAAANSUhEUgAAAloAAADUCAYAAABEfo1rAAAAAXNSR0IArs4c6QAAAARnQU1BAACxjwv8YQUAAAAJcEhZcwAAEnQAABJ0Ad5mH3gAAB31SURBVHhe7d29kuu4mcZxl8tVduTM5SoHEzhx5GiidbqXsFFHeyNTpavYSOlkuoizijY52VzAhhNtOLGW+CJfAC++KKIltf7Br+Y0QYIASBHPkN3U73744Ydbv4/b+fr9dj1/rMs+ztfb9+/X2/ljK/9+Pd8+ou0GfJxv1+/xPn44XW6Xk1inxm5/uZ2KZaGtQd6nh6q1f2HHuza+oY/nizgum3T70yU+Xq1y8/N2LE63S3Ks6uXKWC/HVrbT7v9y2spTQ8f3gPMxYcej1r5F8xjdo3F+OL7fjXZW2ePS2s+id71Dtftnj1OtXQ9p9wRP1o/o85F9Hjv89M/br7/9++3Xb3/flv384+2Xn8U6A37+RdRl6/7X7dtP8Trffk3290Si9i9++vav22+//vP2k1gnEvr47cfbb0pf0+1N/fLnVrn5WR6LX5Jj1SrPxno5trKddv+//GMrb0jHxzJjsLT5m1Z2D+X8Mf2pHg/v7qAVL3MTa3coyhwwQaht9NQPfmX9h6i3pz6Jm239RTcJMI5yfOyYhGWt8lwrVMTlpfoHgtbw8U3D3n0eHrS6ztd7P4eLpw5an9i/Z3d0P+6sz3w+1nNT/TzW2YlrYKKtSifGVwtaSntbQevbrz/efjb/TgJMYIJPFFrtPrZlrfJUqz1puV7/1s6hoFU4nqYOezzNGHSEoG6F/aVhUnNA0JITmfv37kmm+4Pp2lG8IJiLhdYGtf68T+7/hjfppBaXx21Yg4K9YPl1kom5VX+x/YvuSdzuP+mrchENbbFtaJWL5UGrPWm5/Xmpz02S/jiK8VnHz/+sKo1P4fyxfRB11o5fXq6cG0pdpj+hbznZpnDulssup3idkfPDqQWR2v4F5VwI0vEpnTNa2Xp8bf1+ndbxzpT7Fx8Dvf1Wd/8qdSh6+teqPx3ftJ+zx9+NYeG8aHDbmn3mn+2mwkSmsYHsNx8qCrJJu1B/GrTsXZxl8gzSSTQuj9uw7tMGHb9OEhxa9Qda6LDLesKDFrTssri9oS1rMKmVi+VBqz1puf15qS+ErTRYa30uKa1r6rT1K8fblf3dnz9536rlhfPHjpFoR3p8TVsOenQoPsx2svMf4J5AINkPf88HPEwW+UVKlmcX4o6gZftTabe9iGXBYWuH+1m2LZ4UWvU7hfYvtvoFrT5tLM2ydd0tINs+hYtvrTzUs9rWycsq5eIcScvy/mnHeOT4xses6/hp4+nJsUjrCsp1+PNWjmV0nHz50u+1b+pnotB/u67bPpbUX9y/YJfnY5/1OVmva3xtm8Ky+PNR1exfum7e/lZ5q/0trf4161/aJcciLf+08fdjXf5sl2zn8PC2WjgocBNhPWi17p4Epq4wmbaCg51Es+CwtSMECblMtqNVv5S1f7HVL2j1lYKWWDfciVmDQqvcL5fCOlqZoZbb4+Danpbl/SsfY218XN3bNvLYhp9Nvet2yThVy2tBK4zbsr5sUzg/dgUt90H15IdeqkymRfbDrVw0d7AXlDQc9AatYhvMRSktiy9U6YVtrP6N2v6wvDTmkjaWZpnZNikzF2fbvlZ5qMezF/Worx3ltm4/XuEcqfSntA91fBpBq//45XUEtq7L2X0OCu0uHqPm+RefK7I8nQhL54dTmDw7zv+VPU7puCvjF63XO76y3sL+qwr9k9T2C73969mXUO/fjvqjY6ZsP3P8w+ezeJ6l3L6+X5awuG43cHyTSe8uSWiweoNWpQ2/KGVywg8TqwwHI/WvtPYv7PbK8ow2lqHOpMwEBdu+Vnmox7MBoxKE1HJbtx+vELgq/SnuI7Q1WW7HR4TCdLzS4BWWheNXLe8JWim/zQGPDhvshSD98BcUJsp9lItO50TjLkbLhcISF6Vw4VFEF7JKcDCK9Ue0i2Zf/ZY27nbZss9oe9H/Vvm6LASg8rHSy92FOKrLj2nfRCONHV970e84fkbt+Lh+5dtIxWMUTYobF95Kk5I+/qXzYytT2tfcv1iurauNr1yvY3y7z9+qQv+kQl+r5Z3nR021f131u77F5X7MP338Q1tK51ksqtu35Xo+2fO3a/wKE9kecvJcdQQtw4UhM8Enk3wIBoooaFWCg1GsX1Dbv+ip30rC0rZs2Wey/dr/VrlY5gJQ+ViVyrM7XH5Mtb5u5fox07bJ2mr7tI2x1he5rFpeaYsMd6aP2/F14zA/aPVcFFdu3bH6y8wEkk/q6UXD9anUPjsJrRcm0776RWd0Ionrz8vSseiu316A07Zqx0L2qVXu2DZUxqFY7i++ef2V80Pth9N1fKN95n1pSY+P/VmENq3dxWNUOf9cP7TPV3l8tPPDKWzT3L9YXgwiyfbReu3xHf186BrnjKG1X1LLx8+PVL1/rfrdsYhCrxzzzxx/W2/p/NLZukXb7c9LHdXjkFAfNY2yE6ISYAYnbSO9W6Hd0ZK6g5Cn3g0ptX9xV9BaaI/bZJ9a5YYLiuVxKJbbfmn1l8df7Uf1+MqAswn1a0FK7r9arp0/SZ/S0BW2mR603Iet/4MWPpzRRXT50McXVX9BatVrL0xynfxC1mqfLU8n2sqFKl2/pbp+1v6B+u2FMr/o2vaLOtUgUSkPF+DiJFctL41/aXJwE2o08Ujp+GQTUb596/il1OMf6iv1tTD27fMv/3zF5Qnl/HBcv/NjMHD+2z6ky5P2+f5Xz5dEOp77lPonqO0XCuWj50eq1b96/a5f2/H3x2s9lz5n/N05UfpMVtj2KJ+/2nFIuEk6mXiXyTb6eWEntEIYMeGlFNbSidDtT69nLRfBRg1GQrp+i7Z+rf3d9ReClm2/6G/an1a5qzc5PlKjXB//cmgzIScKLovS+JTGxvbB15EGKbf/rb/VciVope0zP8vt3Xl6dNCyF37zwZL6P2Sr9QLiZRNtuAC16nbrxRfk8OEP4jrshapS3lqn60Jb2DaXt99dBMt15PU7so5oHaWt5fJ07Dau/la5tk58QU/bHx+7VDI+yvmnnau1Y1ArW8uzoBIvW9db69Amn0DWH85roTopaue34fahj93g/i3R/miMl22VsFcbw56Jvq3Uv1b7O/q3aJ0DNT39q9afXPsuJ9PXTxz/QgDtlV6ftr+gjce4yk/Wq2SiNdwEpgek1l0nOzmu4jpc0CiXt9ZpBaGe+mvtdxN/uY68fkcGn2idUjAplMdjtwn1t8rzdeK+pu3XAltpfMy2akC155MbI3feCEn/quXKHbNsf8m5+8vP/7DtHQxaL8hcOO6+sD/Qq7d/ti81Pm5SKv6PjIbzA1jZIKIEs1fx6u2f7d7xSe9YpVrle339oFX9v/tX8Ortn+0rjc+OoMX5AazM3ZLSY6tX8Ortn+3e8SFoAW9vT9D6KlxglI+dUo8Nk8/ePgAtBC0AAIAvhqAFAAAwCUELAABgEoIWAADAJAQtAACASQhawIuwL6LMXt67GHiXVvxCyf0vpgQA9CFoAS/iiKC1MtsQtABgOoIW8CLs3SiCFgC8FIIW8CLk99RFocuEJhHA4u+6K4SpWtDKvjNSrpd+X6D4Djsf+M5+/9fzaV1Xvsyzq30A8EUQtIBXIe5cubDiQooMXXa5uLvlfidLCTOloOVDlv6Wcx+y5F01W48PW/bf7s32br+uHvnIs7t9APBFELSAV7EGrdPt4u8cmSCzBS3zNTHiDpNV+C7EQtCSoShjQ1hav/jaIFGnbZMPVLvaBwBfxI6g5S6M263/9CJJOeWUTym3QWcJMua/S3AxASbcPbJBJ3vkp9QRqEGr8V2LrXDWClpd7Xvi8aeccsofXP6auKMFvAoftM5LcLEXH/Ozv7PlwpG5SKV3jAqe5o4WAHxtBC3gVax3hEJY2X4xPfxfX/o7UEWFoOWWl/4vMv8dLRuiQj3NoDXQPgD4IghawMvwt9VFULHBJQlGYdkmBKotmMWSu0w+bG1kIEtv7YuyjqBllNsHAF8PQQsAAGASghYAAMAkBC0AAIBJCFoAAACTELQAAAAmIWgBAABMQtACAACYhKAFAAAwCUELAABgEoIWAADAJAQtAACASQhaAAAAkxC0AAAAJiFoAQAATELQAgAAmISgBQAAMAlBCwAAYBKCFgAAwCQELQAAgEkIWgAAAJMQtAAAACYhaAEAAExC0AIAAJiEoAUAADAJQQsAAGASghYAAMAkY0Hr43y7fv9+u54/tmWny+17uuzBTpfvtk3O9Xb+0Ne7h9vH5XZSygAAAIxdQev79Xz78Ms+ztenClo2AGXtGwtbdhtRh4agBQAAWsaClrl7db3cLtcQXD5u5+Xnswkml1O+/mezQTANVaaNY0GwJ2gBAAC0jAetJVCZIHI5LT+bYON/lkErfnQn7/q40HM5uf+GdWxdojwKRWp40pUCUlhe2n/Yn13PL4tt+4/X0e5oxXXHd9P0/W/9d+Lx00Ji2J47agAAPLNdQUsGLBMSbPjwQUt/dBcCwRYwQrjQyu8KWiLwRctF0IrCjf0ds7j+sH71jpbdLg06vn7Zhqj+Vv87973WQ9ACAOCZDQWtLciYif56u17dRL8tP90uWSgyy0KwcAGhHKRa5XVbO5TlImjFd4jcsjV4ifWHg5baVrnPdv/svjv7CwAAntvOoKX82wQZGxrcHZvUpwUtJSBtbVXqV5aV6oloQUu9y+Xv8pX2r/TP7n8dO+5aAQDwqnYHrYgJGPaOkXZHS5obtPR1ZZ1K/dEdN2d30Nqz/0b/0kexAADgdRwatEwYqAeDdtDY7v6Yn10I6n+U5uqX+3d3h0Igyvcfl3s2RDX2qd698vsXY9Tafyto6aHP7yfbPwAAeCZDQSsOQYIIWut666MvGQg6gob9OWxnlrfukqVCCPGikJKUZeWbuA9h/8r2UbkRwmEgw1C7/+Wxk0I7CFoAADyzoaD1+pSgAwAAMAlBCwAAYBKCFgAAwCRvFrQAAAA+D0ELAABgEoIWAADAJAQtAACASQhaAAAAk+wMWuGFmSMvEu3j3qQuX9i5UF4q6l7smb+wM96eF3oCAIDHGQ9a4U3m546vqdlB/8qZXClordSvyAEAAPg8g0HL3Mny4aXn+wB36A1aTQQtAADwYPt/R+tBQav70WAlaMXfJ5ivk37fIC84BQAAe7xc0Fq17lgVym2IEvW74Latd9gdNQAA8PaeM2iJu0nW5ZSvuytonW6XrM1m2ffb5eR+dvs/vl8AAOD9vNcdLfuL/EmI80LQMuKwV9kHAABAxZs9OtTuaNWljxoBAAB6TQpa7nHcniA2N2iNB6fu9gAAACSGg1b6F3mBfPQ2L2iFF6Wmwn5a5U7ehy2Q1coAAABG7L+jBQAAgCqCFgAAwCQELQAAgEkIWgAAAJMQtAAAACYhaAEAAExC0AIAAJiEoAUAADDJjqAVXkbqaV/4fIf4ewaDnW+A52WjAADggYaDlgkw21vgXei6nj+ide4x/JU3O4IWX6sDAAA+w92PDo8OLUcFrRqCFgAA+AwvGbRq30dot1eW52XS+HcyAgAAtNwZtCY9OkyDkAheNmTJIFa6o1W503V0OAQAANDcFbRm/MJ5PQSZYJfcfSJoAQCAJ7U7aLmQdfwjt2oI+jjfrgQtAADwInYFLRtUJv1eE0ELAAB8FeNBywYY+YoHTXjX1ngYq4egj9v5Kn4nzLdlNGi5sjlBEQAAIBgMWsnLSoU4eN0ZtJK6o8Bk72qJ5fbnUO6CWL593o74LxcJXQAA4Hh3/TI8AAAAyghaAAAAkxC0AAAAJiFoAQAATELQAgAAmISgBQAAMAlBCwAAYBKCFgAAwCTDQSt7oeiRX2WjfcVO+jb4hrh9hTfDAwAAfII772iNhaCmA4LWqvYVPAAAAJ/g7keH9qtsLie1bBhB66n97W//dvvTn/779te//odaDgAAYncGLfedhvUvmB7QGbTi7ykshCk1aLm6Lif331DHYXfkvrg//vF/br/73e32hz/8r1oOAABiu4KWDDqHhhQbtLa6pbAfu2/xe2Hud7KUsFUJWqa+NRza9fhS6R5/+ct/3n7/+/+7/fnP/6WWAwCA2DGPDo/6hfjmHS1zBy0tL9xVqwStOByGu1xyPQAAgPvdHbT0cLRTK2hV7njdG7TiZQAAAPc7KGgpj+722HVHq6A7aB38e2YAAADenUHLBZf8rw5deBn+3adm0Bp4VNkZtIq/4wUAAHCnwaDlg5V4ZKc/cpsXtIz4rw6NEJTy9jmhTqX8yBeuAgAACPc/OnwpeWgDAACYhaAFAAAwCUELAABgkjcLWgAAAJ+HoAUAADAJQQsAAGASghYAAMAkBC0AAIBJ7gha4eWfgy8lbchfRmq83pvbXT8+ud32bfjp2HnZ2/sfw72JP7SLN/IDAL623UHLTpjXq/Im92O4+p/zre09bXtI0BKeefws9SuSnKdvOwAAnXYGrfDlzgNf8jzo1YPWoxG0AAB4vF1By96tsY+iPjtouceVl1N4bOlcTvk62+MpTzw6ix9P5pN9+vgyvODUtkks32xjEK+jBYm0fXL8evrXpxZWiv034WfZ5uzLr+fT2g7XBr196Qtg0/FT268ErZ7xNVrHDwCAZzEetOwXP4fJ7TFBy0ywYfJ2k/M22dpJWGxnf05DlihPt68FlKBnHf2OjW+//H0pu14Yw3b/epXaWO2/bYsLTm65a8c2hnn74va7n2WwKrZfHR+n1HajdfwAAHgmg0HLTbTbHYzHBK3oDooNfnFQkRO9ndDXerT2mmVpsKn3qRYEVlqQiNoayD61+tdPb2Oj/6LNcnv7bxG0ovZpYy6V2r8raLWPHwAAz2QsaEWhxdAmvmPok207iMR3PNz66x0ku667I5OSE7Xd91qWh4FyEBC0IFEIF+kdo2lBq9X/O4LWtswFn7j+g4JW5/EDAOBZDAUtGwiUSc5qBY9B+mTbGbSK7RoPhumjKqMYBCQtSKihSfZpctBq9X9X0JJ3lFz5GmyNUvv3BK2JwR4AgBl2/TL8pjTxucm39QiuRp9sW0GkPRFrwalGbYcNCY2+qUEiDyK2/nW92UGr0f8dQStuvzvuW7nvr9b+StCqje/o8QMA4JGeLmhld6Ss/iDiJv7S9k6+j628VibF64X9h2CRkuMQxiaQ9c8PWkaxj51BK9o23YetYyu/nOQ50jM+jj6+WpmhHyMAAB7tzqD1ZNRQ4id3+TgLOylBEAAAFH2toKU+ckofZ2E/ghYAACO+VtBaaI8Ov0YwSB855ub/5R1BCwCAEV8uaAEAADwLghYAAMAkBC0AAIBJCFoAAACTELQAAAAmGQ5a6gtBD39HVXixZeGdWNH+Wy+zNPpfaKn1L/1rvmwfSf+LL9u07/lalkUv+XR96vqLweRloJFPek9YPD68KBQAgJp9QWv2pG4CyRJGzktgiV8lkL9ewE38aSDzywtvRu/nXqmwhSAf9Cr12pAlyqP2+ReqXq+yvQNBSzimf3cQb5FXyyse3nYAAD7JUwYtsw8bpsxkHk3IedDSlx01madBK/05UXkzvW1fKD8v/VrHkKAFAMBX9YRBSwSPLLhooUp/8/vMoFWqt7TPsHzrj6knhJTjg1b86FKEIR9czZ1CU3Y9n+y+zb/d/kNb3H9DHenYrnUVglb6aDX0zbZZLN/E4bTYfgAAXswBv6N18ERow0gcQraJPg9arj15G2pBpJ9yB8u2z/c9qd/uUwmhoS0yOJplcbiJt2kp9U9/dOnHx4YjN35uuduv3ca2ewtYa3vsNnEQ2pYrx35ZLvsS7V8uKxybavsBAHgxw0Er5e4+HDcR2olVhJV4Uo7vtFiFCbs2mfdTglYgAlcIfmnbg9AWGbTsv237jgxapr1pKBJ9EOFIbr+1Ow+yxSBYClop2We/TG+70Wh/tC4AAM/v7qClTaT7KRN9NKFrQUBXnsxHdEzytn2u/6V9rkEmGivTF/PvQpBpUPdl60+CqHdv0MrGvBi03JjF+4/Pj9I4Ndufrg8AwJO7P2iJoKGWj2hOtE8YtOQ6augUbU7Ll7ELvyc1GiT0/pm2VI7FrqBVGAM1aLnto7t6ypiUj02j/QAAvJg7g5abhKOJVS4fnDRLE3D6O0Qzg9bpLLYp3rXZ2P2s6/igIfYblWehYxmn62VxVNDKf8cpsiNoxf3T69qWu+O+be/HIz0P7Lb6uVFtPwAAL2Y4aLnfydroAWFf0DJ1qyHKT+o9QSttn6MEhZLorlrS/qgsSOsO4cKToaF0d2dZ76igZeRj4NvYGbSibaN9KOWW6JPdx1Z2OZlzIT8P4jbG5cX2AwDwYu5/dIgvpB1kAQBAP4IWBIIWAABHeqOgFR5nlo0+vjvWM7SPoAUAwJG4owUAADAJQQsAAGASghYAAMAkBC0AAIBJCFoAAACT7A5a0UslD3yTd3iBZ2z8hZWufbzoEgAAPM6OoOVfQ5B97c4xam88H1ELWkftAwAAoGY4aG1f16KX3+szQhBBCwAAfIbBoOVeaDnzxZnVEBS+a1AGPb8svGTTbl945BiXSfl38QEAANxrMGj5Lwg+xV+ufGTwUsOQDF4+WLl9useY6pvMxRcop2Xc0QIAAJ9hR9BKgo8NNMfdEeoKQT5EXczvYZUeYxK0AADAg+27oxWFqmO/H683BDX/qpCgBQAAHuyA39E69ve2ekJQWOdUW5egBQAAHmwwaCkhRQ00/hHjjkeKzRBk9xfqdSFPfXxYCVpxHQAAAHMMBy0jelmpGmbuDFpr3ck+bEBKHlNGf4nog1e0rZG3I+4DoQsAABxvV9ACAABAG0ELAABgEoIWAADAJAQtAACASQhaALrEf2CS07YBgHdH0ALQRQtXkrYNALw7ghaALlq4krRtAODdEbQAdNHClaRtAwDvblfQil/2uSh9sbMifiFp4c3tuFvzuyCnCy+t9QbOkcc59ns7v5rtc6vTtgGAdzcYtPyb14/4nsDaV+Tc6at/l2FP/x4btCpfjfQEyuNH0KrRwpWkbQMA724waLm7FId8gTRBa7fn79+B58kEBK19tHAladsAwLvbFbT67qYEhTBVCVrN7cP3Gybr2Ak0Wh6MfZdh+mh0CwxuIr6c/B2brLxHvG3cNr3+MPH39C9eRxvf8f2PB6Zy0LLtM3e6/PdWWtGdr0r7zDbLuXf2x+d6Pq3r9rSxPX5u37JeI6276/zWdLa/XH/r+IT2p98FKo/xtt5Q2xdbm3TaNgDw7sZ/R0uGHCVw2UlCLHeTm3JBLwSt5vZ+/7WJ1W6jtK3L0i5Zd7z/bYIL6xT7p/Lby2BhxyGe6GX9cbnT1T91fMf3P9Q/W5fbPra139VnloU6ZShrtM/Xb4JEqMdsZ8+ZKKzVlcev3f/u81vT0f56/a32uXKCFgA8j12/DG+JwLVd2M2kmV7UC3c37KSTXujb2/dMqnby2Ru0UtFE1TuRFVQmPVenUr9fJsevq3/a+O7Z/0j/VoVjvoiDgSH22Wqf6JMcA/vvA4NWuf8D57em2f5W/a32HXX8dGmwSmnbAMC72x+0Ajt5+Au5vajrF+FsIioGgdr2ykSiKE+kPdzEFu//oIlM6/NiC49a//JlXf3T9rVn/7sm6nL4qLa91T5RrgeVeLuSchsa/R85vzWt9u85/6Pjc9Tx02ntkrRtAODd3R+0oklV+z/yAnVSbW8/946Wm6ii+o+cyNR1ZZ1K/Upo6eqfNr579r9rot4ZtFrte3TQGjm/Nc32t+pvte+o46fTwpWkbQMA7+7uoGUnCTGh2yDUCgGGGrQ6trfbNe4g2HX2TC4uIGwTlZu4DrujFeoToSAev7z+dHytnv6p4zu+/30T9c6g1Wqf6JOsx/57IGiVx6/d/+7zW9PR/nr9ne1bx8Idh7yvfpyz86MuDVYpbRsAeHdjQcte1NMLbH6xthd7dZ1wgU/FE0F5e89OWJXyRVyHNqkWJHVfTvIuQ3uiawuTXyDbroxPYdLV+9czvu39Py5oGZX2HRW0FrXxa/W/eX6WdLa/XH9H+6LPqFkuz98gnCed7fbiNuW0bQDg3R3w6BDHUSZS4Elo4UrStgGAd0fQeioELTwvLVxJ2jYA8O4IWk+FoIXnpYUrSdsGAN4dQQtAFy1cSdo2APDuCFoAAACTELQAAAAmIWgBAABMQtACAACYhKAFAAAwCUELAABgEoIWAADAJAQtAACASQhaAAAAkxC0AAAAJiFoAQAATELQAgAAmISgBQAAMAlBCwAAYBKCFgAAwCQELQAAgEkIWgAAAJMQtAAAACYhaAEAAEzxw+3/Afzbq+7Ddv0iAAAAAElFTkSuQmCC;" parent="1" vertex="1">
          <mxGeometry x="-2490" y="813" width="814.97" height="287" as="geometry" />
        </mxCell>
        <mxCell id="WQEoA2Sx39wn5vHGqPxY-120" style="edgeStyle=orthogonalEdgeStyle;rounded=0;orthogonalLoop=1;jettySize=auto;html=1;exitX=0.5;exitY=1;exitDx=0;exitDy=0;entryX=0.291;entryY=-0.003;entryDx=0;entryDy=0;entryPerimeter=0;" parent="1" source="WQEoA2Sx39wn5vHGqPxY-112" target="WQEoA2Sx39wn5vHGqPxY-119" edge="1">
          <mxGeometry relative="1" as="geometry" />
        </mxCell>
        <mxCell id="WQEoA2Sx39wn5vHGqPxY-112" value="" style="shape=image;verticalLabelPosition=bottom;labelBackgroundColor=default;verticalAlign=top;aspect=fixed;imageAspect=0;image=data:image/png,iVBORw0KGgoAAAANSUhEUgAAAbAAAAGrCAYAAAChX8JyAAAAAXNSR0IArs4c6QAAAARnQU1BAACxjwv8YQUAAAAJcEhZcwAAEnQAABJ0Ad5mH3gAAFhxSURBVHhe7b3NbyRJmubHf2UvfS8U6sLzYKVrnUpCYqEUBHExAgRJGEAtqBbapCAVhD4s8tocJsHkkGKzWGw22exogkU2weJwCHIIJsFJYIDOQwO9A2TfatT7Md/zyu3DPcxee83d3MPDwz3ieQa/6XRzczNzs9feJ9wZRS79wR/8Aa2srAAAAACDAgYGAABgkMDAAAAADBIYGAAAgEECAwMAADBIYGAAAAAGCQwMAADAIOmNgf3xH/+xWA4A6Df7+/v0gx/8AICJUbEkxViM3hjYxsaGWA4A6DfffPONmIwAqIuKJSnGYvTGwDY3N8VyAEC/gYGBthisgf3Jn/yJWA4A6DcHBwdiMgKgLiqWpBiLMTMDW1tb8453dna8YwDAMICBgbYYhIEp8/rrv/5rr+wnP/mJdwwAGAY//elPxWQEQF1ULEkxFqNzA8vNixvY119/7R2DOeLNO1L6OFqVz4NBc3h4KCajheeHv9Jxz/WrHwp1gUbFkhRjMTo1MNe8uIHVfXQEQ2GVRh8z8/qo/t+IVsU6YMjAwCJoA/sV/dAp+3z9N1nZb2j9c6ceKOitgXHz4gZWd+BgIKyO6CO9ozf6fz/SaFWoAwbNz372MzEZLTyCgf3gBz/MSjILW//cKQM5KpakGIvRiYFJ5sUN7Pj42DsG88Gqevx690b/W71JxGvE+QMGFqHEwPAaUaZ3BhYzL4Vb7+TkxDsG88Cb7NlL+Zc91j8Ly57GgnpgyBwdHYnJaOERDEwX/WadPnfKwBgVS1KMxZiqgZWZl8Kt+8tf/tI7BnNAYFjM0MBcAAOLoN2Kiz+RAZfeGFiVeSnc+mdnZ94xGD7Gv8zrw7IyMGzU638pGS080ivEz9dJf40DPwMTqfujpKkYWIp5Kdxrzs/PvWMwcPSXNmLClznmiZ///OdiMlp4xJ+B5d9ExJOYhIolKcZitG5gqealcK+7vLz0jsGw0V/eEH/eZV4j4ssc8wMMLELEwEw5vkovMVMDq2NeCvfaq6sr7xgMGfPffsVeFerXiPhvwuYG9QUsKRktPHgCq03dL/O1ZmB1zUvhXv+nf/qn3jEYMPb1YfTLGtrBSs6DQQEDiyAZmC7Dz8BizMTAmpiXwm3jz/7sz7xjMFyMP5V9Xb78CQ0Mi1/84hdiMlp4rFlx4b8Bi6NiSYqxGBMbWFPzUrjt3N3deccAgGEwGo3EZARAXVQsSTEWYyIDm8S8FG5bf/7nf+4dAwCGAQwMtEWnBtYmj4+PYjkAoN+oX0IgJSMA6lL3F1r0xsCenp7EcgBAv4GBgbYYrIH9xV/8hVgOAOg3/+KP/iUArSHFWAxtYD/+8Y/1z7PW19dpY2ODNjc3aWtri7a3t/Wf+t/d3aW9vT3a39/Xf7dL/ekT9Tur1K/9UF97VO8tT09P9a+DUr9R4+LiQv+Hyeq/7bq+vqabmxu6vb3VX9S4v7+nh4cH/cpQPXU9Pz/T+/fv9RgAAMNDSkIANEWKsRi9eQJTg/mfD/4LAAAAC8re07+z/7FBmmBgACwQ/+83P28dqR8w/0ixMCkwMABAFJUk2pRqT+oHzD/TiCUYGAAgikoS//zP/9waMLDFZRqxBAMDAERRSeKfsmTRFjCwxWUasQQDAwBE0Unnn7KE0RIwsMVlGrE0GwMzf2a35Je3VgMDA2D6qCTxj//4T63RiYF9+xP6nU5X/57OvhXOg5kwjVjq1MDsX8Wwat/Atv7KNp3pd3/5h/75uz8zJ/7qR345ACCKShL/kCWLtpAMrNi3kb35o7/89+b8739CPxLOB8DAesk0Yqk7A9N/88n+afgpPYG5Bkb0Z7TlnoeBAVAblST+/h/+sTUkAyv2Jt+zmj+ks9+bs8GH0hgwsF4yjViaq1eIuYH97vfmE5sX8DAwAGqjksTf/f0/toZoYAc/omezO+n5jp0rzEgytwgwsF4yjViaSwN7vss3hBP0goH9KCv7nf10l+t3f+W+psg//WXtfJu16dT9XdbOj7LzW39lX29k8q+1ffxl1oc9r2Su8+sA0FdUkvjbv/sHkf/z//5/Cv7t6v9F//u/+bf0R//r/0b/4//0v4j1FbKBxV8jSuWV+zYwsPFTnGeQeU5gryaxZ6fDNGJpTg1s/N68eAoLDGz8qS9QUWcc+MlyNlqx+bhS3+UDMGNUkvibv/2HKP8HSzYr//p/EOvlxAxMfo0oPZkl7NsJDAx7dnpMI5bm1sDGgW43RGBg6pNc9snKecWgPnlpFcHqGNjv1VMYK8s2yPOdMcjgB83Sawz1FMfLAOgxKkn857/9+1JUsvnv//Uf0n/z3/534nmXqIFJZiWaWsK+bWpg2LNTZRqxNMcGNjYV/RQmGJgOTvvzMk+CgbmBX5iV2xbfbMWxLG8jAdBTVJL4T3/z95X8V//1C7GcEzcw5+nH7qv8OPjyRtW+bWpg2LNTZRqxNNcGNg7czFS4gRVBLggGBoBGJYn/+J//rjXKDMzbQ7Enn5R9CwPrJdOIpTk3sAwblPk3EwvTKYJ3/Hqi7BVibQOTXkcAMDBUkvgP/+nvWqPUwJzXiMV+LfaiJWXflhiY2rOmzo/GZdHrQJtMI5bm38Dc4FXq6gkso3glEmhcB4A+o5LE7//j37ZGuYGFeyZ8fZiwbwUjKvasJMcksWenxzRiaQEMLMMNesd09NdxbbEK9ue//In5BNiSganr1dfsww2HzQCGgUoS/1+WLNqiysB8g5L3SeW+FQws34uF9Jey7BOfY2DYs9NjGrE0GwNrAcnAAADtopLEX/+Hv2mNSgMDc8s0YgkGBgCIopPO77OE0RIwsMVlGrEEAwMARFFJ4vssWbQFDGxxmUYswcAAAFFUkmgbqR8w/0ixMCkwMAAAAIOkkYEp81hbW6P19XXa2Nigzc1N2traou3tbdrZ2aHd3V3a29uj/f19Ojg4oMPDQzo6OqLj42M6OTmh0WhEp6endHZ2Rufn53RxcUGXl5d0dXVF19fXdHNzQ7e3t3R3d0f39/f08PBAj4+P9PT0RM/Pz/T+/Xs9BjV4AAAAi4vyg1R69QT22+9/DQAAYEFRBlZHMDAAAAC9AAYGAABgkMDAAAAADBIYGAAAgEECAwMAADBIOjSwN6R+ha+rd2+kemlEDezxS/p0aYmWFJ99Sd99/y29+iz/t6nz9qV/3CZ+22HfAIAIxd79hF491inP91i3e52zeHt/nV5I6xItb5/ODOzNu480WnXK9G+kb25isoHZoHm5HpZ1FNQwMACa8d1Xn4h7RS6f/V7nLOre1/ftrUN5eZvM8BXiKo0+Zi2+eyOcq0Y2MOP8n371rXBuzDSDussNE/D1F5186gFgGtRLhLPf65xF3fv1Pni0y0x/Bmb+LBgMrDVgYGDAyEYVK4eBecDAktT6E9jH0apwrprAwPQCZgHkkAc3Dywx0Pj1iROv28qvyTZZVV/6OK/H+0kYgw4Kp453j065e07j/rzA8uJrv21pbK/0v7+gt069oq4wPgCaksdfZfmM9jpHt523scB7fyENbFW/P2Q/F6tBnScwPuHiAngLlfb+2iz2+LoiwEr6MtdksI2aMgZTx/2Upeo4x3oTCJ/C7ObwgtaWuXMljs0Gv3etVAbAhOj4Y/siXt7tXueYvYK9r9BjE+YvVt4mMzEwY17T+BZik6A21wTJOBYQBc02kAkUN1gVKWMwQc378xDHbDdDLDE4Y5HHFl4fbjgAJiT2oSj6YanLvc7B3vfqxeav9rzWp2MDs1/cmODJK6c1A7MbRH/6CCiZ/MjGKu0rP+YBlTKG6EZ2EAMmskEUrL44tgw/aOObAoBGNEqAHe51DvZ+UC/eV8kYWqBDA7P/HdjHEa2K5+vRtoHVnuApBHHpGJoGcdl1uj77FFYSnHpem84XAKXUTYAd7nVOpJ3SvvPjedz7dctbpDMD0984bMm8FG2/QuTXVNOkr1igpIwhoY4UxPY6KTjTxubXfdvBe22wmMTir86eEWO6OE7ZZyk06bveffgk1Jnh3o/9rCtW3iYdGZh5+prkZ16c9r/EwRZfBQS/htUxZexTjAqYkr70sRAoKWMI66hHeuc48onHXMfKdcD7ZbGxaWx9xeQJAICQWPzJ5dPb6ynodrH3NboPYf5i5W3SjYGtjsh8bUNSs5+HtWlginyhC9h5fQ0PsvydsL1G9csXTew7EihVY5DqiPdqz0lBO4bfS/nYxvcaXgdAG8TiTy6f3l5PA3s/h993VXmbdPwljvaQDQxMDxvEUw5IsLjEkmh5cgXTp3zvw8AaAAPrmA5+IAsWm1kmQlBCxd6f5QcPGBhIQgej884fgNaxiTJ4VRUrbx37pYdSFm8PxPf+eL58c4uVtw8MDAAAwCCBgQEAABgkjQxMmcfa2hqtr6/TxsYGbW5u0tbWFm1vb9POzg7t7u7S3t4e7e/v08HBAR0eHtLR0REdHx/TyckJjUYjOj09pbOzMzo/P6eLiwu6vLykq6srur6+ppubG7q9vaW7uzu6v7+nh4cHenx8pKenJ3p+fqb379/rMajBAwAAWFyUH6TSqycwCIKGJ5VIIKgNKQOrIxgYBEETCQYGtSUYGARBnQoGBrUlGBgEQZ0KBga1JRgYBEGdCgYGtSUYGARBnQoGBrWl7gws+IW+k/1RS8nARitLtLQyskeSPtDr5azO8uvsX/1V9X3YOj2/DwiSFDWwD69pWf8Gh2V67Qa2UD4ve51rOnt/RCvSvEbLh6PODGx19M4zrFX9p5mbmxgMrMF9jFb0r3dZWlrJQpfLBPPyUCMZGoxiBvbh9bIY01L5vOx1rqnt/UyxtlP67Ktm+Apxsr8R1szAOpQ2i2afbKYVxDoRaAOT2oeBQd0oZmB1Emyv9jpXD/e+Up0PCEPR7AzMvlKEgYWaVhAbA1uh1/p/5dcJMDBo2oKBxTWtva8EA2vNwFZJv0F890Y4l0aZgZlEnf1bwRbGXXz9b+F1WhAgxas3S8Vim3Z9XGMIzsc2p9evP85gjEoV48wNLJsh4fWKbGCpYxXn3B2PNGc15xWaD7VpYLPe61ymH58+7H2lmFHFyoegDg3MmpZV0yevnKiBqcUrgiJMyt7i20X3Y8i/Zpz0cyW+W9dth5/CVP+eSdgfULtjCO8j7JMHcco4vTrBvctzVX+spp2qdWg8r9Dg1ZqBVcSYrpPH0zT3OlcP976SrifcS6x8CJrZK8Q36gdgHXyJgy+2f2wW2gsqHXx5MJgAZ03aOhWvCFLqaNlgczrhY9Zi7fl10sbJA123we7Vm4tAaWOtLptgXqHBSzQwIZlrRcp1PLFCHnf+8RT3OlfyNd3tfa3YuJrcY080wy9xWBNr+BqxHQNT+8P/9OG1YTeP/kQUULHg0aCwQcvb40HMI5JtZO8+EscZfFKz15lNLRlY4lid+VOqLJtkXqHBKzCwBolV2iM87vjx1PY6Vw/3/lgRw4uW91szNTD9VfqPI1oVzlXRloGZAMgXmi0iC5xaEoPYBrDbf17mdNI0iKvGGRhYJlOmxskNrMZYvToJZZPMKzR4ya8Q6yVWaY/wuAvicFp7nauHe18rVrfNe+9YC/8ElgeRTtwq8LxzPKnXkBTEYqCkmQJvz6+TNk7JwPJrl9S8um1MMNbqsgnmFRq82vwShysed/w4j9/W9zpXD/e+En8CzRUrH4I6MrA39I4ZVVf/IXN1UGeywfw6O8cDYfyEYguUWPDrNpMCNjcLFrCVZZHrnDGkjFM2sEx6g5g+x/dfY6xsPlPKUsYLzadmZ2CZJtzrSerh3lfS9YR7iZUPQR0ZmP8NRKN39Easm0arBpYHCQ8CKxMg6ryFXW+CLrzWlBuKYdngLtrKTvBxq2O1ubx+pT5ZWdU4zXnBwDLlY/WmL3GsKWNrMl5oPjVTA5twr6dK923bKIY5w72vpOvUKB+CZvoKcRIkA4MgqP9qw8Cg+oKBwcAgCJpQMQObxwTbJ83jBwQYGARBnSpmYJlT2Vds7PVerLxT5a8ey5Bfz89e47H7PhUrH45gYBAEdaqogUFQTcHAIAjqVDAwqC01MjBlHmtra7S+vk4bGxu0ublJW1tbtL29TTs7O7S7u0t7e3u0v79PBwcHdHh4SEdHR3R8fEwnJyc0Go3o9PSUzs7O6Pz8nC4uLujy8pKurq7o+vqabm5u6Pb2lu7u7uj+/p4eHh7o8fGRnp6e6Pn5WW8ANQY1eAAAAIuL8oNUevUE9tvvfw0AAGBBUQZWRzAwAAAAvQAGBgAAYJDAwAAAAAwSGBgAAIBBAgMDAAAwSGZmYOYvMjf/hb6Sgb19uURLL9eD8jHf0qvPsjqffUnfieenix5fh31XzwcAPeLxS/pU/2aIT+jVY3l53/c6ZzH3/jq9kNYzWl6f2RjY6ojML6eHgU2TfgRxxtdf6F9Xs7T0Bb0Nzptg/vSrb1k5WDS+++oTcX9I5X3f65yF3fsZsbG0McYZGJj50yrv3um/Ztmxgc2WRkGsk3+zTyp9mQ+dgLSBSeOBgQFDnUTX973OWdS9r6jzwaQunRuY/kOWH0e0av4cMwysirkxsC/olf5f+XUCDAzE4lUq7/te5yzq3lfMj4HpV4f2rzBP0cBMwsz+rWAT5AaS/rfwWisItuIVmCVx0k37lmxcQbu8jq0XPZfhJvqya4vzqswbf+R+S9oZ/wzC8OJr55yiYn5yA3srvtaRDSz13sS1dscjrVXD9QTTpYjXhPLS9Xfr2DL97ynudY7pz5KNM+iH17H1oucyhrj3FTGjipXXoUMDM68OP45WzfG0DExNYrEIYXLUdfJJs5PvL4p/zTj55ufT3q2bsYyvKzaac52q4yVuGyzeePQYw09hKdeG8xGOvbodPoeqDX5f5fPj1QnmXF6j+vdm2pHK3LaarieYPnpNeQKNlMfWn8dRsa5T3OscMza+R/x2VJ2qGJ+HvV/UE+YwVl6HzgxM+5V6dZiXdfQKUZexRRsfmwn3FlEHTb4oZgH9oM/rlD3ah5tJwccSYgPAvYfKvnLCa8X+Ktvj7cj34p6rmh8e6HpcbI7l9nPS7q26rOl6gqkjJfCScr2uvdjrHDmepdj0mc+9Hy0rK69BNwYmmVUvDCz8FOC1YTeP/iQTUDLxZZvOCyobMLztpCCuvlaaj3Bs1e0YA1LlbByJ88MNLL/ObAxpkyTeG9uglWVN1xNMlwYJToptvv78eCp7nRPsLwMfy6Ls/TERw4uWp9GBgZlXh2UqXivWoC0DMwuRTzibzEgwVpIUxDZ4pKCuDOK0a6uDOHEMFt1edm1hRonzExhYUabuixtYjXvz6iSUNV1P0AH1EpwU23z9g3jQ69/yXudE2vHHkrjv5mDva2J1W5jzbr/E4dKTJ7B80XQCVQHjnePJNRX5Oq9vcfGEAJKCOPHa8F4z3PZSx+DiXZM2P5KB5dcuvfzCb2OCe6sua7qeoAv0WglxJ5VHy5z158fT2esc7H0Of/KtKq8DDExhg/lVdo4vyPhJIazvtcnqmLJx0jbHbt95AmdBx8rkQEu7Nizj1yW0o+7VOc83Vcr8yAZm66m+MsbzXuPe2DqmlKWMF8wGvVZurJWUR8ucdeTHGrvWTfd6Crpf7P2iTNcT5jBWXgcYmMYuJl8Mi1kodd7CrjcLz6+1n2bsNWqzBAtmA7RoNxt79B5snSKYE65Vx0W/eT1+74ntFOcz/A1VPT/mvGBgGXnbXpupY5LWIaGsarxgNvA1LiuPljlrKa39pHs9Dez9oE6N8jrMzsAmRDIwAMBw4cmzqhwMAxiYAAwMgPlimokOzI5pfjCBgQEA+kHxSou93ouVd0r+6rEM+TX54jKeM//VY6y8PjAwAAAAgwQGBgAAYJA0MjBlHmtra7S+vk4bGxu0ublJW1tbtL29TTs7O7S7u0t7e3u0v79PBwcHdHh4SEdHR3R8fEwnJyc0Go3o9PSUzs7O6Pz8nC4uLujy8pKurq7o+vqabm5u6Pb2lu7u7uj+/p4eHh7o8fGRnp6e6Pn5md6/f6/HoAYPAABgcVF+kEqvnsAgCBqeVCKBoDakDKyOYGAQBE0kGBjUlmBgEAR1KhgY1JZgYBAEdSoYGNSWYGAQBHUqGBjUlmBgEAR1KhgY1JY6NLA3pH59L1eTvwWmkAxstLJESysjeyTpA71ezuosv87+BUHQLBQ1sA+vaVn/hoZleu1u0KAc+7j/GtGKtJbR8mbq2MA+0mhVOlcfGBgEDVMxA/vwelncm2E59vFQFMvJ1bk6Td0Z2Ooos69ZG1hPNFpp/glkkmtnrSGPHWpNMQObdrKburCvA6V/KGkmGNgshECHFlgwMEFzuq/nx8Am/AOWnDID05Oj37NmsEnSdWyZ/vfSCvGt4dbR0gtk2xPaFFW8tzfk+8/06bPsrHxw3tm4VddWjVNfH5sf91rp/iZpOz/vXp/hjR1aGLVhYLrMxpeJrSntYy7sa69O1dj1dUK/sfK66tjAfL17I9RLJGpgahKL4DA/MAwCKZ84u3hOLGXyrzEL526OlPfvvF91jdOG7jf8xKLG5gWu3Sze+CLXpowzNj9VczZJ2979RMYOLZbaNjATV9PYx1zY11I7sbEr6T6EOY6V11WHX+JgWEOb9rcQvUAPjs2ChYuRL6pZLNakrVOWiIVFdlV5fS4bUO4AxGvTxsnnQqm6rEbbFXPPr4EWU6KBSUldKVLux9a09jEX9rVS0HbZfcfOlV1TQ7MzsIzV0UflYLQqnKuiHQNT+8P/JOC1wV4X+JRPvvl0E6kXXTwb2Lwv956kaxPHGQRepsqyOm1PEujQwigwsAZJjsfWtPYxF/a10Hblvo6YZbQ8XbM3sIY/F2vLwMxC5pPPJtQu8iQTrPvTQVH1qsEGuRd0iZ/UEscZ3HumyrI6bbNKQduVgQ4tguRXiPWSXBBbU97HXLr/rE3s60xl+zrWT0trMlMD028RZ/wElgeTfi2gFsI7ZzZC9JVBqvhiJQdrYqAnjjO895SyGm1XzH1WEA90aGHU+s/AtDrYx1zY10Yl+zr2s65YeV11ZmBv3vlPWubpq/kXOdozsEw24F9n5/iCmlcGbHHYBtFtunXU+bLgFIPaBJR7nWnXL5OvrTFOdu8pZclts0EFbUfGDi2WpmNgmWxMNt3HlVL13XGoY+zr6NiVdB9sHEqx8rrq0MBsC4Um+0p9qwaWBxlfTCuz0Oq8hV2v22TXmrIxfHHd88U5GwjFddkJXU+6J35tpqRxNixLalsap1TPtsGqQwuiqRnYhPs4RW78Kvhwxfhe4H2t22d1lWLldTXTV4iTIBkYBEH9VxsGBg1DMLAIMDAIGqZiBjbtZAd1r2l/KIGBQRDUqWIGljmVfdXGXgHGyltT/uqxDPc/+IWqNZ5T36di5c0EA4MgqFNFDQyCagoGBkFQp4KBQW2pkYEp81hbW6P19XXa2Nigzc1N2traou3tbdrZ2aHd3V3a29uj/f19Ojg4oMPDQzo6OqLj42M6OTmh0WhEp6endHZ2Rufn53RxcUGXl5d0dXVF19fXdHNzQ7e3t3R3d0f39/f08PBAj4+P9PT0RM/Pz3oDqDGowQMAAFhclB+k0qsnsN9+/2sAAAALijKwOoKBAQAA6AUwMAAAAIMEBgYAAGCQwMAAAAAMEhgYAACAQdK9gfHf6vvujVyvAsnA3r5coqWX60F5Ffq6z76k79zyxy/pU/tfjAfnJsDv61t69Vm77QMwWIo99wm9eiwvH8Je5yze3l+nF9J6Rsvr06mBmT+h8pFGq/L5OkzXwGxwNWirisULYgDS+O6rT8S9IJUPYa9zFnXvx9aq6Rq6dGdgq6PMupr//S/OdA3MfEL49KtvvXptEPbVIV9/0cqnHgCmQZ1EN4S9zlnUvV/ng0ldOjOwSf76sgQMrAEwMNBjYvtXKh/CXucs6t6fAwNbJfX28ONoVTjXjDID0xOj37HKAaPr5eez+l5g6YV2zmcUwe2+K8948bXfrkRpX/l5fpzXU9e44+djE+7Nu/eMfOzeONg5Dbs3Bb8/aWyv9L+/oLdOvaKuMD4AYuTxlVKel/Vpr3NK+87P8+O8nrrGvZ8B7/2YUcXK69CRgb0h9QD27o0xsrGa/1XmqIGpyc0m2pSFn65MnfGkF4vuTaT0qYyXqXfY4eK5pPTFFzu8B/dat7/wHbqp437KUnWc49inMLs5vKC1ZeHcsbHZ4PeulcoAqEDHF4v7WHkYi7Pd65yUvnWdBdj7emzenJeX16EbA7M//1Ia/wzMmlnD14qprxD9IJGCNQyktKCuIq0v8dgLVoVpKzAELyhNUJeOTwxiuxnYvCn4WOSxhdeHGw6ACmIfeiLlOhZ7s9c52PtePbHvkvIadPoEFrxCnOCLHY0MrGwzVAZ1vjhqIRMmPbEv8ZgHlG3L9M2xY4klABcxYCIbRMHqi2PL8IM2vikAEGmQ4KRY9PZSl3udg70f1Iv3VTKGBGZrYMWrRbcsjVkYWI6un50PP5E4TCGISxe5aRCXXafrj+9RHJvGma+UcQAQUC/BSbHo7aXE/dfKXuck9i0ez+Per1teg44MzH4Lkf9Hy/oJrNl/F9b9K0RG5eSn9SUeB4GSMJ6UOlIQ2+uk4Ewbm1/3rfpE5s0lAGnE4ksqj5YVsZe2/5L2Te1Em9a3eBzcf8L4UurMcO/rp7Qa5XXozMDC14X2Z2BT/k0c4kLwTxZqEb2JFAJCBYDbNgsI044fICl96TJ+LASKeVRnAajG4Fwb1lGP9M5xZCOa61i5vj+/LDY2ja2vKN9sAMjE4ksqj5Z1sNdTSOlbHK9w/0Pf+7oPb87Ly+vQnYEpnC9zaDU0L0VTAyve0zoTHk6k/IlGt2WvUwQLHAR5dV98fNI95OTBViAsPq9Tdg9S0I4JN2zZ2Mb3Gl4HQAqx+JLKo2Ud7PU0sPdzwjkvL69DtwbWIpKBgVlig3jCgASLSyxJlidPMHvK9z4MTAAG1jNa+IEsWGymmejAFKnY+9P8YAIDA62gg9F55w9AbWwiDF5Fxco7x37poZTF2wPxvT+eL9/cYuX1gYEBAAAYJDAwAAAAg6SRgSnzWFtbo/X1ddrY2KDNzU3a2tqi7e1t2tnZod3dXdrb26P9/X06ODigw8NDOjo6ouPjYzo5OaHRaESnp6d0dnZG5+fndHFxQZeXl3R1dUXX19d0c3NDt7e3dHd3R/f39/Tw8ECPj4/09PREz8/P9P79ez0GNXgAAACLi/KDVHr1BAZB0PCkEgkEtSFlYHUEA4MgaCLBwKC2BAODIKhTwcCgtgQDgyCoU8HAoLYEA4MgqFPBwKC2BAODIKhTwcCgttSNgfFf4svU9O+Bifrwmpbtf+W9tPyaPmT/93o5/7fRaMU/npZ0PysjezQ9dXU/fZJ/z+EaQ/1V1MCKvbtMr92FjJVDrandHDKiFXG9YuXNNdMnsFX191Q+jmhVOFeFbGA2kXmmAQP78HrZGDpjuaUomnb7kmBgw1XMwHQcCWvol9u1FuKtoIM91ye1sf+mkRNj+a/NvDhDA2v+15gVsoEZh69auGkslqQ2F6pMVfcTSwxtyWyglWz2HeWfmqfUbydrOFrJ7guf+ttWzMBi+6V0H2GNWtnf09hPsXG1mY9mZmCTPH0pYGBjVd3PTAxMyZrYNJ7EOllDJMepCAbWrmBg6WrJwCZ7+lIEBqYDOVsEhzxx8sURF4tfnzjBJnmPr3OTdb7xvDpSuwl9V/bjXJPXzeskBYz7s0MLzxn5/ej/VXVsm6Y/wcAymbr5OekVbzh+dazG7t+z3750Db/HsjlTMmNzcMYVnMvwrm8YL1B3BpZfV6ylXqO0GNRqa40n2FspStnfRbs5VffPxszHmzI3sXGljDdVszGwN9q+6I10LpE6T2B8cfixSXRugkz7mYq5zt086rrxcRE0xeqH40vpO6mfvL4NLDfgKgNGuCYvc8ca3o9ReA9j+WNPSx5hP+GciNc4xylz5sWJ3bDhHLhtGIX3G44PiqtTAwviNS0GW1vjCfdWivRYS8al2q6Kdf/+eZ5S9z6ei9S5iY2rarx1NAMDWyXz9nBVOJdOewZmrgnipmRjGJlF43250v2UbpSUvhP7UW1KmyWTCbisjoffvrRxdLtOoPLjXGFAOxLupSp58GMtth7l11TPWShhbGIMNI0XKJdoYNIHCKVYea6SeZfjNSUG21rjyfdWisr3t6RwXNL9y/unxtzE5qvFvdK9gemv1H+k0apwrgatGRh7VE4OgqqNlUn3wyrU7ju1H3udFHTln3giAanEAk26H6UyAzPn8jZSkkekHzYP4jVsXsV7KmTHYuetwL1I2mgpawaVKjCwSRJdSR05XhNisLU1nnxvpah8fytVxzrfT2NTZPdbe25ic1AyNzXUuYFN+uWNnLYNrPZEJlwnBWXtvlP7ydoc2aDjdUsDvKx9vcnYp0ShYpmB6WuKc30xMDsOb06EsUnJMWXNoFLJrxAbJropGtjEa9zC3kpRuYGlxTrfT7l0eXYPxVjrzE2sbot7qGMDa+f1oaLtV4jy43KZqq+TgrJ+34n92Db1v9mGLg9w0760efyx2mOhXtTAbKC6Y5faEPvh45U+sUavqZgzcQMlGljSmkFl6vpLHFxSea34SdbkeytF9T+gphuYltdG+tzExlWej+qpWwOzv5Fjkm8f5rT/JQ62CdTG4NdIxuCVqcAYH0tB2aTvpH6K+jY4HUOpChjTPgtynRj8Mul+lMz1zMBs0PN++b2YefXrFWVFX2Ei4PPIj8vnLNIeK8vvgd9y2HYmtmZQXLM2sJQYbGuNTTvN91aKdB/RcaXFui7L21Dj8wfnzUXq3MTGVT7eeurWwFr49mFOmwamlAdaATtvFj3cKPw6t299DQvKJn0rVfbjXeMHbVLA2E01JrxX6X6UgvFbhKqZcoM1qPvg48v78dpl4+f3nDKvXlzkBpuT9Sfdny6zddxTwT1XzS9UaNYGlhKDSq2t8QR7K0XS2D0lxLo+dtrQx841fGgpcxMbV+V4a6j7L3G0hGxg0Dxoks0M9V+tGhjUW8HASoCBza+QsOZbMQPrIuFB3amLDyQwMKh3goHNt2IGljmVfdXFXrHFymcm+4q+FOFLTbXURR/T0njs/jaOlTcXDAyCoE4VNTAIqikYGARBnQoGBrWlRgamzGNtbY3W19dpY2ODNjc3aWtri7a3t2lnZ4d2d3dpb2+P9vf36eDggA4PD+no6IiOj4/p5OSERqMRnZ6e0tnZGZ2fn9PFxQVdXl7S1dUVXV9f083NDd3e3tLd3R3d39/Tw8MDPT4+0tPTEz0/P+sNoMagBg8AAGBxUX6QSq+ewH77/a8BAAAsKMrA6ggGBgAAoBfAwAAAAAwSGBgAAIBBAgMDAAAwSGBgAAAABkm3BqZ/me9Yk/xZlaiBPX5Jn9r/2nvpsy/pu++/pVef5f82dd6+9I8BAD2g2Luf0KvHOuX5fsZeH7NOL6Q5i5YPk+4MTJuX85eY7Z9WaWpisoHZAH65HpYhqAHoNd999Ym4L+Vy7PUU9P17c1RePjQ6MjDzhyzp3RuvfJK/ziwbmPl08elX3wrnxsDAAOgf9ZIt9noK9T4UDI/OnsDMnwKDgQEAZGBg7QMD89X8FSL/a8wT/nXmwMC+/sK8C3fIg5sHsRjU/PqExc03lg6Gkut0PbdtthlL23HHJY2pwbgB6CP5Pqgsn8Fe55TuWV7P7avjvR8zqlj50Oj2SxzWtHI1NS9FnSewqqA2wfMFvbXH0rt0iSI4i6AM+1d1vPHYHzy/+Noe2zpSO1VtNx03AH1E7wOW4OPl3e51TmzP9m3vx4wqVj40OjMw/brQ/RLHyhvS30lkrxVTac/AzDVuUGn0p5vyb+rodtjG4n2F2EBzrpOuqS5rPm4AeoeQ3EvLO97rHN3uEPZ+7N7mJE90Y2Cx14W63DW1dFozMPeruAHlC6zbqQxiG7S87UmDeIJxA9ArGiXZbvc6R7c7mL0fMbxo+XDoxsD4V+gLzFNYk1eJbRtYk0XU7ZQGsfRY39KnsAnGDUD/qJtku93rHN3uEPZ+rO6c5I8ePIHN2MAi16Sg2ykLYjFIWgriCcYNQB+R9lO8vNu9zpHG5PXVk72Pn4H5avwzMPNLON7Rm6LM/gysg6/R84Dgx+YHouzRW72+4NewOrqsLIjteIKAlcpYMKWUpYwbgKGg45vtp3j59PZ6CtKY/L76sfdjRhUrHxqdGZjCfJHDUcMvcCjaNDCFCYisPIed19fUNrAM+0msaDerz6+TxpNaVjVuAIYC3xfl5dPb6ylIYwr66sHejxlVrHxodGpgbSIbGABgqPDkXlUOqoGB+YKBAQCmwrwn21kw7x8KYGAAgH5QvHJjP9uJlbeO/blVKe5/PNxnxvfif5EkVj5MYGAAAAAGCQwMAADAIGlkYMo81tbWaH19nTY2Nmhzc5O2trZoe3ubdnZ2aHd3l/b29mh/f58ODg7o8PCQjo6O6Pj4mE5OTmg0GtHp6SmdnZ3R+fk5XVxc0OXlJV1dXdH19TXd3NzQ7e0t3d3d0f39PT08PNDj4yM9PT3R8/MzvX//Xo9BDR4AAMDiovwglV49gUEQNDypRAJBbUgZWB3BwCAImkgwMKgtwcAgCOpUMDCoLcHAIAjqVDAwqC3BwCAI6lQwMKgtwcAgCOpUMDCoLXVqYPyX+Tb5Myo582pgo5UlWlp+TR/scSN9eE3L9r+2N219oNfLfrut9OMp7GMW0ve1MrJH01P787c4ihpYEbfL9Nqd2Fg51Jq6j+cRrYhrGiuX1ZmBGfNy/pzKBH8LTAEDi8kaiZfE2zIw244OMIUbZDAwKE0xA/vwelmcU7+cx6BAB+vfJ+n5EeZhuYbbtx/PuRGNkZYltl9T93FHBib/5WVtahP8PbCZarSSLUr7nwgnDyQTOFXBW78fwaDUJ+NWg35ypQb+pJp8nRZXMQOLrV3pmk5pHw5JMeOvo3bj2eQKd8l0+4KJpX1oiasbA9NPWx9ptMrK9V+5FMoTgIHFNC0DS2t31ipNdi2q3Q2/WIKBtav+GZgg+xqY548BGZjwunAKBqZvPJuonCDhuj8fsvC9kW8Yry1nMvV553pF3k9+bVHHXYTUvkuuie1jLb2Zx3UV3rj4PfAA4dd75+0rgZIB+G2GrxCCRFPaX1xla6zHULJ2hRL6ruzHuSavG8QbFKgrA8uv0/9brLF9k8Da4+up1TA+A9XIOf5Y06Rjr6J+0W5O1f1X5Z26c2Pb4/sjNvaUe1Lq7Gdg2qvcn4HZ14ptGphJIm4wq2B1ju2ke4thy4LkpBalqCg8fUQ2TnitVZ2+i4Xj/ar7WclKyyQ/KfEA5cdm7ty2w1eGpk5WVpYwIkHXpD9JVWus+1FjLFm79Hut6CevL60tFFWnBubFgpJda9aet56ZmsZnoDr7PhhrmvRYS8al2vbygTUTtyv//svzTqO5ieyR2Nir7ilXZwamMCaWKzOz2KvFBEIDM5PIE/dYcuAqmeAZL4g+ZvX8Bc4U2Ti8LaOafUcDKUVNDMxcEwxPukfvk5l/jvdRKGinRn+eqtbYjqF07VL6TuxHtamvE9qDohINTEiqWrHyXCUxo9cocS/Wj5EU1dz3wVjTZAxFXe9SvY/ccUn3L8d/k7kx16TlBqvEue7UwAK0o7lPZekEBlYV6LGJV2KTpReTVfQXOFNkgqVrs9J6fTv9jIOzejGN5ODj7XrHnilxIv0W18TMN5cNXvfmm/SnVLnGdgxla5fSd2o/9royo4NCBQY2SRIrqSPFQra41QbWND4DTZZzUlX9tGLvmd+L0593/5mieafB3Ji9UjZvsXkqmT+rmRpYq99CrEo6Zed1MLFEzCryBTbXhIsiBmLdvoVgNEGgqPqU1tzAonMXkx77+Dpp7GbcbMxN+0u4TvfHKtS+19R+sjZHdqPXvpcFlvwKsWESi+xDJSkWssVNNrCJ17SsnYSck6pyA7P3652vegIbS5dn91CMtebcmOtLzCvWXmI/MzQw8zOwj6NV4Vw14StEOXGPZc5LQcIXTwqmYIHrGFjdvoVA0kpaVHkeyvupmruI2HiCsUfH27C/hOv0GFiH9e81sR/bpv536SdMyFXXX+Lgksp12aT7IZBpJzoGZ6+U3mOFSg1M3IPpBqbltZE+N7rNoG9fsbFXP1UadWZgq6OR86pwlfR/19zw6UvR5Esc5jybUPYUoSQFU7DAkeQcC8Rafef9qPP+Se/+TIDwzSsHGB8/Pw7nLpPqzx2Le//Zv8xridjTY7hJXFX2pw9V+36dqjXW17A+a99rpqR++L1WPh1DSrM2ML62ul62Z+rGSIpMO81yTqp0H9FxhSZa3C8vy9tQ4/MH581FytyI9y0oNvbyexqrQwNTjuXo3RuxXiqSgSnlE5cTfFKwwTMmDH4pmLwFtioCISOvLl1bKLVvpx+3D4UfV1IbzQxMic9d3fNem9bgvfoZ7riS2hPmqGyN9TUJa1fVt1JlP9418U/bkK9ZG1i2svYDh0Gtq17rBjGSpIY5J1XS2D3xvZj1w/vTx04b+ti5hg+tfG7sXhDx7z029sp7sprtlzgmIGZgEAT1W60aGDRowcAgCBqUYgY2aTKDhqdJP7TAwCAI6lQxA8ucyr7qYq/YYuUzU9krspxJfx7aRR+z1Pj+fJ+KlcuCgUEQ1KmiBgZBNQUDgyCoU8HAoLbUyMCUeaytrdH6+jptbGzQ5uYmbW1t0fb2Nu3s7NDu7i7t7e3R/v4+HRwc0OHhIR0dHdHx8TGdnJzQaDSi09NTOjs7o/Pzc7q4uKDLy0u6urqi6+trurm5odvbW7q7u6P7+3t6eHigx8dHenp6oufnZ70B1BjU4AEAACwuyg9S6dUT2G+//zUAAIAFRRlYHcHAAAAA9AIYGAAAgEECAwMAADBIYGAAAAAGCQwMAADAIOnGwMr+cKX+q8xjpf55lXk1sLcvl2jpsy/pO+FcMo9f0qf2v2Y3bX1Lrz7z222lH4+wj2Ex9PEDsHhM1cC0bxUSDMya17s3/nGKicHAYthE/HI9LJvYwGw7uTkufUKvHtk5GBiYhK+/MLHlxS8AMtMzMG1GH2m0mv078gRmiv0/q5L6V5pnbmB6o7kJvB0mN7B1epElgE+/+lY4N6Z+P0KCV096SPigFdiHIxgYSGCGrxDNX2Qunr5yXONzyxkwsBjTMrC0dgFowndffWL3kzUyGBhIYHYGFjWqiLExYgZmNoL9FCclXPfnQ5YXXzvnM3RyzzaQ15aT7PV553pF3k9+bVGHP7Gw68S+S67h9T3y1y8O3rj4PXAD49d7542BlSUWv01b34MZfml/IWZOv6C3Ujm/N7ddNmZ9Xlgj3k6dtmKxklMZlzXnYn6BgYF0ZmdguqxdAxt/isvL1GZwjm2S8EzAlrkJpUhaxSYSnj70deETWHitpU7fRfLi/ar7CRO4j/yk5LcbHpu5c9u2iSSok5VFnjx5m2XnUvoLkOaQ3a/qx7t3+wHAvUaPRd2HZEZO/83aCue/Ki4bzcXcYu8dBgYSmCMDM4HPEzc/L20Mk4TGCUQfVyS3cgPjJlOz76If2YzKaWJg5hrfGDKke/SeCP1zvI+CoJ0a/XkIa6yv4fPtEs49n3OvXBp/QaSt0lgRxuzRdC7mlfheAYAzP68QhU/HPpFEoWDJojophdd49YLNV7Nvp5+qp54Q01ctA2OvKX0i/RbXxMw3x4zHm5Mm/Vn0fPD78ObbJkDerlMnvMYp98bfrC2vnaq4nGAu5hMYGEhnfr7EkZgo4ibCEnFZUlLUMbC6fQcmYMt1Uit72lA0N7Do3MXQYx9fJ43djJuNuWl/Cn1tPu/8g4FNft4YwoSoxyQkSH/8zdvy2qm610nmYi6BgYF0Zmhgq2S+Me//N1/Nv0YvJ25+vjpxJSQlRR0Dq9u3lzQdkpJdAwOrnLsIbDzB2KPjbdifxiQ4fa1ag8r+GhrYBG3Vm9tJ5mIegYGBdGZoYHm587Sln76qXx8qmnyJI38d5yUl9hShqE5KGZHkLF2rqNV33o8677bFTFPXDUy0iYFJc5fhGoT7b41NNNGnx/JEVNlfhnx/43qvsvP+fZp7d/s0bQhlwrj88Tdvy28nNS7L52JxgIGBdGZrYMW5sVLMSyEZmCI3ipzgk61KDM55KUGmJKWizLaTm5B0bUFq304/bh+KwOyCNpoZmILPXd3zXpvW4L36Ge64ktoT5qgwF+kc7zdbC92Osyb82Ct3x9CwraCdjKq4rJqLeSe4/4KqV+ZgkenGwKZAzMAAAAAsBjAwAAAAgwQGBgAAYJDAwAAAAAwSGBgAAIBB0sjAlHmsra3R+vo6bWxs0ObmJm1tbdH29jbt7OzQ7u4u7e3t0f7+Ph0cHNDh4SEdHR3R8fExnZyc0Gg0otPTUzo7O6Pz83O6uLigy8tLurq6ouvra7q5uaHb21u6u7uj+/t7enh4oMfHR3p6eqLn52d6//69HoMaPAAAgMVF+UEqvXoCgyBoeFKJBILakDKwOoKBQRA0kWBgUFuCgUEQ1KlgYFBbgoFBENSpYGBQW4KBQRDUqWBgUFuCgUEQ1KlgYFBb6sbAyn6Zb05KHYd5NbDRyhItLb+mD/a4kT68puX8l6Hqtj7Q62W/3Vb68RT20R9Ne2x9vvf+CQYGtaWpGpj/i+Zlc0qpIwEDi8km05WRPVZqy8BsO8VvCl+m10UDfU7izcb24fVydo8r5M6k0YhWsvtfLm6+z/feP0kGpuOxiKsxXhhDENP0DMz9y8qxp6uUOhFmbmCjlWyDuQm8HU1uYDy5yqrfj5Ck1ZPeHCftdAOrqSnFzlAUNTB8AIBqCq8Qm2rhDGzCpD1AwcCmIxgY1JbmzsBM0sk2gyVIMu7Phyz8NYXeTFmh15azufR553pF3k9+bVHH3ZSpfZdcU/pKRSfGcV2FNy5+Dzxh8Ou98yZp+68mfflt2voeLGmX9idL9xFbG7c91pZ4/7F2rOoYWDCfkXXT9ZxyhRejNeKzaCvr97X+dzjWYFw9EAwMaktzZWAm4bhJUr32co5tgvMSgi0LkpFKDEVF4RO3vi78FB1ea1Wn72Ij837V/UgJ1ZUw1kw8QfDjMFmHrwzHyV5+euBtumrSnyTdjhoDWxupLD6v8Xbca5obGD/P1i0SO6a8SXxmssbnXSuV9UCpPwNz7xmCJM2RgZkEGA96myCF3Ww2zzjB6GNWz09QmSJJiLdlVLPvaCJMkXwNH7/UTzA86R69JwT/HO+jUNBOjf6YpD5SysTjijUeG7ZMYCrFtRXrJt5nzRhJiLG4Ac9WkoFx5XNfL/ahRdP8GFjlp81I0lRiCSUlufFrcknXZqX1+haTaHliH0tOnrxd71h4bTUm0m9xTcx8c5nxeHPSpD8rqY+UMvG4Yo2bP4FVrJsYO5PFp5I/3rghzlopBqbE5xSCuBbHwMrO6wTBEjGrGGymOgZWt29h0+pynRClhOqquYFF5y4mPfbxddLYzbjZmJv2lynaR0WZeMwGwOtMYmC5dHlW12tHip0J49PIGdcEczxt1TKwyniHFllz9ApRTtxjmfPSxufJR0oQvE5WECahTHJyqdm3kAi1kpKSPA/l/VTNXURsPMHYo+Nt2F8maX5SysRjNjBepw0D0+LzIMZOzRgR6inldUdq7LHxzFhpBmafIHt6D1A/tFBf4shf63h7nz1FKEkJIkhQkeQcSy61+s77Uef9k9796bqRRFjPwKS5y6T6c8fi3n/2L51g+JNBUaf8FVZlf/pQte/X4eNWSikTj9nYeB0zxgYGVrFusdiZJD4L2fqKJh8QulBgYGo+2PqJcwFBTHNlYEp54Ec3sbPBDdwA5ATBk5uSLrPt5NVTk0tp3zzROte4TZtzvI1mBqbE567uea9Nm6S9+hnuuJLaG6KB5cfOvfGQcM975xrG51j5B4vwur4ofALLx+yCV4dQtboxsCkQMzAIWmxZM2CG3iel/gwMgqoEA4OgeVLk9WSfBAOD2hIMDILmSObVZL9fv8HAoLYEA4MgqFPBwKC2BAODIKhTwcCgttTIwJR5rK2t0fr6Om1sbNDm5iZtbW3R9vY27ezs0O7uLu3t7dH+/j4dHBzQ4eEhHR0d0fHxMZ2cnNBoNKLT01M6Ozuj8/Nzuri4oMvLS7q6uqLr62u6ubmh29tburu7o/v7e3p4eKDHx0d6enqi5+dnvQHUGNTgAQAALC7KD1Lp1RPYb7//NQAAgAVFGVgdwcAAAAD0AhgYAACAQQIDAwAAMEhgYAAAAAYJDAwAAMAg6cbAor+o901W6uvdG15HZl4N7O3LJVr67Ev6TjiXzOOX9Gn+S1F1W9/Sq8/8dlvpxyPsY3HBXADQBVM1MO1bhUIDe/PuI41WnTJ7QYqJwcBi2OT5cj0sm9jAbDvFbwz/hF49snNznLS/++qT7J6/oLfBuXV6kc3Hp199a49hYPUxcziOrSV68bVUz2DWAnO86EzPwFZH9DH7P21QyX8qZZVGH1XVN8I5n5kb2NdfZBvITeDtMLmB8WQqU78fISmrJ70FSiDpBlaTKcXScDCx5RqWjs+Yiek3DJ/Qi5fZesDAFpoZv0IMMVVhYP0zsAmT9BwAA+sQ+xo8nFNjdqpcrwcMbKHpmYGZJ7CPo1XhnE/MwIpXC5ZgA7g/H7LwT3k6ub9c99tyNkr+6dAl7ye/tqjjbrDUvkuuKXutYhLhuK7CGxe/B775+fXeeZOk/VeTPn6btr4HS9Kl/cnoPmJr47YntKWvzc8r3HuREqZtL5/zOgYWzG9kHYMxZXhjqBGvRVtZv6/0v8OxBuPqK9J6ZLhroP89hHsBU6NXBraq3x+yn4tFkAzMBLebJNWnNeeYJSS3LEg+KhEUCU74hK2vCz81h9da6vRdbErer7ofKYG6CGPN4ImLH4fJOXxlaOpkZZGnBd5m2bmU/iR0O2oMbG2kMj6v3pzYBOmuhx8/tl1nHcMx58j9je+Fn2frGImlWjHDxirdn1jWV6R7Z+PX61ERL2C+6Y2BGfNSbw/l85zQwEwC9JKUcD4wlgyTAMYJRR+zen5CyogkHd6WoWbf0cSXgnwNH7/UT5DYpHu0SUQnTHaO91EQtFOjP4bUR2qZj7QmZlzqOukJZmzgMoGpFP1XrKN43zVjJiHm4gbcN8brEKwpv5/SNQbzTg8MzH5xI/HJKycwsMpPl5GkqWAJhG+UoszdLJFkK11bu2+nn3HSLE/sY+Rkydv1jj1T4kT6La6JmW+OTUbunDTpzyL1kVZmEzrvj6+VXg9zjq9X3ADCOef9l66jGEuTxavCH2/cEPuGvh8+H/qe/bmHgYEZG5j978A+jmg1OFdObQMrO882h5QQgoQoJp1IMqnbt7ApzaZWSAnUpbmBRecuhh77+Dpp7GbcbMxN+8uI9lFaZpO3VyeS0O09KfgcTmJgXrlu32lHiqUJ49XgjGuCOe8SMz+RfaXnTYavFVgMZmpguriBeSnCV4hy4ubnpY3Ok42UEHgdMenk9YI+avYtJD5NUhKS56G8n6q5i8DGE4w9Ot6G/WVI81NZJo5DMrDxuPT1bH3bMDANH48YS6bNpvGak9d9O4CnFTPnVfE9Bk9gYIYGZp6+Un/mxWnyJQ5znm0Q+4nbLZMSAk8aseQcSya1+s77UefdtliiMxteTnz1DEyauwzVnzsW9/5zA+BPAkWdyBOOpbK/DOn++LjTykIzMG0LZfwap10z5gYGVrGOsViaJF4LbH1Fkw8MXSHeawX6GrbuYLGYnYHp/9A5puqfh0kGpsg3QnTTOhvawA1ATgh+cnPKbDv5xktNJqV9O/24fSiCxBW00czAFHzu6p732rRJ2auf4Y4rqb1WDCyDjydbI10nXytuKkXZeMxmvM2ewPSx0z9P1O5571zDeB2Tf9AIr+sP9sOCSHzcej3YuoPFohsDmwIxAwMAuFgDQ6IHcwgMDIB5JvJ6EoB5AAYGwBxjXk1Krz0BGD4wMAAAAIMEBgYAAGCQNDIwZR5ra2u0vr5OGxsbtLm5SVtbW7S9vU07Ozu0u7tLe3t7tL+/TwcHB3R4eEhHR0d0fHxMJycnNBqN6PT0lM7Ozuj8/JwuLi7o8vKSrq6u6Pr6mm5ubuj29pbu7u7o/v6eHh4e6PHxkZ6enuj5+Znev3+vx6AGDwAAYHFRfpBKr57AIAganlQigaA2pAysjmBgEARNJBgY1JZgYBAEdSoYGNSWYGAQBHUqGBjUlmBgEAR1KhgY1JZgYBAEdSoYGNSWujGw2N8DC36hb/oftZxXAxutLNHS8mv6YI+hfkivy8rIHk1Pi7D+UQP78JqW81/iW2MOsGcWV1M1MO1bhUIDWx298wxrVf9p5jQTg4H1UG4Csiy/no+0AgNrT7KBfaDXy83mGAa2uJqegemnK2tGsSewgPS/ETZzAxutZAl6mdrOz0PdjHrcmWH5+cckpZmZWItrBANrT7KBjWil4QceGNjiaravEDn2lSIMbGCbUc8FN68eCAbWS8HAoLbUIwNbJf0G8d0b4VxIzMA+vF7WyTT6Ckt4zcXzUp6svLacDaLPO9cr8n7ya4s67sZK7bvkmqocOkn/5n5XslTiSDIB24651r76SU0glXMgv0ri85LfZ5M1iqksdqr6K2TNvKxOZT/ONXndqrEPSYGB8TmT5sQ9XxEb2aSV75mENYKGoRkbmDUtq5QnrxzJwMxmd5OtSobOsQ1cL6BtmbhhiorCp0N9XfjpPrzWqk7fxYbi/ar7YQbDNFH/njEZqfaWszkM7z0fhxlj0J+kpDmoYWBev+lrJKkqdlL6M22462PvJTCkin7y+tJ8zYHqPIHp+HPLIjGaumdS1ggajnr1ClFXa/wlDhOIfAOMZQNVyAYmOY2DWh+zev4myRRJjrwto5p9RzdjtSbrn9dTx9k5da/OvetrijqpY2w6BiN/XvgYjHidrCBrN1yjUKbPsnuo7s/MQ3B73hgS+1Ftzql5KU32CjGMD2kd5HZS1ggakvr1M7AMU7X6NWJgYMInM1+R4FViAVydrDJFgl66Niut17fTj/nEmJUlbrBJ+9f95f2rOdX/VtfnBsPbMsdhn1ypY5iBgVXGTkJ/tg2zVhw7htR+7HXVyXyYqmdgNh7snBQ4k8jXPbpnUtYIGpR6Z2D6q/QfR7QqnHOpbWBl53WiGz+1VCYrpUhylK6t3bfbj5Uu1xttXFfSpP2buua+VCIwCcUkEX09r58nGGHMnpLHMGwDK2sjuZ+szZFNwqXtDVTpBibFVhgfwbpb6fKszSK2UtYIGpTm5wlM3ACu4k8KfAPoY1Yv2CSR5Chdm5XW61vYjFoNE22d/vMEoeZRncsv0Z9qs4P8f13ln3iF5h21O/8pdbICcY1CVcVOSn/VbST3Y9vU/04a/7CUbGBivKcbmJbXRsoaQUPSDA3sDb1jRjXpf8hsEqm74VWwj4/FRKuTnF9WnawyRcxEulapVt95P+q8f9K7P12XJbhJ+1fSddUXN9wnLVV3OZv7LHmEzdukEpmPPGGkjsHU4/fpzEtexjrTZalrxOaN92nuiY2hor+wjUx63srqCP0U9fN5dZ94h6/0JzBT5s67WTuhLJ8zNd/uOun4Gs9vyhpBw9EMDcz/BqJR2lOaQjIwJROgNsiDDZHJJswxLJgzpSQrpWIzZeTVpWsLpfbt9OP2ofD3ZtjGpP1r2cTv369NJiXJlM+9osn8jxP3uA3dNp+XSdZI6LcsdlL7C+aAnVeq7Eea99iaDlC1fgaWx2JONg98Lfic6WPnGj51KWsEDUPdGNgUiBkYBEH9lmxgEFRfMDAIgjoVDAxqSzAwCII6FQwMakswMAiCOhUMDGpLMDAIgjoVDAxqS40MTJnH2toara+v08bGBm1ubtLW1hZtb2/Tzs4O7e7u0t7eHu3v79PBwQEdHh7S0dERHR8f08nJCY1GIzo9PaWzszM6Pz+ni4sLury8pKurK7q+vqabmxu6vb2lu7s7ur+/p4eHB3p8fKSnpyd6fn7WG0CNQQ0eAADA4qL8IJVePYH99vtfAwAAWFCUgdURDAwAAEAvgIEBAAAYJDAwAAAAgwQGBgAAYJDAwAAAAAySbgws8c+p6GqJv9B3Xg3s7cslWvrsS/pOOAeGyLf06jOsKQDTYKoGZgwpV4UxrY7I/HJ6GNhgk93jl/Sp+1u+Mz796lu57sIAA0vlu68+8WJn6eW6WM9F7xf3GsuLr+X6YL6YnoFpQ7J/26vyCcz8aZV379Ke1BQzN7Cvv8g2yif06lE4NwFDNbA8kfiJwyTvmZnYlNYItI8xL3et1umFMqMKE8Mbi8WmF68Q9R+y/Dii1cRXjQoYWI/Qc9HDT70wsIFgzIp/0DGm9gW9dco4MLDFZvYGVutJbUzMwPhriODTv/CaiydevSmyT35eW84myZ82XPJ+8muLOu7mSu275Joqk5ikfzFhSCZg2zHX1nxFVjkHtj32yZvPS36fTdaIY+qGiVLs021TGqMw97ydOm3F7i+nMt7th4sCoY2Z48WTQ8IHI2luweIwYwMzrw4/jlYr6oVIBmY2s5tsVTJ0jqUNYcvcjV8klyKpCJ8QpcSeEV5rqdN3sSF5v+p+Ej6RNu1fSCSqvU+zOQzvPR9H2qseTdIc1DAwr9/0NQqQxsXa0/Pgth2ZK39MTjkbe/22wvurindz3o0XO7d9S/ixdYoZm0MxTw7e3IK5ZqYGpovVq8O8bCIDM5szHrxyYlSYTTDe6Pq4IgnFNh1vy1Cz76iBVTNZ/7yeOs7OqXvl5lHUSR1j0zE4daJjkOskG5jt07sHfS2fR5dwnP59jAnGFRBpq/T+hDF7mHUJkn/ynHRIbEwJBsbJn0jr7BkwXGZnYKllEQIDqwz2yIZWsA1UnTzCa7x67NrafTv9jF8RpSWdSfvX/eX9qznV/1bX54mZt2WOwz45qWOYhYGx+84I27fj0mvh4NSR514YV8O2vHaq4t2eD/rQpM1JZ8TWqYGBKcL5BvPKjAzMvDosU/FaMUJtAys7rzfQ+JNzZfJQRDaddG3tvoXNp8t18il7Kpi8f1PX3JdK6uaTrEm4+npeP0/GVQkjeQyzMTD3vkOzle4xHKc493l5cW3ztrx2yuYz5XyfiI21zvo56Hmq2CdgPpj9lzhcJnkCs0mn6pVKdYJJSB6KyOaSrq3dt5fcHBKS0qT958lUzaM6l/eln1Cy6/P/ddvQZRXjanv+U+rUS4Dj+9bXue2I897QwCZoy7+/tHiPn+8T8lhNXNU1IjuX7vqBuWWODCwPeDdhqWAeH4uJVic5v6w6eWREzES6VlGr77wfdd5tiyVkXZcl6En7L+qqL264yUPV/ewLepElB16/SBqR+cgTU+oYTD1+n8685GWTrJFkbPoev6RXzpgNofkWY+Jlwtz742relt9OOE9yvLP7tPdYzFFPMHPgjNWunbsOYh12L2KMgbllrgxMkQdwTvAJ1CbMMWyDZ6Qkj6LMtpNvGOnagtS+nX7cPhTuxjTn/DYm7V9jk4d/vzbxlnwi5nOvaDL/riHmbei2+bxMskZiv/k9CufyOcnJ+uZjkMZUlLvjathW0E5GVbwHa8Ku7xP6/pyx8nsx59218ePEgFeHi0Q3BjYFYgYGAABgMYCBAQAAGCQwMAAAAIMEBgYAAGCQwMAAAAAMkkYGpsxjbW2N1tfXaWNjgzY3N2lra4u2t7dpZ2eHdnd3aW9vj/b39+ng4IAODw/p6OiIjo+P6eTkhEajEZ2entLZ2Rmdn5/TxcUFXV5e0tXVFV1fX9PNzQ3d3t7S3d0d3d/f08PDAz0+PtLT0xM9Pz/T+/fv9RjU4AEAACwuyg9S6dUTGARBw5NKJBDUhpSB1REMDIKgiQQDg9oSDAyCoE4FA4PaEgwMgqBOBQOD2hIMDIKgTgUDg9oSDAyCoE4FA4PaUjcGFv0lvW+y0lBVfwtMMa8GNlpZoqXl1/TBHkN91gd6vTzN9Zp2+7MRDAxqS1M1MO1bhWIG9pFGq7y8GhhYD/XhNS17vxl8iZZfz7MVNzOYD6+Xs7lZoZE9HmtEK96cLY6B6bhnsaNYCScJggpNz8BWR5k1WXOKPYG5dfi5CmZuYKOVbIMtU9v5eagGlicgP+GYBDwzE5vSGk2qdAOrqZ7eL1fUwObMqKHpa7avEGFggQa5kfVc9PDTMgysl4KBQW1ptgYW/dlYNTEDM8nBPA0ogmQgvObiiVdvpqzQa8vZXPnThkveT35tUcfdlKl9l1xTZRKT9C8mVikp2nbMtTVfc1XOgW2P3Sifl/w+m6yRpNL2rEF7ZVZ1x6UkzrNWaGC8fT5/+TRV3m/lvI/HXrSV9fta/zscazCuGoKBQW2pBwbm690bVieCZGAmMbjJViVD51h6UrBlQdJQG7ioKHwyjnzaDa+1qtN3sZGln4lIiW+sifr3jMlItbeczWF47/k4zBiD/iQlzUENA/P6TV8jSbH2qvpoMq7mBsbPs3iI3W/SvNu+sjJv7oWYEMtqKPVnYO7YIEjSbA2MYw2t2bcQTeKLB72cGJXM5hknAn3M6vmJJFMkWfC2jGr2HU1Y1Zqsf15PHWfn1L3yJF3USR1j0zEY+fPCx2DE62QFWbs1DMy9NlNKmXhcMS7v6UwgMJXi2oq5Fu83dd7DY6Pw+rgBp0kyMK58jurEPrR46peBZayOPioHo1XhnEtgYJWfCs3mF8+zjZ+ShPg1uaRrs9J6fYvJrkYinqB/3V/ev5pT/W91fZ6weFvmWEqQvlLHsCgGJhmAmaO4gVXEg3i/qfNu+xIq+uONG2KqUgxMid87BHH108AS6tY2sLLzeiOPE0pKEjLXhElETAJ1+xY2rS7XiUtKfGNN2r+pa+5LJS6TTE3S0tfz+nlCq0o0yWOAgZUZWC5dzuNBut8J497IGVdZe4mqZWDiPEGQUe8MTFdt8gQmbH5f5ry0QXmSkDYyr5MVhMkik5wEavYtJCythOQxaf+5gah5VOfyS3TSzQ7y/3VlEnJVUmt3/lPqZAXiGkkKrs2UUiYeV4yrDQPT4vEg3u9k854rrztSY4+NJ1FpBpb4wQhaaM3UwN6888vM01dWM+GLHE2+xCEmWr3p/TJpIweJJGImsSRQq++8H3XeP+ndn67LEtak/SvpuuqLG/zT/XI29/mTmCebbCLzkSfk1DGYevw+nXnJy1hnuix1jaR5Y8kypUw8rhiXub8GBlYRD7H7TZ13aeyFbH1F/ENimgIDU+Nm8yyOGYKYZmxgptGx0p7SFJKBKeWBH91szkY0+IlMKSUJKeky205ePTUJlPbNE6Jzjdu0OSck4gn617KJ0L9f+0m+5JUOn3tFk/nPWioMMW9Dt83nZZI1kuZNuraiTDyuGJeZp2ZPYPrY3o97T7nc8965hnE/Vr4mkZipofAJzF9vQzzOIChXNwY2BWIGBkHQNGRNhhl6E6X+DAyCqgQDgyCoWpHXk00EA4PaEgwMgqBKmVeT7bzWg4FBbQkGBkFQp4KBQW0JBgZBUGf6F3/0LwFonVRpA9vf3y/45ptvNAcHBwU//elPNYeHh5qf/exnBUdHR5rj42PNz3/+84KTkxPNL37xC81oNCr45S9/qTk9PS0GrdwXADAc3KQDQFuop/oUtIH94Ac/mCn5oH/7/a8BAAMi37sQ1IbqxhMMDADQGDfhSOcBSEXJjacUwcAAAI1xE450HoBUlNx4ShEMDADQGDfhSOcBSEXJjacUwcAAAI1xE450HoBUlNx4ShEMDADQGDfhSOcBSEXJjacUNTOwH/4qu/RX9EPpnEKfd/SrH8r1LPmgpZsaOm9fLtHSZ1/Sd8I5sOh8S68+G3Z8uAlHOg9AKkpuPKWoloH5viQb2Ofrv8nO/YbWPw/PxcgHLd3U0Bm0gT1+SZ96v1F8iT796lu5Lij47qtPsrn6gt4G59bphTeH82xg5l7d2HnxtXvex8zZsOcCTIaSG08pSjewz9czW7LGFHsC03XUAxcrryAftHRTnfH1F9kG+oRePQrnJmCoBqbHHSQdk3BnZmJTWqO2STewmvTw/t2EMy43ceLGjhxPFv1B6RN68TKbNxjYwqLkxlOKWn2FqIt/s06fs/Iq8kFLN9UZMLAxei7KPzHPBBhY7+7fTTjS+QL7NB/e+/hDkZ43GNjCouTGU4paNLDPSb09/M36505ZGvmgpZsqXi1Ygg0gvObiiVebyMt1vy1no+SfDl3yfvJrizruBkvtu+SaKpOYpH8xkUpJ0LZjrq35WqtyDmx72T241/F5ye+zyRpJlLZnDdor49fm5xXu2O39en0zwxfnXRMaGJ+HWHxU3n/lOoznpGgr6/eV/nc41mBcEdyEI50vkOYtw50r/e+EPsF8ouTGU4paNLAfZiXq9aExsrHkn5W55IPmN2SC2022Khk6xyxxuGVBklAbtkhEwidhKbFnhNda6vRdbErer7ofKdGNmah/mzTcOqq9T7M5DO89H4cZY9CfRNIc1DAwr9/0NZKItVfVh54ft09hDv24DOeruYHx8yw+YveftA7SnGQI9yeWRXATjnS+QBoj6wcGttgoufGUovYMzP78S2n8MzBrZhWvFfNB+zdkEp+XTITz3ma0mI063vj6mNXzE0dGJDnwtgw1+44mqGom65/XU8fZOXWv3DyKOqljbDoGp050DHKdaAIXCK6tUeYjjd+aVnad9ARjDEyVywSmUvRfMffi/aeuQ3hsCK+PG3CIm3Ck84bxfAVzz/stXQswzyi58ZSi1p/AgleICV/syAft3VDlp0CzKcTzbKPzjVKUuZulzMCC5FCzb6efcXKrkYgn6N9LCmpO9b/V9XmC4m2Z47BPTuoYhmZgdrx6jRz4fOixmHN8DuIGYOYsbmAV8SHef+o62L6EdfXHGzdECTfhSOcVul8+bj02f468WAULh5IbTymavoEVrxbdMp980N4NVRlY2Xm2OaSNGyQuMTlENn3dvoVNaTa1Qkp0Yybt39Q196UShEmeJknp64NEYhNYVSJJHsOQDEy690hC12PJyjP4E9MkBuaV6/addqT7n3AfGJxxlbUn4CYc6by5j8i+0vcnw+cUzD9KbjylqEUDs99C5P/Rsvv1e7fcIR+0f0PhZpfOSxuSJwVp4/I6seQoXVu7byFBaRKSxaT95wlYzaM6l/elk2x2ff6/bhsmAVclsXbnP6XO1A1MXA/JwMaxqa9nY2rDwDR8POL9T7YOOXndt2rssfEIuAmHnzNzUxVHY/S81egbzBdKbjylqFUDC18X2p+BNfxNHCYRuBtWJZPxsZho9Sb3y6SNyzd3zExim75W33k/6rzbFktIZsP7CWrS/ou66osb/NP8Z1/Qiyw58/pF0o7MR56AU8dg6vH7dOYlL5tkjaR5Y8mwuiw0A9O2UMavcdo199vAwCriI3b/qeug+xJiSWPrK9zxVeEmHLdcHFMF+hq2PmBxUHLjKUXtGpjC+TKHVoV5KfJBSzeVb4To5nI2nsFPZApp4/pJyCmz7eQbL3XTl/bt9OP2oQgSjJSIJ+hfYxOff7828YqJ1sDnXtFk/l1DzNvgyUq6Tz53RZltx1sjad6ka6vK8rnKycak6+Rj0/fL7tHOQT43Zt6aPYHpY6d/bgDuee9caizGYqlYo0gMRXATzrg8jy2JePswsMXkv/xXRxolN55S1MzAWiYftHRzAIAusAZW00DchCOdB6AKGBgAYDIiryercBOOdB6AKmBgAICJMK8m46+TY7gJRzoPgERuWrlxNRUMDADQGBgYaAI3sDyOXFIEAwMANKZOsoGgmPI4ckmRNrD9/f2Cb775RnNwcFDw05/+VHN4eKj52c9+VnB0dKQ5Pj7W/PznPy84OTnR/OIXv9CMRqOCX/7yl5rT09NiwHtP/w4AMCDchANAE5Sk8vfv31eiDWxlZWXm/PjHP9Y3AkHQcCQlHgDqEIujFMHAIAiaSOqTMARNIhgYBEEzEQwMakt1YwkGBkHQRIKBQW0JBgZBUKeCgUFtCQYGQVCngoFBbakbA3vzLrv0Hb1xy1ZH9NG0KerdG6euAAwMgoYpGBjUlqZqYNq3CjEDi7A6ymzt44hWhXMuMDAIGqZgYFBbmp6B6SesjzRazf4tPYGJvMlqVT99KWBgEDRMwcCgtjTVJ7CCRANLffpSwMAgaJiCgUFtqUcGlv70pYCBQdAwBQOD2lJ/DCz5NaMBBgZBwxQMDGpL9WKJ6P8H/0EcKNSs3EoAAAAASUVORK5CYII=;" parent="1" vertex="1">
          <mxGeometry x="1088" y="90" width="392" height="387.46" as="geometry" />
        </mxCell>
        <mxCell id="WQEoA2Sx39wn5vHGqPxY-115" style="edgeStyle=orthogonalEdgeStyle;rounded=0;orthogonalLoop=1;jettySize=auto;html=1;" parent="1" source="WQEoA2Sx39wn5vHGqPxY-113" target="WQEoA2Sx39wn5vHGqPxY-112" edge="1">
          <mxGeometry relative="1" as="geometry" />
        </mxCell>
        <mxCell id="WQEoA2Sx39wn5vHGqPxY-113" value="&lt;div style=&quot;text-align: justify;&quot;&gt;&lt;span style=&quot;background-color: initial;&quot;&gt;&lt;font style=&quot;&quot;&gt;&lt;b style=&quot;font-size: 14px;&quot;&gt;This is am excel file that will be used to setup the &lt;/b&gt;&lt;span style=&quot;font-size: 14px;&quot;&gt;&lt;b&gt;custom Attribute&lt;/b&gt;&lt;/span&gt;&lt;b style=&quot;font-size: 14px;&quot;&gt;&amp;nbsp;for a &lt;/b&gt;&lt;span style=&quot;font-size: 14px;&quot;&gt;&lt;b&gt;specific&lt;/b&gt;&lt;/span&gt;&lt;b style=&quot;font-size: 14px;&quot;&gt;&amp;nbsp;job serves&amp;nbsp;as a GUI&lt;/b&gt;&lt;/font&gt;&lt;/span&gt;&lt;/div&gt;" style="text;html=1;strokeColor=#d6b656;fillColor=#fff2cc;align=center;verticalAlign=middle;whiteSpace=wrap;rounded=0;" parent="1" vertex="1">
          <mxGeometry x="1540" y="95" width="320" height="95" as="geometry" />
        </mxCell>
        <mxCell id="WQEoA2Sx39wn5vHGqPxY-116" value="&lt;div style=&quot;text-align: justify;&quot;&gt;&lt;span style=&quot;background-color: initial;&quot;&gt;&lt;b&gt;&lt;font style=&quot;font-size: 14px;&quot;&gt;&quot;customAttributes&quot;: {&lt;/font&gt;&lt;/b&gt;&lt;/span&gt;&lt;/div&gt;&lt;div style=&quot;text-align: justify;&quot;&gt;&lt;span style=&quot;background-color: initial;&quot;&gt;&lt;b&gt;&lt;font size=&quot;3&quot;&gt;&amp;nbsp; &amp;nbsp; &amp;nbsp; &amp;nbsp; &quot;file.directory&quot;: &quot;{{file_directory}}&quot;,&lt;/font&gt;&lt;/b&gt;&lt;/span&gt;&lt;/div&gt;&lt;div style=&quot;text-align: justify;&quot;&gt;&lt;span style=&quot;background-color: initial;&quot;&gt;&lt;b&gt;&lt;font size=&quot;3&quot;&gt;&amp;nbsp; &amp;nbsp; &amp;nbsp; &amp;nbsp; &quot;hive.tableName&quot;: &quot;hive_table&quot;,&lt;/font&gt;&lt;/b&gt;&lt;/span&gt;&lt;/div&gt;&lt;div style=&quot;text-align: justify;&quot;&gt;&lt;span style=&quot;background-color: initial;&quot;&gt;&lt;b&gt;&lt;font size=&quot;3&quot;&gt;&amp;nbsp; &amp;nbsp; &amp;nbsp; &amp;nbsp; &quot;hive.databaseName&quot;: &quot;{{hive_database}}&quot;,&lt;/font&gt;&lt;/b&gt;&lt;/span&gt;&lt;/div&gt;&lt;div style=&quot;text-align: justify;&quot;&gt;&lt;span style=&quot;background-color: initial;&quot;&gt;&lt;b&gt;&lt;font size=&quot;3&quot;&gt;&amp;nbsp; &amp;nbsp; &amp;nbsp; &amp;nbsp; &quot;hive.statement&quot;: &quot;{{iveStatement}}&quot;,&lt;/font&gt;&lt;/b&gt;&lt;/span&gt;&lt;/div&gt;&lt;div style=&quot;text-align: justify;&quot;&gt;&lt;span style=&quot;background-color: initial;&quot;&gt;&lt;b&gt;&lt;font size=&quot;3&quot;&gt;&amp;nbsp; &amp;nbsp; &amp;nbsp; &amp;nbsp; &quot;hdfs.directory&quot;: &quot;{{hdfs_directory}}&quot;,&lt;/font&gt;&lt;/b&gt;&lt;/span&gt;&lt;/div&gt;&lt;div style=&quot;text-align: justify;&quot;&gt;&lt;span style=&quot;background-color: initial;&quot;&gt;&lt;b&gt;&lt;font size=&quot;3&quot;&gt;&amp;nbsp; &amp;nbsp; &amp;nbsp; &amp;nbsp; &quot;file.checkForDuplicate&quot;: &quot;{{True_or_False}}&quot;,&lt;/font&gt;&lt;/b&gt;&lt;/span&gt;&lt;/div&gt;&lt;div style=&quot;text-align: justify;&quot;&gt;&lt;span style=&quot;background-color: initial;&quot;&gt;&lt;b&gt;&lt;font size=&quot;3&quot;&gt;&amp;nbsp; &amp;nbsp; &amp;nbsp; &amp;nbsp; &quot;file.name&quot;: &quot;{{file_name}}&quot;,&lt;/font&gt;&lt;/b&gt;&lt;/span&gt;&lt;/div&gt;&lt;div style=&quot;text-align: justify;&quot;&gt;&lt;span style=&quot;background-color: initial;&quot;&gt;&lt;b&gt;&lt;font size=&quot;3&quot;&gt;&amp;nbsp; &amp;nbsp; &amp;nbsp; &amp;nbsp; &quot;controls.fileSize.check&quot;: &quot;{{True_or_False2}}&quot;,&lt;/font&gt;&lt;/b&gt;&lt;/span&gt;&lt;/div&gt;&lt;div style=&quot;text-align: justify;&quot;&gt;&lt;span style=&quot;background-color: initial;&quot;&gt;&lt;b&gt;&lt;font size=&quot;3&quot;&gt;&amp;nbsp; &amp;nbsp; &amp;nbsp; &amp;nbsp; &quot;controls.fileSize.variance&quot;: &quot;1&quot;,&lt;/font&gt;&lt;/b&gt;&lt;/span&gt;&lt;/div&gt;&lt;div style=&quot;text-align: justify;&quot;&gt;&lt;span style=&quot;background-color: initial;&quot;&gt;&lt;b&gt;&lt;font size=&quot;3&quot;&gt;&amp;nbsp; &amp;nbsp; &amp;nbsp; &amp;nbsp; &quot;controls.fileSize.minHistory&quot;: &quot;5&quot;,&lt;/font&gt;&lt;/b&gt;&lt;/span&gt;&lt;/div&gt;&lt;div style=&quot;text-align: justify;&quot;&gt;&lt;span style=&quot;background-color: initial;&quot;&gt;&lt;b&gt;&lt;font size=&quot;3&quot;&gt;&amp;nbsp; &amp;nbsp; &amp;nbsp; &amp;nbsp; &quot;controls.fileSize.maxHistory&quot;: &quot;24&quot;,&lt;/font&gt;&lt;/b&gt;&lt;/span&gt;&lt;/div&gt;&lt;div style=&quot;text-align: justify;&quot;&gt;&lt;span style=&quot;background-color: initial;&quot;&gt;&lt;b&gt;&lt;font size=&quot;3&quot;&gt;&amp;nbsp; &amp;nbsp; &amp;nbsp; &amp;nbsp; &quot;controls.rowCount.check&quot;: &quot;false&quot;,&lt;/font&gt;&lt;/b&gt;&lt;/span&gt;&lt;/div&gt;&lt;div style=&quot;text-align: justify;&quot;&gt;&lt;span style=&quot;background-color: initial;&quot;&gt;&lt;b&gt;&lt;font size=&quot;3&quot;&gt;&amp;nbsp; &amp;nbsp; &amp;nbsp; &amp;nbsp; &quot;controls.rowCount.variance&quot;: &quot;0.5&quot;,&lt;/font&gt;&lt;/b&gt;&lt;/span&gt;&lt;/div&gt;&lt;div style=&quot;text-align: justify;&quot;&gt;&lt;span style=&quot;background-color: initial;&quot;&gt;&lt;b&gt;&lt;font size=&quot;3&quot;&gt;&amp;nbsp; &amp;nbsp; &amp;nbsp; &amp;nbsp; &quot;controls.rowCount.minHistory&quot;: &quot;5&quot;,&lt;/font&gt;&lt;/b&gt;&lt;/span&gt;&lt;/div&gt;&lt;div style=&quot;text-align: justify;&quot;&gt;&lt;span style=&quot;background-color: initial;&quot;&gt;&lt;b&gt;&lt;font size=&quot;3&quot;&gt;&amp;nbsp; &amp;nbsp; &amp;nbsp; &amp;nbsp; &quot;controls.rowCount.maxHistory&quot;: &quot;24&quot;&lt;/font&gt;&lt;/b&gt;&lt;/span&gt;&lt;/div&gt;&lt;div style=&quot;text-align: justify;&quot;&gt;&lt;span style=&quot;background-color: initial;&quot;&gt;&lt;b&gt;&lt;font size=&quot;3&quot;&gt;&amp;nbsp; &amp;nbsp; },&lt;/font&gt;&lt;/b&gt;&lt;/span&gt;&lt;/div&gt;" style="whiteSpace=wrap;html=1;aspect=fixed;" parent="1" vertex="1">
          <mxGeometry x="1960" y="100" width="400" height="400" as="geometry" />
        </mxCell>
        <mxCell id="WQEoA2Sx39wn5vHGqPxY-122" style="edgeStyle=orthogonalEdgeStyle;rounded=0;orthogonalLoop=1;jettySize=auto;html=1;entryX=0.5;entryY=0;entryDx=0;entryDy=0;entryPerimeter=0;" parent="1" source="WQEoA2Sx39wn5vHGqPxY-117" target="WQEoA2Sx39wn5vHGqPxY-123" edge="1">
          <mxGeometry relative="1" as="geometry">
            <mxPoint x="1280" y="1233.2001953125" as="targetPoint" />
          </mxGeometry>
        </mxCell>
        <mxCell id="WQEoA2Sx39wn5vHGqPxY-117" value="&lt;div style=&quot;text-align: justify;&quot;&gt;&lt;span style=&quot;background-color: initial;&quot;&gt;&lt;b&gt;&lt;font style=&quot;font-size: 14px;&quot;&gt;A JINJA template that will be populated form the excel sheet&amp;nbsp;&lt;/font&gt;&lt;/b&gt;&lt;/span&gt;&lt;/div&gt;" style="text;html=1;strokeColor=#d6b656;fillColor=#fff2cc;align=center;verticalAlign=middle;whiteSpace=wrap;rounded=0;" parent="1" vertex="1">
          <mxGeometry x="2070" y="450" width="330" height="90" as="geometry" />
        </mxCell>
        <mxCell id="WQEoA2Sx39wn5vHGqPxY-121" style="edgeStyle=orthogonalEdgeStyle;rounded=0;orthogonalLoop=1;jettySize=auto;html=1;entryX=0.697;entryY=1;entryDx=0;entryDy=0;entryPerimeter=0;" parent="1" source="WQEoA2Sx39wn5vHGqPxY-119" target="WQEoA2Sx39wn5vHGqPxY-117" edge="1">
          <mxGeometry relative="1" as="geometry">
            <mxPoint x="2350" y="580" as="targetPoint" />
          </mxGeometry>
        </mxCell>
        <mxCell id="WQEoA2Sx39wn5vHGqPxY-119" value="" style="shape=image;verticalLabelPosition=bottom;labelBackgroundColor=default;verticalAlign=top;aspect=fixed;imageAspect=0;image=data:image/png,iVBORw0KGgoAAAANSUhEUgAAAloAAADUCAYAAABEfo1rAAAAAXNSR0IArs4c6QAAAARnQU1BAACxjwv8YQUAAAAJcEhZcwAAEnQAABJ0Ad5mH3gAAB31SURBVHhe7d29kuu4mcZxl8tVduTM5SoHEzhx5GiidbqXsFFHeyNTpavYSOlkuoizijY52VzAhhNtOLGW+CJfAC++KKIltf7Br+Y0QYIASBHPkN3U73744Ydbv4/b+fr9dj1/rMs+ztfb9+/X2/ljK/9+Pd8+ou0GfJxv1+/xPn44XW6Xk1inxm5/uZ2KZaGtQd6nh6q1f2HHuza+oY/nizgum3T70yU+Xq1y8/N2LE63S3Ks6uXKWC/HVrbT7v9y2spTQ8f3gPMxYcej1r5F8xjdo3F+OL7fjXZW2ePS2s+id71Dtftnj1OtXQ9p9wRP1o/o85F9Hjv89M/br7/9++3Xb3/flv384+2Xn8U6A37+RdRl6/7X7dtP8Trffk3290Si9i9++vav22+//vP2k1gnEvr47cfbb0pf0+1N/fLnVrn5WR6LX5Jj1SrPxno5trKddv+//GMrb0jHxzJjsLT5m1Z2D+X8Mf2pHg/v7qAVL3MTa3coyhwwQaht9NQPfmX9h6i3pz6Jm239RTcJMI5yfOyYhGWt8lwrVMTlpfoHgtbw8U3D3n0eHrS6ztd7P4eLpw5an9i/Z3d0P+6sz3w+1nNT/TzW2YlrYKKtSifGVwtaSntbQevbrz/efjb/TgJMYIJPFFrtPrZlrfJUqz1puV7/1s6hoFU4nqYOezzNGHSEoG6F/aVhUnNA0JITmfv37kmm+4Pp2lG8IJiLhdYGtf68T+7/hjfppBaXx21Yg4K9YPl1kom5VX+x/YvuSdzuP+mrchENbbFtaJWL5UGrPWm5/Xmpz02S/jiK8VnHz/+sKo1P4fyxfRB11o5fXq6cG0pdpj+hbznZpnDulssup3idkfPDqQWR2v4F5VwI0vEpnTNa2Xp8bf1+ndbxzpT7Fx8Dvf1Wd/8qdSh6+teqPx3ftJ+zx9+NYeG8aHDbmn3mn+2mwkSmsYHsNx8qCrJJu1B/GrTsXZxl8gzSSTQuj9uw7tMGHb9OEhxa9Qda6LDLesKDFrTssri9oS1rMKmVi+VBqz1puf15qS+ErTRYa30uKa1r6rT1K8fblf3dnz9536rlhfPHjpFoR3p8TVsOenQoPsx2svMf4J5AINkPf88HPEwW+UVKlmcX4o6gZftTabe9iGXBYWuH+1m2LZ4UWvU7hfYvtvoFrT5tLM2ydd0tINs+hYtvrTzUs9rWycsq5eIcScvy/mnHeOT4xses6/hp4+nJsUjrCsp1+PNWjmV0nHz50u+1b+pnotB/u67bPpbUX9y/YJfnY5/1OVmva3xtm8Ky+PNR1exfum7e/lZ5q/0trf4161/aJcciLf+08fdjXf5sl2zn8PC2WjgocBNhPWi17p4Epq4wmbaCg51Es+CwtSMECblMtqNVv5S1f7HVL2j1lYKWWDfciVmDQqvcL5fCOlqZoZbb4+Danpbl/SsfY218XN3bNvLYhp9Nvet2yThVy2tBK4zbsr5sUzg/dgUt90H15IdeqkymRfbDrVw0d7AXlDQc9AatYhvMRSktiy9U6YVtrP6N2v6wvDTmkjaWZpnZNikzF2fbvlZ5qMezF/Worx3ltm4/XuEcqfSntA91fBpBq//45XUEtq7L2X0OCu0uHqPm+RefK7I8nQhL54dTmDw7zv+VPU7puCvjF63XO76y3sL+qwr9k9T2C73969mXUO/fjvqjY6ZsP3P8w+ezeJ6l3L6+X5awuG43cHyTSe8uSWiweoNWpQ2/KGVywg8TqwwHI/WvtPYv7PbK8ow2lqHOpMwEBdu+Vnmox7MBoxKE1HJbtx+vELgq/SnuI7Q1WW7HR4TCdLzS4BWWheNXLe8JWim/zQGPDhvshSD98BcUJsp9lItO50TjLkbLhcISF6Vw4VFEF7JKcDCK9Ue0i2Zf/ZY27nbZss9oe9H/Vvm6LASg8rHSy92FOKrLj2nfRCONHV970e84fkbt+Lh+5dtIxWMUTYobF95Kk5I+/qXzYytT2tfcv1iurauNr1yvY3y7z9+qQv+kQl+r5Z3nR021f131u77F5X7MP338Q1tK51ksqtu35Xo+2fO3a/wKE9kecvJcdQQtw4UhM8Enk3wIBoooaFWCg1GsX1Dbv+ip30rC0rZs2Wey/dr/VrlY5gJQ+ViVyrM7XH5Mtb5u5fox07bJ2mr7tI2x1he5rFpeaYsMd6aP2/F14zA/aPVcFFdu3bH6y8wEkk/q6UXD9anUPjsJrRcm0776RWd0Ionrz8vSseiu316A07Zqx0L2qVXu2DZUxqFY7i++ef2V80Pth9N1fKN95n1pSY+P/VmENq3dxWNUOf9cP7TPV3l8tPPDKWzT3L9YXgwiyfbReu3xHf186BrnjKG1X1LLx8+PVL1/rfrdsYhCrxzzzxx/W2/p/NLZukXb7c9LHdXjkFAfNY2yE6ISYAYnbSO9W6Hd0ZK6g5Cn3g0ptX9xV9BaaI/bZJ9a5YYLiuVxKJbbfmn1l8df7Uf1+MqAswn1a0FK7r9arp0/SZ/S0BW2mR603Iet/4MWPpzRRXT50McXVX9BatVrL0xynfxC1mqfLU8n2sqFKl2/pbp+1v6B+u2FMr/o2vaLOtUgUSkPF+DiJFctL41/aXJwE2o08Ujp+GQTUb596/il1OMf6iv1tTD27fMv/3zF5Qnl/HBcv/NjMHD+2z6ky5P2+f5Xz5dEOp77lPonqO0XCuWj50eq1b96/a5f2/H3x2s9lz5n/N05UfpMVtj2KJ+/2nFIuEk6mXiXyTb6eWEntEIYMeGlFNbSidDtT69nLRfBRg1GQrp+i7Z+rf3d9ReClm2/6G/an1a5qzc5PlKjXB//cmgzIScKLovS+JTGxvbB15EGKbf/rb/VciVope0zP8vt3Xl6dNCyF37zwZL6P2Sr9QLiZRNtuAC16nbrxRfk8OEP4jrshapS3lqn60Jb2DaXt99dBMt15PU7so5oHaWt5fJ07Dau/la5tk58QU/bHx+7VDI+yvmnnau1Y1ArW8uzoBIvW9db69Amn0DWH85roTopaue34fahj93g/i3R/miMl22VsFcbw56Jvq3Uv1b7O/q3aJ0DNT39q9afXPsuJ9PXTxz/QgDtlV6ftr+gjce4yk/Wq2SiNdwEpgek1l0nOzmu4jpc0CiXt9ZpBaGe+mvtdxN/uY68fkcGn2idUjAplMdjtwn1t8rzdeK+pu3XAltpfMy2akC155MbI3feCEn/quXKHbNsf8m5+8vP/7DtHQxaL8hcOO6+sD/Qq7d/ti81Pm5SKv6PjIbzA1jZIKIEs1fx6u2f7d7xSe9YpVrle339oFX9v/tX8Ortn+0rjc+OoMX5AazM3ZLSY6tX8Ortn+3e8SFoAW9vT9D6KlxglI+dUo8Nk8/ePgAtBC0AAIAvhqAFAAAwCUELAABgEoIWAADAJAQtAACASQhawIuwL6LMXt67GHiXVvxCyf0vpgQA9CFoAS/iiKC1MtsQtABgOoIW8CLs3SiCFgC8FIIW8CLk99RFocuEJhHA4u+6K4SpWtDKvjNSrpd+X6D4Djsf+M5+/9fzaV1Xvsyzq30A8EUQtIBXIe5cubDiQooMXXa5uLvlfidLCTOloOVDlv6Wcx+y5F01W48PW/bf7s32br+uHvnIs7t9APBFELSAV7EGrdPt4u8cmSCzBS3zNTHiDpNV+C7EQtCSoShjQ1hav/jaIFGnbZMPVLvaBwBfxI6g5S6M263/9CJJOeWUTym3QWcJMua/S3AxASbcPbJBJ3vkp9QRqEGr8V2LrXDWClpd7Xvi8aeccsofXP6auKMFvAoftM5LcLEXH/Ozv7PlwpG5SKV3jAqe5o4WAHxtBC3gVax3hEJY2X4xPfxfX/o7UEWFoOWWl/4vMv8dLRuiQj3NoDXQPgD4IghawMvwt9VFULHBJQlGYdkmBKotmMWSu0w+bG1kIEtv7YuyjqBllNsHAF8PQQsAAGASghYAAMAkBC0AAIBJCFoAAACTELQAAAAmIWgBAABMQtACAACYhKAFAAAwCUELAABgEoIWAADAJAQtAACASQhaAAAAkxC0AAAAJiFoAQAATELQAgAAmISgBQAAMAlBCwAAYBKCFgAAwCQELQAAgEkIWgAAAJMQtAAAACYhaAEAAExC0AIAAJiEoAUAADAJQQsAAGASghYAAMAkY0Hr43y7fv9+u54/tmWny+17uuzBTpfvtk3O9Xb+0Ne7h9vH5XZSygAAAIxdQev79Xz78Ms+ztenClo2AGXtGwtbdhtRh4agBQAAWsaClrl7db3cLtcQXD5u5+Xnswkml1O+/mezQTANVaaNY0GwJ2gBAAC0jAetJVCZIHI5LT+bYON/lkErfnQn7/q40HM5uf+GdWxdojwKRWp40pUCUlhe2n/Yn13PL4tt+4/X0e5oxXXHd9P0/W/9d+Lx00Ji2J47agAAPLNdQUsGLBMSbPjwQUt/dBcCwRYwQrjQyu8KWiLwRctF0IrCjf0ds7j+sH71jpbdLg06vn7Zhqj+Vv87973WQ9ACAOCZDQWtLciYif56u17dRL8tP90uWSgyy0KwcAGhHKRa5XVbO5TlImjFd4jcsjV4ifWHg5baVrnPdv/svjv7CwAAntvOoKX82wQZGxrcHZvUpwUtJSBtbVXqV5aV6oloQUu9y+Xv8pX2r/TP7n8dO+5aAQDwqnYHrYgJGPaOkXZHS5obtPR1ZZ1K/dEdN2d30Nqz/0b/0kexAADgdRwatEwYqAeDdtDY7v6Yn10I6n+U5uqX+3d3h0Igyvcfl3s2RDX2qd698vsXY9Tafyto6aHP7yfbPwAAeCZDQSsOQYIIWut666MvGQg6gob9OWxnlrfukqVCCPGikJKUZeWbuA9h/8r2UbkRwmEgw1C7/+Wxk0I7CFoAADyzoaD1+pSgAwAAMAlBCwAAYBKCFgAAwCRvFrQAAAA+D0ELAABgEoIWAADAJAQtAACASQhaAAAAk+wMWuGFmSMvEu3j3qQuX9i5UF4q6l7smb+wM96eF3oCAIDHGQ9a4U3m546vqdlB/8qZXClordSvyAEAAPg8g0HL3Mny4aXn+wB36A1aTQQtAADwYPt/R+tBQav70WAlaMXfJ5ivk37fIC84BQAAe7xc0Fq17lgVym2IEvW74Latd9gdNQAA8PaeM2iJu0nW5ZSvuytonW6XrM1m2ffb5eR+dvs/vl8AAOD9vNcdLfuL/EmI80LQMuKwV9kHAABAxZs9OtTuaNWljxoBAAB6TQpa7nHcniA2N2iNB6fu9gAAACSGg1b6F3mBfPQ2L2iFF6Wmwn5a5U7ehy2Q1coAAABG7L+jBQAAgCqCFgAAwCQELQAAgEkIWgAAAJMQtAAAACYhaAEAAExC0AIAAJiEoAUAADDJjqAVXkbqaV/4fIf4ewaDnW+A52WjAADggYaDlgkw21vgXei6nj+ide4x/JU3O4IWX6sDAAA+w92PDo8OLUcFrRqCFgAA+AwvGbRq30dot1eW52XS+HcyAgAAtNwZtCY9OkyDkAheNmTJIFa6o1W503V0OAQAANDcFbRm/MJ5PQSZYJfcfSJoAQCAJ7U7aLmQdfwjt2oI+jjfrgQtAADwInYFLRtUJv1eE0ELAAB8FeNBywYY+YoHTXjX1ngYq4egj9v5Kn4nzLdlNGi5sjlBEQAAIBgMWsnLSoU4eN0ZtJK6o8Bk72qJ5fbnUO6CWL593o74LxcJXQAA4Hh3/TI8AAAAyghaAAAAkxC0AAAAJiFoAQAATELQAgAAmISgBQAAMAlBCwAAYBKCFgAAwCTDQSt7oeiRX2WjfcVO+jb4hrh9hTfDAwAAfII772iNhaCmA4LWqvYVPAAAAJ/g7keH9qtsLie1bBhB66n97W//dvvTn/779te//odaDgAAYncGLfedhvUvmB7QGbTi7ykshCk1aLm6Lif331DHYXfkvrg//vF/br/73e32hz/8r1oOAABiu4KWDDqHhhQbtLa6pbAfu2/xe2Hud7KUsFUJWqa+NRza9fhS6R5/+ct/3n7/+/+7/fnP/6WWAwCA2DGPDo/6hfjmHS1zBy0tL9xVqwStOByGu1xyPQAAgPvdHbT0cLRTK2hV7njdG7TiZQAAAPc7KGgpj+722HVHq6A7aB38e2YAAADenUHLBZf8rw5deBn+3adm0Bp4VNkZtIq/4wUAAHCnwaDlg5V4ZKc/cpsXtIz4rw6NEJTy9jmhTqX8yBeuAgAACPc/OnwpeWgDAACYhaAFAAAwCUELAABgkjcLWgAAAJ+HoAUAADAJQQsAAGASghYAAMAkBC0AAIBJ7gha4eWfgy8lbchfRmq83pvbXT8+ud32bfjp2HnZ2/sfw72JP7SLN/IDAL623UHLTpjXq/Im92O4+p/zre09bXtI0BKeefws9SuSnKdvOwAAnXYGrfDlzgNf8jzo1YPWoxG0AAB4vF1By96tsY+iPjtouceVl1N4bOlcTvk62+MpTzw6ix9P5pN9+vgyvODUtkks32xjEK+jBYm0fXL8evrXpxZWiv034WfZ5uzLr+fT2g7XBr196Qtg0/FT268ErZ7xNVrHDwCAZzEetOwXP4fJ7TFBy0ywYfJ2k/M22dpJWGxnf05DlihPt68FlKBnHf2OjW+//H0pu14Yw3b/epXaWO2/bYsLTm65a8c2hnn74va7n2WwKrZfHR+n1HajdfwAAHgmg0HLTbTbHYzHBK3oDooNfnFQkRO9ndDXerT2mmVpsKn3qRYEVlqQiNoayD61+tdPb2Oj/6LNcnv7bxG0ovZpYy6V2r8raLWPHwAAz2QsaEWhxdAmvmPok207iMR3PNz66x0ku667I5OSE7Xd91qWh4FyEBC0IFEIF+kdo2lBq9X/O4LWtswFn7j+g4JW5/EDAOBZDAUtGwiUSc5qBY9B+mTbGbSK7RoPhumjKqMYBCQtSKihSfZpctBq9X9X0JJ3lFz5GmyNUvv3BK2JwR4AgBl2/TL8pjTxucm39QiuRp9sW0GkPRFrwalGbYcNCY2+qUEiDyK2/nW92UGr0f8dQStuvzvuW7nvr9b+StCqje/o8QMA4JGeLmhld6Ss/iDiJv7S9k6+j628VibF64X9h2CRkuMQxiaQ9c8PWkaxj51BK9o23YetYyu/nOQ50jM+jj6+WpmhHyMAAB7tzqD1ZNRQ4id3+TgLOylBEAAAFH2toKU+ckofZ2E/ghYAACO+VtBaaI8Ov0YwSB855ub/5R1BCwCAEV8uaAEAADwLghYAAMAkBC0AAIBJCFoAAACTELQAAAAmGQ5a6gtBD39HVXixZeGdWNH+Wy+zNPpfaKn1L/1rvmwfSf+LL9u07/lalkUv+XR96vqLweRloJFPek9YPD68KBQAgJp9QWv2pG4CyRJGzktgiV8lkL9ewE38aSDzywtvRu/nXqmwhSAf9Cr12pAlyqP2+ReqXq+yvQNBSzimf3cQb5FXyyse3nYAAD7JUwYtsw8bpsxkHk3IedDSlx01madBK/05UXkzvW1fKD8v/VrHkKAFAMBX9YRBSwSPLLhooUp/8/vMoFWqt7TPsHzrj6knhJTjg1b86FKEIR9czZ1CU3Y9n+y+zb/d/kNb3H9DHenYrnUVglb6aDX0zbZZLN/E4bTYfgAAXswBv6N18ERow0gcQraJPg9arj15G2pBpJ9yB8u2z/c9qd/uUwmhoS0yOJplcbiJt2kp9U9/dOnHx4YjN35uuduv3ca2ewtYa3vsNnEQ2pYrx35ZLvsS7V8uKxybavsBAHgxw0Er5e4+HDcR2olVhJV4Uo7vtFiFCbs2mfdTglYgAlcIfmnbg9AWGbTsv237jgxapr1pKBJ9EOFIbr+1Ow+yxSBYClop2We/TG+70Wh/tC4AAM/v7qClTaT7KRN9NKFrQUBXnsxHdEzytn2u/6V9rkEmGivTF/PvQpBpUPdl60+CqHdv0MrGvBi03JjF+4/Pj9I4Ndufrg8AwJO7P2iJoKGWj2hOtE8YtOQ6augUbU7Ll7ELvyc1GiT0/pm2VI7FrqBVGAM1aLnto7t6ypiUj02j/QAAvJg7g5abhKOJVS4fnDRLE3D6O0Qzg9bpLLYp3rXZ2P2s6/igIfYblWehYxmn62VxVNDKf8cpsiNoxf3T69qWu+O+be/HIz0P7Lb6uVFtPwAAL2Y4aLnfydroAWFf0DJ1qyHKT+o9QSttn6MEhZLorlrS/qgsSOsO4cKToaF0d2dZ76igZeRj4NvYGbSibaN9KOWW6JPdx1Z2OZlzIT8P4jbG5cX2AwDwYu5/dIgvpB1kAQBAP4IWBIIWAABHeqOgFR5nlo0+vjvWM7SPoAUAwJG4owUAADAJQQsAAGASghYAAMAkBC0AAIBJCFoAAACT7A5a0UslD3yTd3iBZ2z8hZWufbzoEgAAPM6OoOVfQ5B97c4xam88H1ELWkftAwAAoGY4aG1f16KX3+szQhBBCwAAfIbBoOVeaDnzxZnVEBS+a1AGPb8svGTTbl945BiXSfl38QEAANxrMGj5Lwg+xV+ufGTwUsOQDF4+WLl9useY6pvMxRcop2Xc0QIAAJ9hR9BKgo8NNMfdEeoKQT5EXczvYZUeYxK0AADAg+27oxWFqmO/H683BDX/qpCgBQAAHuyA39E69ve2ekJQWOdUW5egBQAAHmwwaCkhRQ00/hHjjkeKzRBk9xfqdSFPfXxYCVpxHQAAAHMMBy0jelmpGmbuDFpr3ck+bEBKHlNGf4nog1e0rZG3I+4DoQsAABxvV9ACAABAG0ELAABgEoIWAADAJAQtAACASQhaALrEf2CS07YBgHdH0ALQRQtXkrYNALw7ghaALlq4krRtAODdEbQAdNHClaRtAwDvblfQil/2uSh9sbMifiFp4c3tuFvzuyCnCy+t9QbOkcc59ns7v5rtc6vTtgGAdzcYtPyb14/4nsDaV+Tc6at/l2FP/x4btCpfjfQEyuNH0KrRwpWkbQMA724waLm7FId8gTRBa7fn79+B58kEBK19tHAladsAwLvbFbT67qYEhTBVCVrN7cP3Gybr2Ak0Wh6MfZdh+mh0CwxuIr6c/B2brLxHvG3cNr3+MPH39C9eRxvf8f2PB6Zy0LLtM3e6/PdWWtGdr0r7zDbLuXf2x+d6Pq3r9rSxPX5u37JeI6276/zWdLa/XH/r+IT2p98FKo/xtt5Q2xdbm3TaNgDw7sZ/R0uGHCVw2UlCLHeTm3JBLwSt5vZ+/7WJ1W6jtK3L0i5Zd7z/bYIL6xT7p/Lby2BhxyGe6GX9cbnT1T91fMf3P9Q/W5fbPra139VnloU6ZShrtM/Xb4JEqMdsZ8+ZKKzVlcev3f/u81vT0f56/a32uXKCFgA8j12/DG+JwLVd2M2kmV7UC3c37KSTXujb2/dMqnby2Ru0UtFE1TuRFVQmPVenUr9fJsevq3/a+O7Z/0j/VoVjvoiDgSH22Wqf6JMcA/vvA4NWuf8D57em2f5W/a32HXX8dGmwSmnbAMC72x+0Ajt5+Au5vajrF+FsIioGgdr2ykSiKE+kPdzEFu//oIlM6/NiC49a//JlXf3T9rVn/7sm6nL4qLa91T5RrgeVeLuSchsa/R85vzWt9u85/6Pjc9Tx02ntkrRtAODd3R+0oklV+z/yAnVSbW8/946Wm6ii+o+cyNR1ZZ1K/Upo6eqfNr579r9rot4ZtFrte3TQGjm/Nc32t+pvte+o46fTwpWkbQMA7+7uoGUnCTGh2yDUCgGGGrQ6trfbNe4g2HX2TC4uIGwTlZu4DrujFeoToSAev7z+dHytnv6p4zu+/30T9c6g1Wqf6JOsx/57IGiVx6/d/+7zW9PR/nr9ne1bx8Idh7yvfpyz86MuDVYpbRsAeHdjQcte1NMLbH6xthd7dZ1wgU/FE0F5e89OWJXyRVyHNqkWJHVfTvIuQ3uiawuTXyDbroxPYdLV+9czvu39Py5oGZX2HRW0FrXxa/W/eX6WdLa/XH9H+6LPqFkuz98gnCed7fbiNuW0bQDg3R3w6BDHUSZS4Elo4UrStgGAd0fQeioELTwvLVxJ2jYA8O4IWk+FoIXnpYUrSdsGAN4dQQtAFy1cSdo2APDuCFoAAACTELQAAAAmIWgBAABMQtACAACYhKAFAAAwCUELAABgEoIWAADAJAQtAACASQhaAAAAkxC0AAAAJiFoAQAATELQAgAAmISgBQAAMAlBCwAAYBKCFgAAwCQELQAAgEkIWgAAAJMQtAAAACYhaAEAAEzxw+3/Afzbq+7Ddv0iAAAAAElFTkSuQmCC;" parent="1" vertex="1">
          <mxGeometry x="1400.0000000000002" y="576.5" width="814.97" height="287" as="geometry" />
        </mxCell>
        <mxCell id="WQEoA2Sx39wn5vHGqPxY-125" style="edgeStyle=orthogonalEdgeStyle;rounded=0;orthogonalLoop=1;jettySize=auto;html=1;entryX=0;entryY=0.5;entryDx=0;entryDy=0;entryPerimeter=0;" parent="1" source="WQEoA2Sx39wn5vHGqPxY-123" target="WQEoA2Sx39wn5vHGqPxY-124" edge="1">
          <mxGeometry relative="1" as="geometry" />
        </mxCell>
        <mxCell id="WQEoA2Sx39wn5vHGqPxY-123" value="Update the custom Attributes to match the updated one&amp;nbsp;" style="rounded=0;whiteSpace=wrap;html=1;fillColor=#fff2cc;strokeColor=#d6b656;" parent="1" vertex="1">
          <mxGeometry x="1230" y="920" width="250" height="140" as="geometry" />
        </mxCell>
        <mxCell id="WQEoA2Sx39wn5vHGqPxY-124" value="Save in HANA all generated templates&amp;nbsp;" style="shape=cylinder3;whiteSpace=wrap;html=1;boundedLbl=1;backgroundOutline=1;size=15;" parent="1" vertex="1">
          <mxGeometry x="1700" y="1040" width="140" height="90" as="geometry" />
        </mxCell>
        <mxCell id="WQEoA2Sx39wn5vHGqPxY-132" value="&lt;h1&gt;Menu and templating&lt;/h1&gt;&lt;div&gt;&lt;div&gt;&lt;b&gt;&lt;font style=&quot;font-size: 14px;&quot;&gt;1. Start the program.&lt;/font&gt;&lt;/b&gt;&lt;/div&gt;&lt;div&gt;&lt;b&gt;&lt;font size=&quot;3&quot;&gt;2. Display the main menu options: &quot;Files&quot;, &quot;Edit&quot;, &quot;Help&quot;, &quot;Ingestion_Template&quot;, &quot;API_JSON_Template&quot;, &quot;Exit&quot;.&lt;/font&gt;&lt;/b&gt;&lt;/div&gt;&lt;div&gt;&lt;b&gt;&lt;font size=&quot;3&quot;&gt;3. Prompt the user to select an option from the menu.&lt;/font&gt;&lt;/b&gt;&lt;/div&gt;&lt;div&gt;&lt;b&gt;&lt;font size=&quot;3&quot;&gt;4. If the selected option is &quot;Files&quot;:&lt;/font&gt;&lt;/b&gt;&lt;/div&gt;&lt;div&gt;&lt;b&gt;&lt;font size=&quot;3&quot;&gt;&amp;nbsp; &amp;nbsp;a. Call the `dynamic_menu()` function.&lt;/font&gt;&lt;/b&gt;&lt;/div&gt;&lt;div&gt;&lt;b&gt;&lt;font size=&quot;3&quot;&gt;&amp;nbsp; &amp;nbsp;b. Inside `dynamic_menu()`, get the list of files in the current directory.&lt;/font&gt;&lt;/b&gt;&lt;/div&gt;&lt;div&gt;&lt;b&gt;&lt;font size=&quot;3&quot;&gt;&amp;nbsp; &amp;nbsp;c. Display the list of files to the user.&lt;/font&gt;&lt;/b&gt;&lt;/div&gt;&lt;div&gt;&lt;b&gt;&lt;font size=&quot;3&quot;&gt;&amp;nbsp; &amp;nbsp;d. Prompt the user to select a file or enter &#39;q&#39; to quit.&lt;/font&gt;&lt;/b&gt;&lt;/div&gt;&lt;div&gt;&lt;b&gt;&lt;font size=&quot;3&quot;&gt;&amp;nbsp; &amp;nbsp;e. If &#39;q&#39; is entered, return to the main menu.&lt;/font&gt;&lt;/b&gt;&lt;/div&gt;&lt;div&gt;&lt;br&gt;&lt;/div&gt;&lt;div&gt;&lt;br&gt;&lt;/div&gt;&lt;div&gt;&lt;br&gt;&lt;/div&gt;&lt;div&gt;&lt;br&gt;&lt;/div&gt;&lt;div&gt;&lt;br&gt;&lt;/div&gt;&lt;div&gt;&lt;br&gt;&lt;/div&gt;&lt;div&gt;&lt;br&gt;&lt;/div&gt;&lt;div&gt;&lt;br&gt;&lt;/div&gt;&lt;/div&gt;" style="text;html=1;strokeColor=#82b366;fillColor=#d5e8d4;spacing=5;spacingTop=-20;whiteSpace=wrap;overflow=hidden;rounded=0;" parent="1" vertex="1">
          <mxGeometry x="-2610" y="1397.5" width="710" height="350" as="geometry" />
        </mxCell>
        <mxCell id="WQEoA2Sx39wn5vHGqPxY-133" style="edgeStyle=orthogonalEdgeStyle;rounded=0;orthogonalLoop=1;jettySize=auto;html=1;exitX=1;exitY=0.5;exitDx=0;exitDy=0;entryX=0;entryY=0.5;entryDx=0;entryDy=0;" parent="1" source="WQEoA2Sx39wn5vHGqPxY-132" target="WQEoA2Sx39wn5vHGqPxY-134" edge="1">
          <mxGeometry relative="1" as="geometry" />
        </mxCell>
        <mxCell id="WQEoA2Sx39wn5vHGqPxY-134" value="&lt;div style=&quot;text-align: justify; border-color: var(--border-color);&quot;&gt;&lt;font style=&quot;font-size: 14px;&quot;&gt;&lt;b style=&quot;&quot;&gt;5. If the selected option is &quot;Edit&quot;:&lt;/b&gt;&lt;/font&gt;&lt;/div&gt;&lt;div style=&quot;text-align: justify; border-color: var(--border-color);&quot;&gt;&lt;b&gt;&lt;font size=&quot;3&quot;&gt;&amp;nbsp; &amp;nbsp;a. Call the `get_file()` function.&lt;/font&gt;&lt;/b&gt;&lt;/div&gt;&lt;div style=&quot;text-align: justify; border-color: var(--border-color);&quot;&gt;&lt;b&gt;&lt;font size=&quot;3&quot;&gt;&amp;nbsp; &amp;nbsp;b. Inside `get_file()`, get the list of files in the current directory.&lt;/font&gt;&lt;/b&gt;&lt;/div&gt;&lt;div style=&quot;text-align: justify; border-color: var(--border-color);&quot;&gt;&lt;b&gt;&lt;font size=&quot;3&quot;&gt;&amp;nbsp; &amp;nbsp;c. Display the list of files to the user.&lt;/font&gt;&lt;/b&gt;&lt;/div&gt;&lt;div style=&quot;text-align: justify; border-color: var(--border-color);&quot;&gt;&lt;b&gt;&lt;font size=&quot;3&quot;&gt;&amp;nbsp; &amp;nbsp;d. Prompt the user to enter the number of the file they want to select or &#39;q&#39; to quit.&lt;/font&gt;&lt;/b&gt;&lt;/div&gt;&lt;div style=&quot;text-align: justify; border-color: var(--border-color);&quot;&gt;&lt;b&gt;&lt;font size=&quot;3&quot;&gt;&amp;nbsp; &amp;nbsp;e. If &#39;q&#39; is entered, return to the main menu.&lt;/font&gt;&lt;/b&gt;&lt;/div&gt;&lt;div style=&quot;text-align: justify; border-color: var(--border-color);&quot;&gt;&lt;b&gt;&lt;font size=&quot;3&quot;&gt;&amp;nbsp; &amp;nbsp;f. If a valid file number is entered, open the selected file for editing.&lt;/font&gt;&lt;/b&gt;&lt;/div&gt;&lt;div style=&quot;text-align: justify; border-color: var(--border-color);&quot;&gt;&lt;b&gt;&lt;font size=&quot;3&quot;&gt;6. If the selected option is &quot;Help&quot;:&lt;/font&gt;&lt;/b&gt;&lt;/div&gt;&lt;div style=&quot;text-align: justify; border-color: var(--border-color);&quot;&gt;&lt;b&gt;&lt;font size=&quot;3&quot;&gt;&amp;nbsp; &amp;nbsp;a. Call the `help_menu()` function.&lt;/font&gt;&lt;/b&gt;&lt;/div&gt;&lt;div style=&quot;text-align: justify; border-color: var(--border-color);&quot;&gt;&lt;b&gt;&lt;font size=&quot;3&quot;&gt;&amp;nbsp; &amp;nbsp;b. Inside `help_menu()`, display a help menu with instructions on how to use the program.&lt;/font&gt;&lt;/b&gt;&lt;/div&gt;&lt;div style=&quot;text-align: justify; border-color: var(--border-color);&quot;&gt;&lt;b&gt;&lt;font size=&quot;3&quot;&gt;&amp;nbsp; &amp;nbsp;c. Return to the main menu.&lt;/font&gt;&lt;/b&gt;&lt;/div&gt;&lt;div style=&quot;text-align: justify; border-color: var(--border-color);&quot;&gt;&lt;b&gt;&lt;font size=&quot;3&quot;&gt;7. If the selected option is &quot;Ingestion_Template&quot;:&lt;/font&gt;&lt;/b&gt;&lt;/div&gt;&lt;div style=&quot;text-align: justify; border-color: var(--border-color);&quot;&gt;&lt;b&gt;&lt;font size=&quot;3&quot;&gt;&amp;nbsp; &amp;nbsp;a. Call the `Ingestion_JSON()` function.&lt;/font&gt;&lt;/b&gt;&lt;/div&gt;&lt;div style=&quot;text-align: justify; border-color: var(--border-color);&quot;&gt;&lt;b&gt;&lt;font size=&quot;3&quot;&gt;&amp;nbsp; &amp;nbsp;b. Inside `Ingestion_JSON()`, the template string is defined for ingestion JSON attributes.&lt;/font&gt;&lt;/b&gt;&lt;/div&gt;&lt;div style=&quot;text-align: justify; border-color: var(--border-color);&quot;&gt;&lt;b&gt;&lt;font size=&quot;3&quot;&gt;&amp;nbsp; &amp;nbsp;c. Prompt the user to enter values for the template attributes.&lt;/font&gt;&lt;/b&gt;&lt;/div&gt;&lt;div style=&quot;text-align: justify; border-color: var(--border-color);&quot;&gt;&lt;b&gt;&lt;font size=&quot;3&quot;&gt;&amp;nbsp; &amp;nbsp;d. Render the template with the user input and print the populated template.&lt;/font&gt;&lt;/b&gt;&lt;/div&gt;&lt;div style=&quot;text-align: justify; border-color: var(--border-color);&quot;&gt;&lt;b&gt;&lt;font size=&quot;3&quot;&gt;&amp;nbsp; &amp;nbsp;e. Return to the main menu.&lt;/font&gt;&lt;/b&gt;&lt;/div&gt;&lt;div style=&quot;text-align: justify; border-color: var(--border-color);&quot;&gt;&lt;br style=&quot;border-color: var(--border-color); text-align: left;&quot;&gt;&lt;/div&gt;" style="text;html=1;strokeColor=#d79b00;fillColor=#ffe6cc;align=center;verticalAlign=middle;whiteSpace=wrap;rounded=0;" parent="1" vertex="1">
          <mxGeometry x="-1860" y="1630" width="750" height="340" as="geometry" />
        </mxCell>
        <mxCell id="WQEoA2Sx39wn5vHGqPxY-135" value="&lt;div style=&quot;text-align: justify;&quot;&gt;&lt;b&gt;&lt;font style=&quot;font-size: 14px;&quot;&gt;&lt;br&gt;&lt;/font&gt;&lt;/b&gt;&lt;/div&gt;&lt;div style=&quot;border-color: var(--border-color);&quot;&gt;&lt;div style=&quot;text-align: justify; border-color: var(--border-color);&quot;&gt;&lt;b&gt;&lt;font size=&quot;3&quot;&gt;8. If the selected option is &quot;API_JSON_Template&quot;:&lt;/font&gt;&lt;/b&gt;&lt;/div&gt;&lt;div style=&quot;text-align: justify; border-color: var(--border-color);&quot;&gt;&lt;b&gt;&lt;font size=&quot;3&quot;&gt;&amp;nbsp; &amp;nbsp;a. Call the `API_JSON()` function.&lt;/font&gt;&lt;/b&gt;&lt;/div&gt;&lt;div style=&quot;text-align: justify; border-color: var(--border-color);&quot;&gt;&lt;b&gt;&lt;font size=&quot;3&quot;&gt;&amp;nbsp; &amp;nbsp;b. Inside `API_JSON()`, prompt the user to enter values for specific attributes.&lt;/font&gt;&lt;/b&gt;&lt;/div&gt;&lt;div style=&quot;text-align: justify; border-color: var(--border-color);&quot;&gt;&lt;b&gt;&lt;font size=&quot;3&quot;&gt;&amp;nbsp; &amp;nbsp;c. Load the template file, populate it with user input, and save it as a new file.&lt;/font&gt;&lt;/b&gt;&lt;/div&gt;&lt;div style=&quot;text-align: justify; border-color: var(--border-color);&quot;&gt;&lt;b&gt;&lt;font size=&quot;3&quot;&gt;&amp;nbsp; &amp;nbsp;d. Display a message indicating the saved file&#39;s name and return to the main menu.&lt;/font&gt;&lt;/b&gt;&lt;/div&gt;&lt;div style=&quot;text-align: justify; border-color: var(--border-color);&quot;&gt;&lt;b&gt;&lt;font size=&quot;3&quot;&gt;9. If the selected option is &quot;Exit&quot;:&lt;/font&gt;&lt;/b&gt;&lt;/div&gt;&lt;div style=&quot;text-align: justify; border-color: var(--border-color);&quot;&gt;&lt;b&gt;&lt;font size=&quot;3&quot;&gt;&amp;nbsp; &amp;nbsp;a. Display a message indicating that the program is exiting.&lt;/font&gt;&lt;/b&gt;&lt;/div&gt;&lt;div style=&quot;text-align: justify; border-color: var(--border-color);&quot;&gt;&lt;b&gt;&lt;font size=&quot;3&quot;&gt;&amp;nbsp; &amp;nbsp;b. Terminate the program using `sys.exit()`.&lt;/font&gt;&lt;/b&gt;&lt;/div&gt;&lt;div style=&quot;text-align: justify; border-color: var(--border-color);&quot;&gt;&lt;b&gt;&lt;font size=&quot;3&quot;&gt;10. If the selected option is invalid, display an error message.&lt;/font&gt;&lt;/b&gt;&lt;/div&gt;&lt;div style=&quot;text-align: justify; border-color: var(--border-color);&quot;&gt;&lt;b&gt;&lt;font size=&quot;3&quot;&gt;11. Go back to step 3 and repeat the process until the user chooses to exit the program.&lt;/font&gt;&lt;/b&gt;&lt;/div&gt;&lt;div style=&quot;text-align: justify; border-color: var(--border-color);&quot;&gt;&lt;b&gt;&lt;font size=&quot;3&quot;&gt;&lt;br style=&quot;border-color: var(--border-color);&quot;&gt;&lt;/font&gt;&lt;/b&gt;&lt;/div&gt;&lt;/div&gt;&lt;p style=&quot;text-align: justify; border-color: var(--border-color);&quot;&gt;&lt;br style=&quot;border-color: var(--border-color); text-align: left;&quot;&gt;&lt;/p&gt;" style="text;html=1;strokeColor=#6c8ebf;fillColor=#dae8fc;align=center;verticalAlign=middle;whiteSpace=wrap;rounded=0;" parent="1" vertex="1">
          <mxGeometry x="-1060" y="1740" width="750" height="355" as="geometry" />
        </mxCell>
        <mxCell id="WQEoA2Sx39wn5vHGqPxY-136" style="edgeStyle=orthogonalEdgeStyle;rounded=0;orthogonalLoop=1;jettySize=auto;html=1;entryX=0.5;entryY=0;entryDx=0;entryDy=0;" parent="1" source="WQEoA2Sx39wn5vHGqPxY-134" target="WQEoA2Sx39wn5vHGqPxY-135" edge="1">
          <mxGeometry relative="1" as="geometry" />
        </mxCell>
        <mxCell id="WQEoA2Sx39wn5vHGqPxY-141" value="&lt;h1&gt;API_INGESTION_JSON (AUTOMATION)&lt;/h1&gt;" style="text;html=1;strokeColor=#d79b00;fillColor=#ffe6cc;spacing=5;spacingTop=-20;whiteSpace=wrap;overflow=hidden;rounded=0;" parent="1" vertex="1">
          <mxGeometry x="-2620" y="-10" width="510" height="65" as="geometry" />
        </mxCell>
        <mxCell id="WQEoA2Sx39wn5vHGqPxY-143" value="&lt;h1&gt;FTP_INGESTION_JSON (AUTOMATION)&lt;/h1&gt;" style="text;html=1;strokeColor=#d79b00;fillColor=#ffe6cc;spacing=5;spacingTop=-20;whiteSpace=wrap;overflow=hidden;rounded=0;" parent="1" vertex="1">
          <mxGeometry x="1088" y="-2.5" width="470" height="50" as="geometry" />
        </mxCell>
        <mxCell id="WQEoA2Sx39wn5vHGqPxY-144" value="&lt;h1&gt;POSSIBLE RUN (OVERVIEW)&lt;/h1&gt;" style="text;html=1;strokeColor=#d79b00;fillColor=#ffe6cc;spacing=5;spacingTop=-20;whiteSpace=wrap;overflow=hidden;rounded=0;" parent="1" vertex="1">
          <mxGeometry x="-2610" y="1320" width="400" height="40" as="geometry" />
        </mxCell>
        <mxCell id="WQEoA2Sx39wn5vHGqPxY-147" value="Save in HANA all generated templates&amp;nbsp;" style="shape=cylinder3;whiteSpace=wrap;html=1;boundedLbl=1;backgroundOutline=1;size=15;" parent="1" vertex="1">
          <mxGeometry x="-1630" y="1165" width="160" height="105" as="geometry" />
        </mxCell>
        <mxCell id="WQEoA2Sx39wn5vHGqPxY-148" value="" style="endArrow=classic;html=1;rounded=0;" parent="1" edge="1">
          <mxGeometry width="50" height="50" relative="1" as="geometry">
            <mxPoint x="-740" y="800" as="sourcePoint" />
            <mxPoint x="-690" y="750" as="targetPoint" />
          </mxGeometry>
        </mxCell>
        <mxCell id="fM4N8l9-52eDUobYFRvL-7" style="edgeStyle=none;curved=1;rounded=0;orthogonalLoop=1;jettySize=auto;html=1;entryX=0.581;entryY=0.014;entryDx=0;entryDy=0;entryPerimeter=0;fontSize=12;startSize=8;endSize=8;" edge="1" parent="1" source="fM4N8l9-52eDUobYFRvL-1" target="fM4N8l9-52eDUobYFRvL-3">
          <mxGeometry relative="1" as="geometry" />
        </mxCell>
        <mxCell id="fM4N8l9-52eDUobYFRvL-9" value="User crediantial" style="edgeLabel;html=1;align=center;verticalAlign=middle;resizable=0;points=[];fontSize=16;" vertex="1" connectable="0" parent="fM4N8l9-52eDUobYFRvL-7">
          <mxGeometry x="-0.2262" y="-2" relative="1" as="geometry">
            <mxPoint as="offset" />
          </mxGeometry>
        </mxCell>
        <mxCell id="fM4N8l9-52eDUobYFRvL-8" style="edgeStyle=none;curved=1;rounded=0;orthogonalLoop=1;jettySize=auto;html=1;exitX=0.5;exitY=0.5;exitDx=0;exitDy=0;exitPerimeter=0;entryX=0;entryY=0;entryDx=35;entryDy=0;entryPerimeter=0;fontSize=12;startSize=8;endSize=8;" edge="1" parent="1" source="fM4N8l9-52eDUobYFRvL-1" target="fM4N8l9-52eDUobYFRvL-2">
          <mxGeometry relative="1" as="geometry">
            <Array as="points">
              <mxPoint x="1420" y="1230" />
            </Array>
          </mxGeometry>
        </mxCell>
        <mxCell id="fM4N8l9-52eDUobYFRvL-1" value="User&amp;nbsp;" style="shape=umlActor;verticalLabelPosition=bottom;verticalAlign=top;html=1;outlineConnect=0;fontSize=16;" vertex="1" parent="1">
          <mxGeometry x="1540" y="1210" width="50" height="90" as="geometry" />
        </mxCell>
        <mxCell id="fM4N8l9-52eDUobYFRvL-4" value="" style="edgeStyle=none;curved=1;rounded=0;orthogonalLoop=1;jettySize=auto;html=1;fontSize=12;startSize=8;endSize=8;" edge="1" parent="1" source="fM4N8l9-52eDUobYFRvL-2" target="fM4N8l9-52eDUobYFRvL-3">
          <mxGeometry relative="1" as="geometry">
            <Array as="points">
              <mxPoint x="1440" y="1540" />
              <mxPoint x="1470" y="1580" />
            </Array>
          </mxGeometry>
        </mxCell>
        <mxCell id="fM4N8l9-52eDUobYFRvL-2" value="Configuration&lt;br&gt;file (Excel or other)" style="shape=note;whiteSpace=wrap;html=1;backgroundOutline=1;darkOpacity=0.05;fontSize=16;fillColor=#dae8fc;strokeColor=#6c8ebf;" vertex="1" parent="1">
          <mxGeometry x="1380" y="1360" width="100" height="110" as="geometry" />
        </mxCell>
        <mxCell id="fM4N8l9-52eDUobYFRvL-3" value="Automation code&amp;nbsp;" style="whiteSpace=wrap;html=1;fontSize=16;fillColor=#fff2cc;strokeColor=#d6b656;" vertex="1" parent="1">
          <mxGeometry x="1490" y="1545" width="120" height="60" as="geometry" />
        </mxCell>
        <mxCell id="fM4N8l9-52eDUobYFRvL-6" style="edgeStyle=none;curved=1;rounded=0;orthogonalLoop=1;jettySize=auto;html=1;entryX=1;entryY=0.5;entryDx=0;entryDy=0;fontSize=12;startSize=8;endSize=8;" edge="1" parent="1" source="fM4N8l9-52eDUobYFRvL-5" target="fM4N8l9-52eDUobYFRvL-3">
          <mxGeometry relative="1" as="geometry">
            <Array as="points">
              <mxPoint x="1690" y="1580" />
            </Array>
          </mxGeometry>
        </mxCell>
        <mxCell id="fM4N8l9-52eDUobYFRvL-5" value="Configuration&lt;br&gt;file (Excel or other)" style="shape=note;whiteSpace=wrap;html=1;backgroundOutline=1;darkOpacity=0.05;fontSize=16;fillColor=#ffe6cc;strokeColor=#d79b00;" vertex="1" parent="1">
          <mxGeometry x="1650" y="1380" width="100" height="110" as="geometry" />
        </mxCell>
        <mxCell id="fM4N8l9-52eDUobYFRvL-11" value="Hana&lt;br&gt;(Data Pipeline)" style="shape=cylinder3;whiteSpace=wrap;html=1;boundedLbl=1;backgroundOutline=1;size=15;fontSize=16;fillColor=#dae8fc;strokeColor=#6c8ebf;" vertex="1" parent="1">
          <mxGeometry x="1447.5" y="2130" width="222.5" height="90" as="geometry" />
        </mxCell>
        <mxCell id="fM4N8l9-52eDUobYFRvL-13" value="" style="edgeStyle=none;curved=1;rounded=0;orthogonalLoop=1;jettySize=auto;html=1;fontSize=12;startSize=8;endSize=8;entryX=0.5;entryY=0;entryDx=0;entryDy=0;entryPerimeter=0;" edge="1" parent="1" source="fM4N8l9-52eDUobYFRvL-3" target="fM4N8l9-52eDUobYFRvL-12">
          <mxGeometry relative="1" as="geometry">
            <mxPoint x="1550" y="2060" as="targetPoint" />
            <mxPoint x="1550" y="1605" as="sourcePoint" />
          </mxGeometry>
        </mxCell>
        <mxCell id="fM4N8l9-52eDUobYFRvL-17" style="edgeStyle=none;curved=1;rounded=0;orthogonalLoop=1;jettySize=auto;html=1;fontSize=12;startSize=8;endSize=8;" edge="1" parent="1" source="fM4N8l9-52eDUobYFRvL-12" target="fM4N8l9-52eDUobYFRvL-16">
          <mxGeometry relative="1" as="geometry" />
        </mxCell>
        <mxCell id="fM4N8l9-52eDUobYFRvL-18" style="edgeStyle=none;curved=1;rounded=0;orthogonalLoop=1;jettySize=auto;html=1;entryX=0.5;entryY=0;entryDx=0;entryDy=0;fontSize=12;startSize=8;endSize=8;" edge="1" parent="1" source="fM4N8l9-52eDUobYFRvL-12" target="fM4N8l9-52eDUobYFRvL-15">
          <mxGeometry relative="1" as="geometry" />
        </mxCell>
        <mxCell id="fM4N8l9-52eDUobYFRvL-12" value="Json file created form tempaltes with inputs" style="shape=note;whiteSpace=wrap;html=1;backgroundOutline=1;darkOpacity=0.05;fontSize=16;fillColor=#f8cecc;strokeColor=#b85450;" vertex="1" parent="1">
          <mxGeometry x="1490" y="1720" width="120" height="130" as="geometry" />
        </mxCell>
        <mxCell id="fM4N8l9-52eDUobYFRvL-20" style="edgeStyle=none;curved=1;rounded=0;orthogonalLoop=1;jettySize=auto;html=1;exitX=0.5;exitY=1;exitDx=0;exitDy=0;fontSize=12;startSize=8;endSize=8;" edge="1" parent="1" source="fM4N8l9-52eDUobYFRvL-15" target="fM4N8l9-52eDUobYFRvL-11">
          <mxGeometry relative="1" as="geometry" />
        </mxCell>
        <mxCell id="fM4N8l9-52eDUobYFRvL-15" value="REST API&lt;br&gt;(API Gateway Auth)" style="rounded=0;whiteSpace=wrap;html=1;fontSize=16;fillColor=#fff2cc;strokeColor=#d6b656;" vertex="1" parent="1">
          <mxGeometry x="1600" y="1970" width="120" height="60" as="geometry" />
        </mxCell>
        <mxCell id="fM4N8l9-52eDUobYFRvL-19" style="edgeStyle=none;curved=1;rounded=0;orthogonalLoop=1;jettySize=auto;html=1;entryX=0.5;entryY=0;entryDx=0;entryDy=0;entryPerimeter=0;fontSize=12;startSize=8;endSize=8;" edge="1" parent="1" source="fM4N8l9-52eDUobYFRvL-16" target="fM4N8l9-52eDUobYFRvL-11">
          <mxGeometry relative="1" as="geometry" />
        </mxCell>
        <mxCell id="fM4N8l9-52eDUobYFRvL-16" value="Hana store Procedures&amp;nbsp;" style="rounded=0;whiteSpace=wrap;html=1;fontSize=16;fillColor=#fff2cc;strokeColor=#d6b656;" vertex="1" parent="1">
          <mxGeometry x="1370" y="1970" width="120" height="60" as="geometry" />
        </mxCell>
      </root>
    </mxGraphModel>
  </diagram>
</mxfile>
